<mxfile host="app.diagrams.net" modified="2021-09-18T06:06:08.996Z" agent="5.0 (Windows NT 10.0; Win64; x64) AppleWebKit/537.36 (KHTML, like Gecko) Chrome/93.0.4577.82 Safari/537.36" etag="-uxCEN40mIxYilq7_Rw8" version="14.9.6" type="github">
  <diagram id="y94GaJuw0fqGvDy6F7ge" name="Page-1">
    <mxGraphModel dx="1640" dy="435" grid="1" gridSize="10" guides="1" tooltips="1" connect="1" arrows="1" fold="1" page="1" pageScale="1" pageWidth="827" pageHeight="1169" math="0" shadow="0">
      <root>
        <mxCell id="0" />
        <mxCell id="1" parent="0" />
        <mxCell id="eqonpGOxvKRrQOyWGAyb-2" value="" style="shape=image;verticalLabelPosition=bottom;labelBackgroundColor=#ffffff;verticalAlign=top;aspect=fixed;imageAspect=0;image=data:image/png,iVBORw0KGgoAAAANSUhEUgAAB4AAAAQQCAYAAAADLEYYAAAAAXNSR0IArs4c6QAAAARnQU1BAACxjwv8YQUAAAAJcEhZcwAADsMAAA7DAcdvqGQAAP+lSURBVHhe7N0FgBT1Fwfwd31HXdDN0SHdJS0gIC0tSCkGNiriX1QEFINWQQVUkE7pbqS74eg8rrjg+j/v7cze7t7W3e0dd8f3o4+b2tnZid2ZefP7/ZwSFQQAAAAAAAB09+5dtQuehiJTQ9WurOnOSG+1C56WwoULq10AAAAAAADPLiSAAQAAAAAAAAAAAAAAAACyCWf1LwAAAAAAAAAAAAAAAAAAZHH6EsDf/zidfHySV1d19NhJOnr8pNpnXmn/krTgz1lqHwAAAAAAAAAAAAAAAAAAPA36EsCc/O3Vs6t09+zemcqWLU21alaTsOVqwHW1CwAAAAAAAAAAAAAAAAAAnhZ9CeDf/vhLBoQ9DqcO7dvQlm07ycPdXYaV23aAihXIT27OzhQcFUkXzl+hrbcC6ER+P2UOTjLNgd0b5S8AAAAAAAAAAAAAAAAAgKPNmmW9RuLhw4erXZkDL2+3bt0oX7586hBjgYGBtHz5cocvt1ECuGwZfzp6/BS5ublRdHQ0Xb16TUoADy1RgRIfBBJFRRJ5eBDl9aOowEe0esbPNJ2iKU6ZHglgAAAAAAAAAAAAAAAAAEgvnFC1lCy1Nu5p4QTvylWrqEvnzsmSwNbGpZVRAnjo4AEy0BAPH7D3FMWFP6bEuFhydnEhV68c5FqwECWULUd/zphOv+RyoYN7N6uvMBRAW2cdIb+ePagmHaOlS65QGe72VUdnZ8H2fF6D9WM0DQ/fTFfIj+rKOK0/SZk2w6mVv9rjaHYtuw0BW2nWZl7iMtRmeCtK1aLq56HjV7cn9XDYzmNp3ZsXsHUWHfEzeX9evqulSfl4uu1Tpo3SnfyTBh9bSksOkbot1YEKq/OsFZLOx4vh58/g/QsAAAAAAAAAAAAAACAF7Cn5mxkTwMxcojc9k79M3wbwb3P+pgZN21K3mk1pxpuf0ewhH9Ev7ftQ+O//0NHt22na7h301d5dNH3ndjq9azc9OX+RnPbupx4NWlDpkDB1Llb41qQew9MrmfU0cNJsKR0LVntNpfnzcuLU8PWcDB4uO+7wNmXoyuatyhKkE0dsK/9WyrK2UT5FKknyNzjpMw/vSWWuLKGlFld4+vIvXYaCgkLUPp2Aq1eoTGktS+pHfsFHzOwPAXT0UJDabczqPK1uAxv7XqoY7F8961Jweu5fAAAAAAAAAAAAAAAAKaTLFyWPzI4TvJzo5YQvJ37TO/nL9AlgTZ8EdxrRtC0NinGlnmHR5HzlKr2Vy5mWFC9I20uXoCVlStD7Pp608+gRig8JJ8/wCKrl5aO+GjKEf2kqQ8EU8nRyoRkgmI4duUJl2hgmQH2pZqu6RIeOPp3EpI8f+SnHQtJ7B9DVK2VIn/9V+CrLeuWayUYJuEpXypQxnwi3Y55Pha+Psraz8/4FAAAAAAAAAAAAAACQcQyTwOmd/GUuYxXcwSWAvaNj6M0aDSn3gwiKPn+OtgScp8mF8lAurxzU5eZ9uuvpTjHu7hTv4Ua3E+KouYcfeUXH0gkXF6o/qLvM0FgIBRy5S15VKlNhLy61uJVCSxt0O9+lNWu20JEjRyjAuTRVLuylvMZwOp6H1l+Y7q39i/ZGq9NxCdGtoVS6cmGSycwKpmNL/6I1e47Ie4T41abSUt2tpfe29Bp1lB7Pg6vMjaI7Z5XpQvyodukQmW9AyFnasuUu+dV2oqMGn4Or+12yRTdP3fQ8U8P1o5uzDg8PJt/apUn31ibTBRylLSFFqXFt/uyW1hf3W/usdoyzOQ8FVxf91xraI8Od6e6avQbLYvo57BR8nvYe8aIqrU1e5+VJ0QFn6UnhpOVKWt+lKcTsOmbmtqnJOjX4HEeOhMj8kr/3Hrrjpe4PvA2cSlNrg+3o17o20eaz5KR/rfK+W89S0cZVKOqsme1sdZ7Jt4Hus+5Rlu+qMufk+575fUDps7nvmdm/nKpQx8q6T2G8brT1p1unKTseAQAAAAAAAAAAAADgaeOqkiVnYCNq166tvuLps7Y82rjMtsymIiMj6fyFC9JdsWJFypEjh3SnB6MSwKXCwsmnQBmKv3SVngSF0DK3eHLzzEF9wxLJ3TM3Bbm5kJMTT+lEV3zzUERCHCXEKjOJUf5JsSA6FFRaVzy7TRkKslmy05dq9mhDvjJdAG3dTNSmR00riUVOUC2hK2V66ouAJ7Vpaum9rb3GkD+1kuqN1Wpz9RMFUbAfV32cvM1b/1a6+Um1yFfMVRVsi7LMS2bJQSltxFr97IasrWd7t4Gl6ZTtsOQQ+bbRfbZWdMWoHdk08fMj8+XKgyip1mTj9W1+HduzTflzcHu76uvbKF8WyTaQL5Uq40fBarFY4+qfNf5UuswVuqqtxOBryvooQ6Usbih75qnRPqv6+ZLte5bZt+8Z7F98bOnna7yNddVDc/XTKT0eAQAAAAAAAAAAAAAgM9DlDGwHOI5htc+G1UGnF6MEsN+TGPKIdaaEwCCKCAmjm7m8yMXFmZrlLUePYiLJ2cVVmUoywOSZkEBuuXwpMSKOYiMiZFjK+FHdWmqSye4qjf2pVRuizboMVbIkqxFOvgWVodpmG1G18N5WX2MPPypjKdvHJSQ5uSYlh1NDTfj1rGtSbbAt1tazvdvA0voKoWC/uqSN8q1ZWxlnBy5RKuuCw0Jbs0FBZNw6rsaP/PSZYZP1bW4d27NN+XMYJUCvJGubl/mWUj7dlWvKtPz5DZcjiX+tuhR85JgyhbI4Rw+Rb23rSVF75qljZd+yxa59T92/+Eu9px8d0doYlnVjUC21b02qXUZLwqfgeAQAAAAAAAAAAAAAAEgnnAfJrEzb/DVtEzg9GCWAnRITyfl+GCWGRlBsVDSFu7vzUHKLjaNGLgXIOSFeN6Gi3r1H5F2iEsUGRdDjx4/UoWAWJzw5RyZPTPSkun7q8NTwrUmt6gabKaGahSifoYf+CRIziUPfUlTGz6AkrUaSub7kYy4PmuZ1XEZ9rRrmStbyctEVuhZgpWSvfppjdCQ4KTlukT3zTIvUrBdZ/4YlrQEAAAAAAAAAAAAAADIvLb+T2ZgmfzXpnQQ2SgCHu7lS7K2HlBgZQ05xupFOTk505s5lal2sNX0eloPa3rxPA++H0Tsv9CP3cw/p4b3rdN05NVVAW+JDfobJp4CrlFRqUa1qluvo3Wyh5KhGTSKmKFGamtfYI0T5PFqVxpLElKGpxiVtfQ9tVavytba+0pmvD/kGHaKj6oYIPnbEQe/tSzVrl6ErRttYVxUx1a1lvqSppXVszzblz6Esue3tzlU2Ex3arCxHmVIWSvbysvvamMaQPfO0xco+kJp9T6ZTSyOr6yapWutjdOSKViI4BccjAAAAAAAAAAAAAABAGuhqO00emdny5cuTJX81WhKYp3E0owTwnRxeFH7nFlFMInkl5qD8T2IoMTGRFuWOpqunN1Jrp+r0eZN3aVj918hnx0O6uX8zLXG5T0d9c6tzcAQt+aduuKtcNpNxW66bKVgSgP5Uq24wbV6qq2rXPK2N0iX6HWCrzQxVSl7D7b2q1QbbmrF/LapLh2gJz3NrEPmmpQSw4M9PdGgrf35L6ysjcBXASe+9VXlnh723fytpi3ezuh24+mJqM5x6WKrK2eI6tmebKp+jJ6/QpGksbVOustnPVnXMvCx+9lclbtc8jZjue1b2Abv3PYMqsKU95B6kW3zdugnW5i3juNR2So9HAAAAAAAAAAAAAACA1NHX4GohMiteNnPJXw2PS4/ld0rkDK+iQdO2Sk8C/XQ2hmrE+1BcPNE3ea7SVv9CUgq4YGgYdboZSpUi3MgzgeiiRzT9m9+VzubzJXdPLzq4d7PMEBwhgLbOukqlzVWPnJlxdcNLgqi2frmz6OcAAAAAAAAAAAAAAAAAyKKMEsCs5fX7NOpeUfJwiqcAiqG3K0dTRK6cxFMlJMRTXFwcJSYkSFLYxdWVXFxcpfvA7o3y+ozHScbNJlUPc3uujko6pvf8zdHe04/q6ktiZn4BW2fR5uC61LNHTfIN2EqzNvNaS+91BQAAAAAAAAAAAAAAAAAafQK438DX6crVAHKLi6P2d2LIhzzI2c2bjrveoWP5cpGTk1Ft0UbKlPan+fN+Ufvg2cHVAC+hQ/p2ZZHsBQAAAAAAAAAAAAAAAHia9AlgAAAAAAAAAAAAAAAAAADI2iwX6wUAAAAAAAAAAAAAAAAAgCwFCWAAAAAAAAAAAAAAAAAAgGwCCWAAAAAAAAAAAAAAAAAAgGwCCWAAAAAAAAAAAAAAAAAAgGwCCWAAAAAAAAAAAAAAAAAAgGwCCWAAAAAAAAAAAAAAAAAAgGwCCWAAAAAAAAAAAAAAAAAAgGwCCWAAAAAAAAAAAAAAAAAAgGwCCWAAAAAAAAAAAAAAAAAAgGzCZaxC7bbgBu2at5J2nDhBJ9S44exPFTwv0upF/1G0fwUq6MnT7KRQ6VZf5nDqcoT5UY2S3uqwJKEnV9OiDRfIOVXLYGX5Q08afE51WAa6sWse7QxV1rfhm9/YRfNOOFENn+tPddmS8Po7QU41SlLyLZMZWdinU7sSn/I+kpyl/dnKfq5nzzQAAAAAAAAAAAAAAACQWdlZAtiXanYZSAMH6uKlat5E3tXopYEvEXdmHF/yDTlOJ0PVXr0bdOJYsNrtYE/lcyYpUcqfgkOMP/CNawHkX6rEU1+2jMNJydVmtntaGO7TLcjn2Eqat+uGOi6FnpntAAAAAAAAAAAAAAAAAJldlqsC2seH6Np1k0zgjWsU4O9P/mpvtuLtQ74B1ygpNXmDrgX4E+d/wVFK0PNdapqsZwAAAAAAAAAAAAAAAICsx44qoEPp+ol75FnRWnWyJtNIlbgb6IBUrxtGfg6pGlj3Hj7NaxDtuGBQ3XAondx5gQrXr0hPzictA1edvHKHWsWvUbXRyvSrF9GGA7pxYX41qKS3uvyFo+m/lbrlTqoS2PBzqt3O92nDhh3Jqw5Oj8/t6UnRNw7QPS9eTqX/xgna4VSKmul6jKvrNfP+ocp6OOGkvtbc9AejqYKZKrVThtdfCPnI57W2jtRxfrbWM89T6/eiC4u2UwA9oXvnTbdlapnZp03Xc7J16UPXlf3mgjaecVXcO0PJv0I0HTRadnP7GA82t39YmDZNzHw+YTLcwvIkTWNtewEAAAAAAAAAAAAAAEBmZGcJ4GA6tnIezZunC+s15d6gXSuvUSmtet0WRMcdWndvCSrlH0DXtGUIvU7KuyVLmpV4Pql6X/8ArdpoTratpGuluqjjBtLz+pK0ymc8TtRMltmfgo+dUD6JOcp0IaXUz2Y4XXp9bm8qWcqXQtRqoPXVPydj/v25CukAbWXduEYhvkklqEOvXyPySXO20QxL64gZrOcuNYmO7bRRtXMJep63oVZlc9IGS0fm1iVRtRoG61Ih26JGNZMkv6V9zML+ceMEHfNpYTKtIxgfs7rgRLrG3v01pdsLAAAAAAAAAAAAAAAAnqZUtQFsNUkVGkIhhsmn7QHJ2rBNqxLVa1LI8ZPEc71x4hj5JEvCKbh0pmnSi5PFwf5Uw2xjrcpnbKbOp0Qp8lc+hfnFVqarrq4Aw+nS8XN7lyzFWVvl84ZSSIiv+ZytpffnKqRDQnTr6loIlaqRNC/O/5ZKe3FTMyysI2Gwnr2rUQ3/YAvr+WlQ162ldcmfRV9N9A26FlKTtI+pZ2kfs7Z9ArbTaodnVY2PWV1wIl1l9/6ambcXAAAAAAAAAAAAAAAAmEqnNoD9qYVh4snRpTa9S1IpukbXb5yk42aTcCdp9XZSl6EL1fRVh6e7dPrc+s9rvrRzEjPvr702lBOWymtLcH8IhVooOZ2xOKGtdj5tkrj1MUium9uWJah6zRApKRt68jiFlEppFd/mtk81eknpbkY7JRFrvXS9o6V0f81E2wsAAAAAAAAAAAAAAADMcnwC2NuHfCjAQnWyjuJN1Wr40LHtx7gIa/IkXGgIBfv66IZLYk+G6pKhvum0bOn6ubkaaLL8eZnF99e99tpOLWHJ/SF07USI5Xmlq2B9FdRaaVldjdbe5ONrULr0xjWD6orTG1eHfIx8WjxPukWxvC11pbFP0IlrPuZLklvax2zsH97VXqIuNZOq+k53du+vlrYXAAAAAAAAAAAAAAAAZEbpUAK4BD0vbYWu1FUty5EexRpLVKeavhaqc+ZxdIxW8nvvDCEffQlgb6r2UgvyMVg2xy1a+n5uTjz6Kv9ZrrLZ8vtL0jI4qbpn7g8JCLEyr/TkSz4hutKu8wyTrrxtuI3d7eqyX+PyqRpu91mtrthh69Sg+uN5x8mni2HV5la2pZSoDqAAn1LqcpuytI9ZmKe+qvJ5tPKYhaRyurB3f7W0vQAAAAAAAAAAAAAAACAzckpUqN0A6ewG7ZJk60uUYXlOSANsLwAAAAAAAAAAAAAAgKwmndoABgAAAAAAAAAAAAAAAACAjIYEMAAAAAAAAAAAAAAAAABANoEqoAEAAAAAAAAAAAAAAAAAsgmUAAYAAAAAAAAAAAAAAAAAyCacwsLCUAIYAAAAAAAAAAAAAAAAACAbcAoKCkQC+BmzZct6tQsANK1bt5e/OD4AktOOj6ULF8pfAEjSo3dv+YvfD4DkcH4FYJl2fAAAAAAAAJjy9c1LoaGhal/qIAH8jOGbLz179lf7AICdPXuSzpw5Kd04PgCMacdHSGAo1a5bTx0KAJojhw6STz5v/H4AmMD5FYBl2vGBJDAAAGRVWfUBP/7t7fDZFrUva1n7Tessvd6zw0Oh2encLaO2B853Uw8JYEgxLQEcHx+nDgGACxfOGt2gxPEBkEQ7PrQEcGxMjDoGAOo3akyzf56hTwDj9wMgCc6vACzTjg/cEAMAgKyqdOmyalfWcvXqZUmqZEXBwY+QAH7KslsCOL0/T0a8R3aWoQngaxGxVNzTmVxcXNQhlsXEJ5CbExHPODIykjw8PMjNzU03Ep4qLQEcGxurDgGAS5fOGd2gxPEBkEQ7PrQEcByODwC9eg0bGSWA8fsBkATnVwCWaccHbogBAEBWxQlgTqZmJdoyc1LlnyPx6tCsoU9tFySAMwEkgFMGCeC0cUQC2Fn9a9XlGHcqljcvHT17geLirD+5fS0qnpaGeNCRyzcoPj6ecuXKheRvJpSYmIBAINQwZW4aBOJZDVNOzs4IBEINU+aOIQTiWQ1T5qZBIJ7VAAAAAADIrGJiYtIUnBeEzMFmAvhGvAfVLZCbvNxcKHf56nTt6hXlgsV8oeHw2Hg69sSLPJyd6JRvOfrvQgCqisykeBsiEAhdmDI3DQLxrIYpZycnBAKhhilzxxAC8ayGKXPTIBDPagAAAAAAZEYJCQl07vw5unvvHt27f58ePHxADwMD6eGjRxQYpAvuvq8M5/F37t6hm7du0vUb1+nqtat0+cplunLlqjo3eNosVgHNFyXXE7yoRt4c9DgukaITdLEn4B7VSAyigkWKqlMmWfjIldycnSgqnmTasNgEqhN8nhqUL0Vu7u7qVPA0aVVAR0VFqUMAICDgklEVhTg+AJJox4dWBbRyhqAbAQBUq049oyqg8fsBkATnVwCWaccHqsQDAICsClVAZyxUAZ05PAtVQHPp3bXr1tDceX+Rh5bT4+ffE5V/5C8/0Mh/uGabRErg/gTu1g3zL+1P/fv2o1q1aqMK6DSyVQX0u+++S5MnT1b7zDObAObkbbBzTqrg40nhcYn0RNmA0cp34pP4BKWb6MCZ89S6UA7y8fVVX0G0JNCZnFxclGmU6ThZHK+8Tolw5bXNHl+hxuWKIwmcCWgJ4MjICLp27RodPHiIChUqSJ6eXhQba1xa21fZvuXLl6dHjx7RlSu6kt8c+fPnp3LlypGzmaoPAbKia9euGN2g5OMjOiZaqqxwcnKiBOU7LU/u3DIe4FmjHR9aApiPCQDQqVm7jlECmH8/AEDH3PkVNyd05twpunDxHEVEREi7wEkRR7Fxhv26cHd1pwYNGlO7F9or1yweMj+ArE47PnBDDAAAsqr0TgDncP6H3JyOUmj8JHVI2iEB/PQgAZz5WEsA79y9nT764FMqWLCglAiWRK/y17TbXDxXtTKNfHsk1apVCwngNLKWAObkr8ZaEtjl449HjVW79e48SaSSfnkoJoGTuLqkr+4v9ytv7JeXDp+7RCW8vcjd3Z3WByVSrLMbRcUn0uPIKIpTu6OVDR5NrhR+7TyV9faknLlyqe+QsW7duiU3G7y8vMz2O1p6zz8t+EeuSpVqktjixO7PP/9CRYsWpd27d9P06dNp8eLFtGrVKjpw4ADlyZObnnvuOTp//jz9/vsfNGvWbEkE8zavUqUKubi4qHOF7I63u4eHh13ted+8abz/m/ZnRqGhwfTw4X3p1o6PiMhwKpC/kHzmJ0+iZL9/Ftjafra2Z0q3d3rtH9ev35ATEk9PT3UIpJZ2fDyJjKYiyu+Fi4uzJIERCIQTFSpchI4ePkSeOTz1vx///vuvEmtp//79RnH48GEqVqwY5cYDRVne0/qNSa/fTE1KzvfsYe786tSZExQSEkpVq1SnihWqUIXylahyxefoOWV89ao1qGb12lSnVl2qV6cB1a9bn6pUrkoFChSkw0cO0aOgQKpcqYrML6ty9DrOilK6Duw53tL72EgP2vFRunQ5dQgAAEDWMmXKVHrnnZFqn2N5JGwgL6dV5ESR5JwQQbFO1dQxaaMts5dXDjp9N2vVbla1iLPcn8xqpa41fM6TVZfdUHY6d+PtYe7z8Ln3tevXaNPGLXJ+bZrg5QSxFqb9HAULFaAG9RtQ4cKFLb5HVvHgwQO5bnlaeTD+roqOjlb7khgmf9mGDRuoXbt2ap+xZCWADx48SEWKFKGo3AWocMECssGj4hOkVLCU7uVEsPI3UumPO/Mf5fKvSLdcctOBdSupSsde9H4pd/r+wEW67eknyV+fk1upVeGc9Fy16mYv8rgE6qRJ31O/fn2pS5fO6lDHGjDgFWrcuDG9/vprZvvTYsuWrZJArVSpojrEsfN3NK0E8OPHYVIN21dffU0ffvgB5c2bl3799Vf6+utxFBYWJvvAqlUrqUKFCsqPyxP5gbx69SqNH/+NTJsWmzdvVtZZMapcuZI6BDK76tVr0NSpU6hZs2bqEMv69u1LTZo0pTfeGGG2PzO6efOaUQkVPj7CIx5TXr+8UvIkJDSE8uT2lvHZna3tZ2t7pnR7O3L/+Oab8VS/fj1q3bo1de7chbp160oDBw5Ux2YehsuZFWjHh1YC2NXVVR0DKXXnzh3KkSMH+fj42NUPmV+1GjWNSgDz78cPP/xIL774ov7iiM+lWUhICF28eFE5KW8r/YzHcY0qfGFkT80qWeUcKr2WM7N8/qf1G+PI30xzUnK+Zw9z51f/rl9BNarVpVcGvkKnT56WcZZox07FyhVoxOsjaN9/e2n65JkyLKty9Dp+Wvj8+MiRI3T9+nVJ5lasWFHCHildB/Ycb+l9bKQH7fhAiQgAAMiqHFEC2OXxBUp0y00JnkXUITo+4YPIyTNOmUC5RopLoAinYRTjmvbzJ0eVAB79v9SVSh7/1UdqV8qhBHDmYOncbd68P5XPt4W47Vu+r9O8eTN52MDwAXB7pjFnwYJ/aNmy5XT79m05965Rozq9//77VLJkCXUKonPnztOmTZvo9OnT8sDtzz/PoHz58qljzdNK5/LyuLm7Se3O5KSr9e/+/Xt0+PBReQiTr8sSEnTJ3oT4BIqLj9MnfvkhzMOHDivXBkf1w5o0bUTvv/d+tigBXKVKVWW7zaE6deqoQzKWuRLApiV/bZUETnanqVq1ajRjxs80rFMbWv7vWop1dZWSv1HKdy4nf7l9X64SOkbpDixdh6475aQgZSF+f2sA5bp7iZxc3ajUnTMURa6U5+Q2eqFYHipYuIjc9DLn77/nS2Lxt99+U4ekvzfffJPatHHMjffff/+d9uzZo/bpOHL+qcUHl2GY4gNXd09FV60zx0svdVa+eJrL+Lt370rpYN5u//33n3yBjBjxulQLrU2f2pg9ezbt2rXL7DhE5gxmbrj5kKn1/W+//bYcD8bTZK4wxcNcle+yxEQninoSSR7uHvpp4+Oi6PH9DRQTdVc/jCMm4go9uvAuhd2eq/zgxRqNy0qRfHvJGrHSbxwp3d6O2j/4QZW//vpLHlrhfllKk2kyQ5guZ1YIU87KySBH5882piq011uKadOnK78TvyUb/s8/C2nit98lG37s6DEa9OpgWrduXbJxluZlKQIDA+mb8eOpk/J72LJ1Gxo46FVas2aN2WlTE2O/+opWrFhpdz8i84cpPmb4Aojj/v37dO/ePTmn4uQ+H/+c5OWHBzdv3iLB3cuWLZO/pseeucgq51DptZyZ5fNr2zqjI73PqRz9uUzxML4h4OTkTJcuXqRF66fTP+um0IK1k+nvf3+gP1dPonmrvqW5KyfQ78vHKzGOZi/9kk4cO6UcO04UGRmZ7D2yWmjrISvH33//TQ0bNqKpU6fRmTNn6fDhI/TBBx9Shw4d6cSJE2ZfYxgpXQf2TJ8VrjdMAwAA4FnnEniBcm8dQK6BBynH6d/J6+ZCGe765CQ5hQYSRTwhio7l+mgp55OZlCNmPrkk3JRpMoNuPdulKCB743s5rVq1omnTptDHH4+irVu30siRxqU07ZnGHFdXFxo48BX69defacKE8RQUFET9+w+QhzI1nJ86deoU5c2bTx7U5PsP9uKaaeYv+IsmTBwvMfHbCTRn7hw6feYkHT5yUOLI0cN09NgROnbiKJ04eZxOnjqhjD8l4ZXDQ2qaDQ4OloKF8QkJ6pwhPWnJXlttACerAppL9rRu3YpeGTiQJn/1Bf0682dq1/dVio6L11UBzSHtAivfv8qFC5cMTvTKTZunjac9S/+m6OgYOnf6JAVfPku1czlRuxdflCcUqlevnqwKVc5ejx49mn788Uf688+/5ADg9mU1+/cfkCcHuEplPkC4zdqyZcsaFbm2Z5oVK1ZQiRIl9Jn6u3fvyVMWnMzUBAY+kir7du/eI+N17eJ6Unh4OG3btl3i4sVL5O3tLcFOnjxJq1atloOQb2Zw9VSlS5c2O38et3LlSinxzCWhuf50jfYZ+MmK5ctXyLRlypTRfwZepxs2rJdlOH/+glwwFipUSMZZUrt2A6lqTQuuIoLxU05af1xcLO3cuVO5gG8gxflz5cpJVatWpfXrN8jBevnyZbnZwjcmO3XqqFzUvyjzUC7BbUZ09BNat269fJGdO3dOPh+vU74pwFVM82eLj49TPus1ZZ35K+tgn6xDvkHK+ws3GF6kSGGZV2DgQ3nNvn37ZL7FixfTv094+GNlvWyV97lw4YKybfJIaOO1+fITMvw5bt68qazb0nIDdvv27bRx40Zl2eKlxLP2GlvBy8MJAb4BycvLn4ufvuFx/Hl4G3LSnI+lggUL6F+XmmVJzWvsXSd8U3rp0mXqNiitbBN+HkQ3zZkzp2VcQMBV8vf3lyrAucSS7ski3TSWgj9/iRLFleOttvTfvXtHqivw9eUSbfa9f1q2eWqCS6QYVlHIx0fo41DyzuMjNxu5wfuE+CcU+WgHPbk7hQoULUGPb36hLJsHuXoWk/016van5O7pTa50gyIeHSQPH34y0fz7pXS7Xrx4QTl2ryTbT/nHnX/stXVrGqnZf0y3l+n2NO03jZRub9PpUxs7d+6Sm5D8oAr3L1q0SEqicFuBlvYzRx+vHNb2XQ7T5bT0XcnjUrMM6Xl8aFVAuyq/YVz17YItl+QiplKVsnbHubOXqV+b8vrqc83Fgn8WUoRy3PGNXMPh65TfpouXLlHXLl2Mhv84ZTKdPn2GrijHSK+XXzYaZ2le5oJ/u/v270cuzi703nvvUu9eveR38QflHCU4OISaNGls9nUpiSKFiyjfMZXJz89P+tes+ZeKFS+u/GbXMtuPyPxRQDmfM6wCmn8/du3aLccqn0PyMc3HMQcnhbXzQz6PK1CggASfE4WEBNNzz3HVtuaPQ46UnEPxd0FqfjcMw9p3JJ8/eni4yzGiDduyZbM0H3JJOU6tLSd/ly1fvlw5Zw9Q1hOf7yZ9L6dmvtp05sLSd6y9v6uWzvls/caY2ybaea219aq9zp7fTF62HTt2yHoxDF4/hstv7TcpLed79oS586uLl84r34XFadasWVSusj89vP+Q7t8LVOIhPbgfKMH9PPzB/UcyfO+249S+QzsKUPaZlzq+pJ+/aWT0b6qt7cVhbR3bsx9a+0wclvZRHmfPvpbS85yxY8fS3r37aPbsX+nVVwdJqYUWLZpT37595Hr73XffkwfKtf2dw579zNq+qh1vvF4tfXeYnk86Ytuld2jHB6qABgCArCqtVUDnWTCInCPvk1vgUXINPEVPPGvS5dXl6eG6CAo8U46io3KQT6GrRAnKb2eiE7nGXCE3Oksxrk2InFLXnIajqoDeun2f3OPYte8MXb/50GaULF5A7oe0atFYnUPKoQrozMHSuVvv3r2oRo0acv7M59XFixen6dNn0JAhg/U5MXumMYeb4uSCJHwfgV/DJYBnzJgp+Rqtpla+j/TSSy/JvLnEMJ+r58nD57+W8fbgz8MPr2/fvoOuBdyk4KAQCnoUTI8Cg+jhA+W6TIkHcm3G120P9HHv7n2Jy5euKOfq5en0qTPqXInKli1NjRs1tlkFNN8j2bFjp+TjLl26LNcxfL+MHTt2TP4+fPiQ1q5dp1wvPKJSpUrJfRi+HuHmTN3d3YxKOXNVyXw9wfPj/FrevH5yD0ajzZMLf/A8+T5gqVIl5RpIwwVVuUmvO3duK9c3JenXX2dR165dlGPviXLNdEu5pkrK6TFu6otxKW5rn4dxLpQLAnDTq7wMvK34Oo3xdQkXbDl+/ATlzJlD/zr+rjKtApqrezZN+nL1z5aqgTbbBjDjldlF+XAF/XxoUOf2VK9tB9qzeSMd37uL7isXWInunuSS24cSvHLR5eOH6NDC35UVES03ODw8vej+hTO0UrmI4524UaOG1LhxI3XOSZYsWSpFzL/88gu5qcVJXL6I1LzzzrvKzrdNFt7X109uoPCFYffu3eXmhr3TmCaAP/nkE7mo1vr5qYiuXbvJRsiRIycdOnRQloUTo59+Olp2Dnd3D2kLl6vurFr1OeWCtaTcpOKkbFxcvHKRGaHsNHdl+U3nv3XrNurTpy95KuslMjJK5sHLpo3nz8AX+qtXr1Y2qpdc2G7YsJF69uwhO07Pnj3p5MlTlD9/PrlIX7hwoTK/PvJaS/79dzmdPXtSH9qBpiWAufrn2Ng4SUY0aKBLAPODyFztJG9H3nkjIiKU7XJSvmDeeOMNZefLJdPYCp5vjx495LX58uWXZf7nn3+UL7k+BussTm6M8o0Krv5r5Mh3ZNzixUvlZhovR/nyFejo0WOybbjNMD4Y+aDjJDg/LMDv9cknn8o0/CXJ22fcuG+k3WLe3jye58s3RPig5vU/b948eT0fiBx8g2HChG/lC6RcuXJGn8Nc8BPuXbp0lZLRvK9wlel8w4TXIZfe6d2bt7OnJA15WXiZa9euI69NzbKk5jX2rBN+LT+8wPPkmz7r12+Qbcbj+Uvu1VeHyBfovXv3ZZ3zl9KLL7aXLz6exlqsWLFcfoy0z/3xxx/L9jNcD9beP63bPDURHm58g5KPj6ioJ5RH+fLmp5fiAueRS/xF8vJUfhDir1Bi/GWKjbqr9IdRbOh2CrrxN7m45aMcxSYo28SFEqN2krtPF7PvxZHS7XrhwiUaPHgIvfLKK/IACc/jwYOHUmq/W7du8uCM6XtwpGb/Md1eptvTtN80Urq9TadPbfB+Uq1aVapfv4H0L1q0WI5NS++bHserrX2Xw3A5rX1XpnYZ0vP40BLAvA/yOQIngFNzwWMrAczbid/DNGm7d+9e5QT0kVEC+PHjx/TF2C/p2wkTaL5ygtuyRXM5HrTxluZlLkaP+Ux+//7+cx6VVNYXn0TzQ1H+yvr99rtJ0rRDYeVkm6fl3/jNW7bQTmX78MNhjE8CtXnx98Z65bxk3/79yonxfbkhz/vaPeWkOkfOnMr5iq9Mt3r1GuV4Kka1a+kSvqb9HHw+subff6U6HXflsxi+T2qXw9Z8Dx06pGz7RLqt/EZzUvrGzRtU2t9fTky1aTh4/pyYOKicN8XExEr7tobjn4XIX8A4Acy/H3zccnLih41htPNSPB24lkj/XSclnCT2XFEuCs5H0bZzkbT1bIQMO3bXg/7cfIk2H71DXRqZ/61NyTkUV/KTmt8NLWx9Rw4a9KqcC5crV17/mi5duinfbfXlgsnScvLw9evXK8voK0kXfjiyW7fuMu/UzlebzjSsfcfa87tq7ZzP1m+MuW3C57X2/PbY+5t56xZfEyyS9lQ5+Dufb2jx+uMHb239JqX1fM+eMHd+demyLgHMTc906d2SPL3clesQd/LM6ap0u5JHDjfy8HIjZ/cEiowJopCIu3R01zVq174tXb9xnTq++JLZ93oav6m2tpetdWxrP+TfCmufKaOvSzZu3Cy/U/Pn/y3X3SdOnJIEa0JColw35sqVS9m/Wsr1s+5a1cmu/czWvsrHGx//1r47TM8n07rt5s9fQCNGvKks+6vSnx6hHR+WbogBAABkdmlJALsfWU8ex9crly2JyhlDOFGOx+QUdY6u761OoZeeo6ibpSnkWjFyzf2QvPPdIEpwUX5AXcgpPoLi3QpRvEspdU4p46gEcLnEPfTVmz3p+Uou1L1xIerepDB1U/92b1qEejQpQj2bFqUezxdV/haj3s2rUPSdXeTt30SdQ8ohAZw52HvuxlUxc87q7bff0ueoTJmbhpO3b7zxlnKd8Kr0m8O5pv/+O0jvvvuOnO8aevgwMMUJ4Lv37kl+jJO//MCpYfBDk+aGacM5MVqmbGmTBHAZatyoERUuXET/Hqb49S+/3Fvu9XFeih/a5PP+Pn16y/jXuQmgfQckr8f3AGbNmq18toe0adNmSVbzddP48ROoZs0aco7P3n//AznH5+n5vta3306ievXqSiKa8Ty5IObixUtk2fmcn5OxnDhnnJzlktW8TjmB+88/CyRJzM3R8HodPvw1Wa9a0pYT5x06dFI+R0+55rf2eTi/2LVrd0lMM37o9v79B3Kvg6/LunfvKff4+HONGzdOrgX5/rG5BLCltn4tDbfZkF/79u1ko9Wvb39j63xxxU8NM77gHD36M3nat23bF2SYZunSpbICWffu3WjMmP8pF4yfGO24vGHXr18nw95//11q0aKVcoG2XLmg7aVOYd80lvDG/vjjT+WpZX5vjVYt08SJE+SCXDNnzlz66acp1LRpU2WjvqzshCupZcuWNGzYUHUKY7zDjR37Jb311psSjG9EczXR3OaxVpKXb2JzYoV3IL4obtSoiZRo4ptGXIf7mTOnjJbDFm5nyxC3EWCIE/UcSpd8Vl23ziuvDJAn0nkn5ZLAXAqYn4Y2nMYafrqbl/n06ZNGy8yv56Q2H7gtWrTQrzNtvvwkx9q1a/Tbn0t38MX7m2++oZ+WE9GtWrWW/YVLIHK1B4bvMXfuPGX7TJaSWhpOui9btlS+SDt27KBs63702mvD6fffZ8t4ftqCb3rwjQhrdPvKJ7KvfPLJx+pQ3b4SGxuj3868vIxL0r/11lvUufNL+u2cmmVJ6WvsWSe8vy1fvlS/vzVu3FTZXqck2c9fnh999KE8fcT4QQ3eDqb7iSV86BhOa9rPLL1/pUqVHLLN00qWNeYOXVO+7F0piNxcw8krhze5eyl/3V3pzuX15OPnpewU6ynRqRB5uhel2MTC8jy/p19zCnkwxejzmpOS7dqgQT3Zh/hmF+9/bPHixbK+qlSpZPW9Urr/2Np+pv2mzI23tL35CTZb87MHv55vQP7xx+92vS/v544+Xvn7wda+a7qc1r4rNelx/KcV32xlrzdXvhMH1aDzTXTthHAyjD8j/1X+UYapVeSq3aVLlaMCD9fpX2+JllgznU4336T3Z+vWr5d1wDecmzZpQitWrqLPRldWx1qel6nHj8OJH4j6auxYo3MQ9sILL8jJJN8kr1Wzppyk9ldv1tetU5fu3LlLy5XftWVLFsv0R5WTuuGvvU5VlXMh3tf4xv3VgAAaqZzQz/z5F2rUsAENG6qeM5gun0n/9h076J1336NWynlGrty5aMbMmfTmGyNo6JAhaVoOa/NlPykXxbwe+Byubp06xA/WcRXc/yyYL8cT46cSh7/+mrx3sWJF6Z+Fi5Tvqvo07quvZPyzio9frmGFExHh0Yn07dtteLPqxun+6PCXn4mYuET6/GeuCtr892FKzqFYan83DM9dLX9H8vd28u9u7re2nA8ePFDO2dfKcr733jvKOXRruR5IOmdP3XzNsfYda+t3lc9BLZ3zae9p7beNmW4Te88V7f3N5OuzH3/8Xl7DuApefmilV6+eNs+h+YnxtJ7vpYbhfPl9Th07T++M+IzmLfiFHj66w1tflv1RyH168iRCN6F6ACUo33nM0rI9rd9Ua+cattaxrf2Qa2Oy9JmexnUJJ+3/978xyrK4ynJye+dc6oAfFOISuPwANr9f4cKFaM+e3dSwYUOb68Ce8ydm67tDmZ1+niwt246PNT8/X2Ub8oMo6XMsAAAAPOvcjx9QTkaU8+SiT5QLF08iTxdyowhq3G8kBQY1oqOrRlN0lB/lLvGIyM2FKEz5Teb8WE7ltdGHKcYt7e0BO4Kzk3LtLrcq+B9OZqvX9HwOq57HyjTwTOGEHTet2bVrV6NzUkOWpuGSn3weauro0aPKOe638iA+v/bPP+dSzpxcc5Zj8Lk032fiv3yObi4KFshLccpl2Y0bN+SeBw+TqqZNbm9EKcP4IVFrAgIClHPv03Kto10z83sb4rzU8uXL5HydS9YOHTpMrhvGjftaxn/55VfK9cqfynm87hz/++8nGd0T4YKpfA3w119/qkOIgoKCadWqFbLOuWBEs2Yt5GFTvu/39dfj6MMPP1DeR3dv7I8/5kiinT3/fFNJ8vK1D9+bYPxAds2aNeWBWb52s/R5eD2NGvWJsq27KNdTn8swxvdeeJ3/739fKNdAI2jkyLdl+MqVq2jMmM8locttAKeVXd9AnHlOCS6urFV/zB+Uq0xu3Nj4CRfOgnOCkz84a9mylawMbgjbUPv27fUrLUeOHPTCC21o//790q+xZxpLuOg2b+RBgwaqQ3T4y5rx8vNTxvzU8KhRHxNX68fT24ufwuantflJAE3Lli2kNC0fuBpOjvPOzPgJaa4SkHdC/stPbn/00Sgp9cBPV9tjyZK/jcIUfy5tJ9S6teBq97gUj4YPMN6mptNZCi41oVvmj5Vl3ialNIyn0c3XcJjSJw8b8MGnDeOSDVyVXZ48eeTpDg4umcw3I44fPybT8D5jvH12yfYxnC/f8OCb6dyvfYG2adNGPw3foLl9+46+31LwtuR5c4LccDjjLz7ezj16dNcP5+rQ+IuYS1fppkv5sqTmNfasEz5G+GYP93MpN97P+Fi4fv26lGTnhxO06V96qZMcD1q/reD5M2v9lt7fEds8NWGKh+XyKUYuESsoNngz5czjRuH3D1HQreMU9CCBvHLVo6jIEhT+uCSF3A0kZ5cgcnLxU+flTAlxj43mbxq8DlK6XfkGH/+wcDevA77xxje9uJ9LfnCV9FrwiQAPT8378GuYvf2mYW56S9vb3PSGYelzmcaxY8flu6NyZU5q6IZZe9/0OF7t2XdNl9PWd2VKl4EjI44P/j7QfiMZX8w4KcvIbTpqf3mYC3dLv3ECVnu9pWB79+2jfgMGGMWGjZv41UbTLl+xkrp0fkm6+Xzi37Vr5QRKG6/R+i0FlyrjdVeuXFmz48uWKSMnp9x9Tfme5JJJf//5J33w/nv05dgvaPnSJTKO19eYz/8nVVHPnfMHffrJxzRzxnRJusq8dEujn6+1fl6ecd+MpzdGvE6Tf/pREquTf/yRpiknsPcfPEj1ctiar7Yc/HDdP/P/ltcuWbxIxnGCXZv/5198QSNef13mO/rTT2mpMs1mZb/nxLPM4xkJU7xuuCQi74d8DHNtoievhUqcuq6L0xw3wozi/G3ld0P5j2fJ87AcSe+jBb+P6TkUh7XfDWthz3ek8r+8rzaeQ4Yof5LGW19OfiqWH4rkJ3CTppNXGfTbnq+lsPUda239WDvn0/21/dtmuk3s/e1JzW8ml2TgJ5xnzfpFqpmy9ZvkiPM9e8KU4bDEBGUfyO1OO/auo+ED36HXX/2Q3DwSKSzqAZFLnHKu5aGG7hovTp8ANv9eT+M3ledpaXvZu46t7YfWPlNGX5foqjy7KVXWcf+PP/5EP/88k0aP/pT+/vtPKZmrvY6ra756NcCudWDP+RMvq63vDp6Gaf1p2Xbczw9/zZr1q3769AgAAIBnmnJNRBHKeV6IB5G78rvo5UKUNw/diGlOJ26+TDfj/Skw3ps2//AG0ZNoflqWKFi5WOI2KWOMS8M9TVJoSrsHov6V60TpVsap90Tg2cH3At5+e6Ry7upKY8Z8pg41Zm0abirlt990D2Qa4gTl4MGDpC1grm540qTv1fsOjsHnp5yM5Hly8Pk/35flqon52sK/RD76dVxHmvfzpzR06FDJ/XFtulxwoFbtmvTbmm9o0ZL5NPev3+m990Ya3Qc0h691+Nr1f//jJmb2yj1f02PFMF/GzanxOb72cCqrXLmynL9r+PWcoP3uu0mSQD1+/DhduHBRHaujXVcwzn/xg598ncPXUJyL42sojZboZfx5uDQvF45gvK64JDFfzzFrn4evebjWLu2hWA1/Nn7fGzduUq9eL6tDSR7aZbz8jmBXAvi7775L8ZcVf0i+oJo0aZLcRMyTJ5c6Roef/uWL0KlTp9Mnn4ymL74YK/1LlixTp9DRVWOXhPu5LT5D9kxjSVCQrmSsYX3chl55ZaBsTG4TiBO3XGzc3iQs46cymK1l5M9uiL8A+GDji+GlSxfLeH6qoXbtuvLXFi4BbBim+GlmXfDFp9atC77BwPWocxuVPj7e8hm4yPz58+eMprMUuXPnokWL/lGWOYeyrF9T3br1ZJm18XzBbTi9bphunRgOu3fvrgzndqs2b96kj8qVK8pNAZ5m4MBBsn38/UtRixbNpFpt3j7aPBg/FKD1c3vNzMvL02gYF7HX+i0FPxnOuG0p03HBwUEyjtuWMhyu285B0s1Suiwspa9J6Trh4C8cLi3AbRAy3obaON4X+eaT6X5iKZjuxoblfkvv74htnpowxcOcXXJQjlxFKF/Risr3nxvdnnyLcrrmobyFCpDrY+XY9A2kXLmv0aPZnpTwOFGZ3nDbcwLY+D0Mg6V0u3bt2ll+LDgRyscnP7HUqVMHGcc3yt5662193Lp1U4az1OxztrafYb9pmI5nlra3Nt7S/Cx9LtPg9iFbt25pNIxZet/0OF7t2XdNl9P2d2XKt19GHB980mN4IpfSCx7t9ZaCp+VaQwb0628UfEOZ56JNx0/XnT17lrp06SL9XJo1UTkZ3LZ9u9G8OLR+S8EnkYyrgTQ3nr8D+eSOuwsVLKRsAy/6dPRnUvUyV2mqTcdV0nKieOArr+iHcfD5EP/lD2C4PNb6+QSb59ezRw/9eN0DZDmJm81I7XLYmi/383K0b9dO5s/9XK1nm9atpXpR7ucLAF7/3t4+yjnDdgl+wIGrCD916pR+vs9CmOJjhs/f+Ljkbekitaiowd1K8DFjGrFxyvGWoCtBb3oMGobyDmaGJT+H4rD2u2Et7P2ONP3u1g3Tus0vp+k8+SFRPvcwnCal87UUtr5jra0fa+d8HMzWb5vpNknNbw+Hrd9MLj3KpRv5JgG3ccTDbP0mOeJ8z54wZTgsQem+cPoqHdh/iIJDQsjd1YOOHjlDN68G0r2boXT3hhLK33vKX8bfwcz0PbR4Gr+pzNL2sncdW9sPrX2mjL4u4c/D18vczdf5XCKX9ydt2uee49o3dPsmP6nPy27POrDn/Iml9LsjLdvOcFh6BgAAwLMs8YhyvhLhQXQtN9GWPBQV5k7jp0+lGYvG0c7zzSjQXTn/cE6guw+9icIilWljiB4o5ysJSvfj5NdhTwtfv+mu4ZP+ujgr1/8ynO9J6AKeDXzN8u677xNX8zt37hw53zRlzzTmcIFBLgQ5YEB/Wrhwgdwz3bx5szo2jZTzaL4+42Qun+fz9Qk/pMkJUc4LtW7RiH6f2JXK++enEv7V6KOPPlLOtRfTe++9J/fv+BqiQAEvOWfnc/9cuXPKfSVr+Hx+8WJ+EFZXOrZmzdpSw5Ahvhel4ftZzDCHxolcvl7RcJNSf/75lzRxVq9ePalZia8BDHHy3JCrq5tyfcP3ioOV49dZlkvD0/I1goabaT137qwUbOVaBPk+nJaQtvZ5Hj3SXbvxNjSVlDvUFaZl/F3CCXYtb5lWdn0DcUldvqBKCb4hGxYWSq+9Noy4fRvt5irjDcPVCfKTyFxFlBac1ee2cLn+bM21a9fULh1+krho0aJqn44901hSvLiujnCu19sUZ/8PHtQ9Tc/ZfC52zU8GG9KeGrZEK0nLN2I1XESeb77au4zly5enb75RfgB3bqf58/+iv/+eLwe5NbZKAHMxfA5edq2bIyzssdxE4jaXRowYIW2rMd4ms2b9puyUXBe88WvMRdmyZenLL8fS1q2bpeowrnv+0KEjMs5Z+SE0nZ5XoemyaOt60KBBNGHCBKPgp7L56YhDhw7Tzz/PoF69elGbNi/I0xbM2nyZ4TBt+xlOYy60bXnx4uVk47hOe8ZPu2vDuC1JrpKTx3F/apYlpa9J6zopWFBXJ/61azf047gGAP5C40PY8DWWwnT+tvo5GA9zxDZPTZjShnPVeC4UpOyz8coJZyw9ufuEYiNc6N5v7nR3ja6Ur1NUHoq85U6eeVvKa2IiryrfC3H6eZgLa+sgaRrdMK0/V67cUj0flxLh6tm5yj0PD08Z17x5c9q2bas+SpYspc4j5e9j+hpb/aZhz/RMG2ZuvBaWPpdpcBsNLVvq1r8W1t43PY5XW/suT2NuOa19V6Z0GTLq+NAucDRav70XPNr0loIVLVJE9nfD4LZ4tQQpx9Jly+XEb8aMmfTZmM/py6++ppy5ctLy5SuM5sW0fkvB78f4d9/ceB7ON6K5m09oFy3U3ZD/etw3VK9BQxr3zTcyjm/cM36C0PD1+uD/DD6DtX5OiDC+Ya8frwT381OYqV0OW/PlbmUJzIz3Vl4bLN3aeRonhLds3aKPypUqyrmN4euye5jiY4Yv6OQiRDk++Thwc7EcPIeY2ASp/lmOIXUelsLecygOa78b1sKe70je77g0ojY+PDxCXzqR+y0t57VrXNo+aRhf9Grz5EjNfK2Fte9Ya+vH2jkfh7l1zrRh5sY74rfHdPx//x2SJ4ynTp0sD6tqw239JjnifM+eMGU0jDtd4+nt1z6gvxf/Sq9/2Jdc3ZTjwsOF3NxdyN3DldzdXZV+3QU3Vw3NTN/DMDL6N9XaPO1dx7aOU0ufKaOvS/Lk8VZ+W4KU7aBLlBYsWEDuEWjTnj59VubJn5Frj+Jq2OxZB/acP/F8bX138DTasjvqGjG9AwAA4FmWWKWirgRwuAfRY08KvO5Llx8k0sOYe3Q/7j49SHhAwTHBFEcPiO7HE93hmkCeUGKQcsUUmpkSwM66ms+Mgu+L6B4Y1nUnv26E7IdzX9wG7fnz5yV/Y66woT3T2IMLDHIBBr5edpSY6BhJ/PID/3y+rl0LcO6r9QsdyTNfbUoo0IMS3ArIPQ8ukTxq1Cjlc8ynmCdxdGhtEJ09c4Fu3bhDly9eJVeXpMSpJZUqVaRvv51Ie/fulgeaZ878mc6ePaeOTRm+b8c1BM2e/StxKWmueUhr+9cefM+Pt49hiWLO3xmWsuYHrjk/yKWAFyxYQN26dTOqctrS5ylevLiMv3z5ivw1pOUHb9y4Ln8Zr38uUFukiH25Q1tsfmNGKl9WUXFJyVt7vdCpi2SpDVeShhuq5ps5X3/9lTS8rsXnn49RLmaLys1bDRfb5lIm7NSp0/Jkg1YMWmPPNJbky5dXuShsLReZXGyd8VPNnLDlki98c4+rWGS84n/55Vfp1vATBefOnZOkrjl8UduwYQPJ+GvTTJ48RZ4K4OG28JMWfHGt4ffjA89w5zLH3hLASpe+Oyoqkn79dZY8YTBgQD9l2fNJu8il+Ka7grcL79wJCVwfvPETzIbBpfTOnDmt7+f58I+emxsnyxPkhgF/0cXEcHWuuml4OQyXhaNo0SLUqFFD2Ta8L2nDufg7tzPl4eGubp/zMpyfUOEGwZk2rbn5Go7XhXbBbzgsefCNdG5n8ttvv1X2lRAZpmt8/yrlz5+P6tevJ/XKa59r6tRpcoO+fv260p+aZUnpa1K/Trifb1blp9q1a9G0adOUYzdWtjVXK8gMp7cWpvO31a8N4/d3xDbnRtS53XGtn+O9996XRt21/tWrV9PEiRP1/aa04TmLDqeoyChKiLtJJT8pT95VC1DUtTDK4+FLEWe5yplE8ht4gXJXV05cyYmiA5dT7L0PyNV7kH4e5oJfp/vMhsOS3lcXPI3xsN69X5bvOy6lz1VDGI4zF6l5H9PX2OrndtC///4Hi+NN+7Vh/L6Wxqck+Pjj72Yu2WE43Nr7psfxamvfNbectr4rU7oMGXV8aBc1mpRe8CSf1jiUGcrnSDZOGcbHGXfHKydlq9esoRbN+UGywvp4oc0LtGfvXnqgrGuezuK8TKKQ8lquOmbJsqXJxp2/eJFOnzkj3//aMK4Wc9y4cbRj+zb6+6+/aP6Cf+jI0WNUslRJ+YxXubpog3loIdk9g+Wx1q+dIF6/cVM/PiY2Vk7GixYtJv2pWQ575su4GhptPMcN5WRakrtKd2E1Yc7V13AtMYbBT6Qavi67hyk+ZjhRxb+hvO89iYnXnWwrh2pcXCJFxyrnW9HxFKFcIIWEx1JYZKwyjEs2KuNiEnjz6489c2HvOZQWKf3d4LDnO5L3vfXrNyjjY+TzcnWwTPtut7Sca9euVc7ZL0k/t7XJTb8YlkpOzXwtha3vWA5L68faOR93m1vnun7dMHPjU//bY36+/AAs144xZsxoaX/b8DW2fpPsPd9LzW+GYZgyHXblwk3qM6gb/btmLQXeDaP1iw7pY+Wfu5VhjynwzmOZlhOPzPQ9tHgav6nm56nbXik5p7a0H1r7TBl9XcIld0uWLEmHDx+S/vfee5fefPMtqWKZS9tyqd8tW7bSsGGv0dix/5Pls2cd2NpXuZuX09Z3B0/Dwd1p3XbcvWvXTmlj2XC8aTj6+AAAAHiWRLqV15UADveUBHDxW2FUr+xmigq+S+Ehtyk05BaFht2h5s/NU04ac1DiI+X6y+UxJd51p4Q43QNkmYHc93Di4It5eJZxsyOcgPzxR13VzHyPhcMwN2bPNDt37iRuCtTQqlWr9SVZOTnIeSb+W79+fRnGOJ/F89JKm3KNQdzPpVttSVDOgbnKZ63WJVPhEZG098Rjun1Plzvj5eWHQjk/VaZMGeUapi+1btWGcufKQx07dKS2L7RTru35XrllXDudYbKX7zfx8eTubr7NZFu0PN7Fi5eknz/777//Lt324HuKfM928uTJynWLrs1jvp4y1b9/P1q2bLmUAO7bt7c61Prn4ZK/3PzO+PHj5bqJ8frmh1w518fX83zvQyvN/MMPPynXfgVkeRgn5lMbLPmdKwPBMQk0Zd9lig7XLZi9/Hx9aMDL3WnN8YsUrn4oQ0uXLqUWLVrI0wqmXnrpJRmv4UTu8OGvUfPmLahHj5706quvykoxZM801nDpWt4g9es3lHlwNcu8EXnjcOPLXHy8VavWykVmZ3kq29CQIUOkLvFq1WpQ9eo11aHG+IKWnxjg+XLVXZwwmTz5J+XiVPmhs4EPVq6Gml/buvUL1L59B2mIulq1auoU5tkqAcwXt/wFwE+Dc6lfTnLzzstRrVpVZYeLk2n4ArpmzRqSdOYvGi4dzBf3/PS27gI5eTx8GKhsg6HKNmisLG9HZZt2lTrqn3vuORk/aNArysF4kWrV4vXBN6y0mwvJ5/X9999JCa9mzVpSmzZtZXr+EuQHCLitJm4ge8iQYdSu3YvUvXsP6tBBV+xee71ht/Ew4+G6YcbTmQu+ocH7SuPGz8vyNGzYhHbv3iPj+IEGfrKeP3ejRk3ly3nSpO/ky5DHm3sP3TDLy2LYbTzM/GvStk503V9++YVU4cmfsWnT5lIVBZcEM5zGWuimM30/035zr9F1p3Wb85fbpk2b9P0c69atl5ICWj9/Ie/YsUvfb0o/3Mmd4rx6UvhjopwlcirDIijPc3kpPN8+8n/XVxnvSrnKtaSQ++cp6uanRDEnyNn3Y/IoMEI/D3Nh+B7Gw4yH64Yl9VepUkWq1uAqLCpWrGA0zlyYvj5pmOX30XXb33/27BmpstDSeF2/rtvcMF138mnsDb4B+PzzzysnHrraGLTQzdd4WsNh6XG8Wtt3zS2nre9Kw3lroRtmfhky6vjgCxvDi5uUXvBor7cUMhfln2TDlWE8jru3b9uue5Dsqy/p3XdG6uN/n4+RkyyuElVeo0zPJ1UP7t83imhlmOG8OcZ8Npr27NkrT+jFKSddPOxawDXZhnWVk652bdvKsDu37yjr6Kz+dYULFZJ14Kn8XuZXzhu4quSJE7+lx8r5D4+PUU7Cr1+7Jt38CZTLVv1rrfUXUk4CGzZooJxw/kTxysk1D5s2fTp5K+dOjRo2SPVy2Jov9/OSrPn3X9lfuP/smTPSLmOXzp2lv0Tx4spvRCPl5HWCcmEeIsM4uArT+8pJttb/LIQpPmZ0bQDHyz77MCya7gQ9oesPI+l2UBTdC1b2x9BoCgyLodDIWHocFaePh6FP9POwFCk5h+JI6e+GFra+I7mZEH5IoGHDxjINV0ObKxf/Tupeb2k5O3bsqHxPvSXfkb1796WBAwco4/nBGN3rUjNfS2HrO5bD2vqxds7HDKc1HWbYbRip/+0x7Nb1828vl9ofO/Yr5dy9pj7mzftTxlv7TeLx9pzvpeY3wzBMGQ7jrviEePWLnR+AcaZ6zSvrokVlatq2lu5BC25Im6dVSwCbvocWT+M31bDb3DB7z6kt7Ye2PlNGX5dwzV7jxk2Qm018/c1t5FauXIk+/vgj+vHHSfT2228q+98fyvlOU/1r7FkHtvZVZuu7g/Ef7nbEtuPS0xs3Gu/7puHo4wMAAOBZktCxHj2+m58oXC0FfMmXXnfaRCMKLKTasfvpuYS9NKLoZKpFJ4geKaeKMcq10gNnir+Uh6ILNVbnkrlo90V01/TKv3LNyLWjWU2/QDbACVEuOMd5nC5duinn3030wQ9o2jsNu3LlqpxTGuL7VFWrVleuA6pJ8MORM2fOoBIldA/4M651kOc1cOCr0t+tWw/p/++/A9JvDd8FGjzkVZo2YwpN/3kq/fb7r/TH3Nk0Z95v9OvsmfTkSaScmx85ckSWla8p+JqA77dxIUeuApoTppzA5IKFfL7POSVruJBM//4DqE6depLz6tTpJeV64i2pASk1OI/Hr+c8GufxunbtrsyzkzrWPuPHj1M+41GqV6+Bch3VSJKwnFg2VLt2bamNqU6d2lILl8bW5xk/XldjH8+b84883b59+2Qc5w75GoLzfzx8w4YNNHnyjzbXob2cgoICzV59BEYn0JrHnnRhy7/kdHIX/frLL/T2W2+Rn483BT64T2FR0VJilp8u8HR1IXc3N1qycpW8dtLUGeRatzVVLJyXLly+TN3LFaScJvVr24N31C5dOlO/fn2VlXBddh7TovH2TGMvPgD5M3Hm3bCOcb65wlVe8cblHTy1+EkALtFQsmRJuVi3F18g3r17Vw4qLo6uazfJOl/fvGqXTnCwrs7wLVvWS4ngO3duyZPV3BYzX7iHhITqS1G7u3so67WrtHe8a9du4uq6dReqMlqeAO/evbtyIFhOsvP0/KQFLzM/QWHPMlvD2yUw8JGyfb3lot4Qj9O2j9aId3rjZeEnNviLgG9MGuJkP29nrgohJdvZkdK6TviJH74By1/iqT2e0iojt3lISBCdOXNSurXjI0kixT36g1ziT5BXrrzkrnzxu7tG0JOIBxQZ/liJGEp0LUdueUeQq5euOr70wtulbdv2clOLj1Eg5bt/gNRYwFVwpEZ6HK/m9l1Ly+no70qWXsdHSGAo1a5bj/zUz7Ro6UL6+KPRdO3mFTlZ5GQX/07wX12/sj65my98lOmLFC5O304aT716JD0hZ87w116jnDly0k8/Gbf98dXXX8uN1IX/LKAhQ4fJecfPP89Uxyb58aefpCTV9m1bZV58Emxq4gRlOXr1UvuScDMUY7/8Sn6vua0P/v3namO+HDtWbk4z/u18dfAQ+Zx+fnll+w0aOJA+/PADGc/nEu+++x4dPHRI2aaFZF/46MMPadCggXIy2LhJYxrx+usyra1+rsZyxBtvyPkNPzTGTw5OVj4fP+WZluWwNl/WtVt3qvrcc7RLHu5IkCTCsKFDadSoj2Q843ZKPhr1sSShChUqKE1E+Ckn+rNnz6Zy5VJ3wp4VlfIvTbN/nkE++bz1vx8fffSxPOj4+2Ev6tS6Jt0PjZZklzXcNnC+3O60btsJWjKmqTo07dL6u2HtO5LnzeP5gU7DdnIs6dOnnzxIySUc+RyDz9n54tBUSudrja3vWHvWj7VzvtTKyHNFa+dT/PnT83zP3PnVtp2bqE6tRlS9WnXyK2xlfcpvic7da8H0v7Gj6ez5czTlB10JUnMy42+qPevY2n5oz2eyto86el/jksRcaoFvjnDSWsPvwc0UcfMdpUsnDWf27mfW9lWmzcfSd4cpR58POZp2fLRurUtOAwAAZDWlS5elq1eTN6lor5g+88j79j7yyBFJTm6xRO7xSsQRuSZIUyHkolxFuSjdnspZYR4XehKZjxKqNqboQUPVOaSctsx83/yfI+ZLO9rjxrZv5X5ISvD9kBItP1b7Uq5PbRe5v8/39rMiPufJqstu6Gmdu/F5Ld+H4bZiuSpiR+DtwZ/n2LFj5OLuRCHBIXwTT9rx5WQl32/iqzIuRHji+CkqkK+gPNDJ1xYVK1aUvCDfe+J+Tv5OnTpV7i+1b99OX6Os9h7mcNJYu9axN+dlS1rzeHzNYS3HyIn8pk2b0WefjZamfAzZ83ks5R8Z1wTMBQpKlky6duPvqqNHj0p3anAJbSdzCeCHMQm0JkS3guJcXGn2sJ4067P36FGlJrT6dgTlCwygDu4hkunm2rimP3Ch8HhnKqJ8IT/YtIx2z5lOL8zZRGfCYsnVxYWej7xCHcsWohzqzVN7acndV14ZoA5Jzp5pIImWAL59+4bs0HxwcikVfnKEE758EPONBm4Am6vs5OrWtCfuGR/8fAOed1B+6hogO+Cq8wxvUPLxoQl/uJtKFbuunH8eprCgh3T51AlKiIuRKmhz+bpRgYKRFE/16GFQKcpX6Ts5RtIDl55Yv34jbdjAsTZVP2LZET+Z9dxzVSSJlZllleU0Rzs+tAQwP1XH/lnyT6ouePr07KP2ZV53lRO2iPBwOWHj30VT/DupPZjFN+RNnwhkfFLHJ56FChVKdlKXUpyQjo6JoVImD5CldTkszbdL127UtWsX6t+vn+7E19dXkrvm8Lz5SUc+MTZ3wz67K1HK3ygBzL8fn3wyWrkgeJ7mHstFbZ6vRjHxttK/uvMrJ6cE2rXvHC38tKE6NG0y2+9G374D5ALJsJqkpwm/q+nP3PnVzj3bqFaN+sq+0Ema3OHvMVu4OuEhwwbRHeX7buK4ierQ7CEr7odcTfvUqdOJS+jzzR5++v/EiZNyLfnRRx+Q1t4uWKcdH0gAAwBAVpXWBHBi2BN60nsueT04Q3l8IsjZNZacXLQEsBLOHImUkOhMkWF+lFi2EsV99zpRjuTXvfZyZAI4NZAARgI4M9GSs3zP8sqVi3J/iNT72lxj3PETJ4jzR8pFm4xzcXKhJk2fpwL5C8g9IC7d+u+//8pDnHz/jBOVnEeqUqWyPNjKBSusJYCzGi4BzTUrcc3BW7dulmqw01u6JYB/uedE7s4u9CQhUdr/dffKQZ5xT+hieBwlhj6iNnf/o8bNmulvJHKpj/89yC07SIzymrw5vSg25glFKt/Z3Pafz91LNLiIE5UuW06mtxffQGvWrClxe3KW2DMNJNESwLduJTUszTeOv/lmghzQnp62kxO3b9+hF19sb3c7y1kF3yR/55331D5j/NTIt99OUPueXdl1HYWFhRrdoDQ8PviHK+zmNMqXl8jN9QlxfsXZRfmuexJITyJDKOpJIgUFupGz39uUr3AV9VWON3z461J6YcSI16TqP4CMoh0fWgI4v3KixxYsni9/U6rvy/3ULsisOnfpQl27dpUSxWBd8ZIljRLA/PvB56bFqzSlXTfzUIEi9idCIiKeULHcTvTVK1XVIWlj6Xfjaf2Wf/HFl8RVh7/wQht1SNqk9XPgdzX9mTu/unDpvDx8mj9fQXr8OEweIgkJCZbrkdg4fjA1Tqrh54dUY7lbGRYTGyPXm1Wfq0pdXuoi88susup+yIl7rj2Ka4jgh9u4RilzzTuBZdrxgQQwAABkVWlNADNOAkcPW0RxR89STu8IcveMUc4tYsnJmauT5XtvHhQd6k0utSqT8y+9iXKnrYSgoxLATwMSwJlDdkwA87XY48ePjR7O5WEvKddekRGRxFUzcTvBnsp5P5furVatuhRC4Np5uCag48dPykPt/CBowYIFaMCAvvprg+yUAH7llUGUI4cXjRw5Uq5/MkK6JYDvh4TRP+G5KcHJmaISlA0en0AxyndiTPQTanpmDTVv1TpZEegbD4Ppu6A8UlVXolYCTvnrc/sctY67S3UbNtBXnwhPj5YAvnEjQB2iK9p+6tRp5UfQ366nzvlCn6uBLl48qZ757IBvOHFRe3P4xgy3K/msy67rKDz8sdENSsPjQ8PHSVRkCEWGXqSEqHMU71yQPHNXphy5C0mVDulV8hfgadOODy0BXKBgQXUMZFcfjRol1Xh2ePFFdQhYUqx4CaMEMP9+zPlrEf17PeXnSN453eiTlytS+aIpbzYlJbLLbznO2zI/c+dXnNi9fPUS3bh5XaoM4xsGkuyNjdclfuN1SWDdsFgZn6Bci3KbV21btyEvr+S1MgBkRdrxgQQwAABkVY5IAGviFp+kuGXHKO7AFUp0SlCGOJFzoiu5vVCZXNpUJJeXHfOQLBLATw8SwJmPueQsV2PMyd+IiAh69dUh8pdxcpgf/OQHuitUqEAPHwbK/XCu8rhs2TJ09+495fw2kgoUyE9lyvhL06F8rzw7JYCfhnRLALM7j4Lpj7A8FEPOUhI4Oi6Bah9bQa2fbywZftNkB+8Ep+4F06wwbzUJ7Ey+t89Ty4Q7VLd+/TRXfwiOoSWAr19Palwc4FkXERFudIMSxwdAEu340BLAhQoVVscAQJFixYwSwPj9AEiC8ysAy7TjAzfEAAAgq3JkAjijIAH89CABnPkYJmcfPHgozdNwqd7w8AgpCHXh/AWKjIqUpDA/nMt/uVCoj4+3PKjLD+dWqFCeatSoISVjb926Q0+eREnV0FzQkJsaQwI4bRyRAE5q8M1Ekby+NDhPGD2Ji6co5fuw/MkN1KhOLWlDzlxJNx5WtZAv9cwRJiWAfe6ep5bxSP5mVomJCQgEQg1T5qZBIJ7VMMVNOyAQCF2YMncMIRDPapgyNw0C8awGAAAAAEBmEB4eLm35cpw+fZpu3LhOd+/eoVy5c1L+/PkkChUqKMHNh/L0XDL4zp07tH//fun29vahmjWrU/369cnfv5QkfyFzsFgCWMMlgTdcfUh1PWOoUqWKNhs3TkxIoO23QinX3YtUuUoVJH8zGa0E8NWrl9QhAMBPJxmWUMHxAZBEOz60EsBFixZTxwBAwcKFjUoA4/cDIAnOrwAs044PlIgAAICsCiWAMxZKAGcO2bUEMDfDEx+fsocUdQ82JpKzswu5urpI0te04ChKAKdNupYA1hT286H+1UralfxlTsqGbl7Mm2rXqYPkbyZm+gQyAvEshylz0yAQz2qYMlcKEoF4VsOUuWMIgXhWw5S5aRCIZzUAAAAAADILzvt5eLinKLgNYC8vL+l2cXExW2swPH02SwBD9qKVAL58+bw6BAC43QLDEio4PgCSaMeHVgK4eImS6hgAyF+ggFEJYPx+ACTB+RWAZdrxgRIRAACQVXFp2qxIKwGcFaEE8NOXXUsApxeUAE4bR5QARgL4GcMHXZUq1dQ+ANBoNyhxfAAkZ5gArlWnrjoUAJiWAMbvB0ByOL8CsAwJYAAAyMqyciKyw2db1L6sZe03rbP0es+qy24oO527ZdT2wPlu6iEBDKmSHb5sARxN+zHC8QGQnHZ8LF24UP4CQJIevXvLX/x+ACSH8ysAy3AzDAAAAAAALHFIAnjx4r+QAAYAAAAAAAAAAAAAAAAAeMq4KaU0J4A/+OD9RAVpwbTuhIQEfbdpJCRo3YbTJL1W6TIYrs1X/tX/BQAAAAAAAAAAAAAAAADI3pzIycnwr9KldGihG66LuXPnpj0BHBISnMgJWi3Zy391yV3+axzx8fHJhulCe72u33R+/Nc0AAAAAAAAAAAAAAAAACD7u3nzJjk7O6t9zyotyWuY/HWWfl43Wn+XLl0cnwDWdfPfpASuuTAdp/Sqfw3nk9StBTPsBgAAAAAAAAAAAAAAAIDs69q1a+Ti4qL2PXs4ucsJYF23YQI4KQnM3ZwI7tixU9oTwKGhIYlaQtYwYctJYK6mWRtm+NfcMP5r3J2U6OXQVf2clAAGAAAAAAAAAAAAAAAAgOzv0qVL5O7uofY924yTv1pSWNfNCeB27dqlPQEcFpaUADYMXSJXS9ZaSvIad1sO3Rtyt+FfAAAAAAAAAAAAAAAAAMjezp8/Tx4enmrfs0nN9SZL+ipdMk7rb9PmBceUAOYe44StacgUZoZbD8P5at2GfwEAAAAAAAAAAAAAAAAgezt9+jTlzJlT7Xs2GSZ+tb9aN9P6W7Ro6ZgSwCdPn6HAR490iVktScuhdBsma/X98r/BOB6ujvfz8aEqlSvpx5n+ZYbdAAAAAAAAAAAAAAAAAJB9HT9+gnLnzq32PZtMk72Gf5UupVvX1axZc0ckgEMT9x04QMGJBSnySZxujEHSVpfalR5tsG6YwTQ6ieTu5kx+Tg+pXt066rCk8aZJXySBAQAAAAAAAAAAAAAAALK/w4cPk6+vr9r37DFM/rLkCWCm627SpIljSgDv2ruflvwXReFPYmWEkxMnZ9U31BK48q9C7XBSOwzzuJ5uztSzvhc1alDPaLjBq/WQAAYAAAAAAAAAAAAAAADI/vbvP0D58+dT+549pglgZjjMsLtBg0aOKQG8a+8+2nfNg8LCo9RRJilbNVnrpCaF9aWC+a+M0w3PlcODGvvHSgLYEJK9AAAAAAAAAAAAAAAAAM+mPXv2UqFCBdW+7Gf79h1ql2UtWjRXu3QsJYXr1avvmBLAu/cdoBfbtlUH69hK2loav2HTZmrckEsAI+kLAAAAAAAARJcuXZZrRH//UuTm5mazHwAAAAAAALKXnTt3UdGiRdU++9y7d4+uXLki3ZzULFSokHRnRlu2bKGPPhql9iU3adJ31Lp1a7XPujp16jouAdz+hRfUwWnDCeAmjeqrfQAAAAAAAGCPgQNfpcDAQHr//XepVatWMowv+D7//AtydXWlVatWyDDNG2+8Sdev35DuX36ZScWLF5duZm5etuzdu49mz/6NTp8+TXFxcVSyZEl6+eWe1LdvH7NPJaeEv38Zio+Pp/379ysX/IVt9gMAAAAAAED2sm3bdqPrVlvu379HV69eo27dusk16bJly6h06VJUsGDmTAJv2bKVRo2ynAD+7jtOANt3fV6rVu20J4BDQ0MS9+zbT23btFEHp83GzVuoSaMGah8AAAAAAADYo379+nTv3n2aNm2acoHbVZKwO3fupFdeGUguLi7Kxe99iogIl2kvXbqkXDgmXcN9/PHH9NZbb1JCQoL0m5uXNYsXL5ELVS6FW6FCBfL29qYjR45IUrZfv740fvx4dcrUGTdunPIZXOU93NxcqVQpf5n3iRMnyM/PN1m/9jkAAAAAAAAge9i0aROVLFlC7bOOr2cDAgKod+8+VKBAARn24MEDWrjwH/L39880VUlv3bpd7bLuk08+oYkTJ1KrVi3UIdbVreuAKqBDQ4MTd+/dT61btlQHp82WbdupaWMkgAEAAAAAAFKifv0GcpE7Y8YM6tq1C8XGxkgVWVoCmEv0hoWFyLQTJ35LP//8Cz333HNSYpcvgPfv30fR0U9kvLl5WRIREUH16jWg8PBweu211+SiNCEhnv79918aOHCQTLN27b/Ke1WRhPSKFSuVZXlEuXLlUi4qS9Pw4cMkYcxJ22XLlkspXh5fpEgRZdxQKl26NI0Z8zk5OzsrF72fUs6cXvoSv7qErw+VKlXaqD8mJka5sF9E//33H0VFRVH58uVpyJDBlDdvXlme1C4HJ8KtzZeXMyEhkfr370t//vm38vqHUkVX7969ZDzj5Vy4cKEyj4Myj+rVq8s8vLy81CkAAAAAAADA1Nq1a5VrwdJqn2Wc6L169Sr17dtPn/zV8LgFC+ZLgjN//vzq0Kdn27ZtNHr0Z2pfcuPHfyN/eRrubmlnLrZBg4ZpTwCHhHACeB+1aP68Ojhttu/YRU0bN1L7AAAAAAAAwB6ctOVSvt27d6dq1apKovHKlas0f/58fQI4NDREEpx8McgXvqtXr6bhw4cTt4vEF9NVqlQ2mpeWAOaEqiVcDdfgwYOl+8KFC+Tj4y2JTdaqVWtpb+n999+n9u3bU9u2bSXJ2rRpUwoODpZSwuvW8UW8Pw0ZMlTaPOJEKJcivnnzppQcbt++nVzk8+c5fPiwcpGej0qXTkoA+/r66MdzP79///4DaPfu3ZQvXz6l34cuX74sSdqNGzfQo0ePlHm+mOLlaNeurdX58rAyZcrKcvj5+clwfuKck8Zjx35BgwbpkuEDBw6UxHzlypXls2jdq1atRPvFAAAAAAAAFqxYsYLKlSur9lm2b99+6tevvzzMy9e9hiWAufv27Vu0YMECatSooQx/mrZv3yEPElsybtzX8pen4e4WLZpLvy2NGzdNcwLYmShRqvmKj49zSPC8eJ4IBAKBQCAQCAQCgUhJ6HC7Rl98MZa++uprSf4aS5QEJl/4FipUSLkobEwdOrwoYxYtWkSuri4yjTHT9zGOhw8fKH+JPDw85GL6yRMuRawbV6xYURnHyeTr169L8pmrl/7ss8+U91tI58+fpwoVKkppWy3pumfPHnkK+tSpU8rFbQtJXms4QZq8OWF+ryR79uyWz8gJ3kOHDklpXW7HmBO/c+fOk6RsapZj3759Vudr2M7x6NGjZfyPP/4g/VzamtfP3r17JOHLpYl53osWLZbE8tmzZ2nDho3KlMbrFoFAIBAIBAKBQCAQuoiNjVUizmbwQ7nR0dHyMO+ff85TXqvD3bdu3aSYmFi5JjT32owOXlb25ZdjkwXj8do0/NfcPMyFIzhzvjZB+YefanZE8Lx4nggEAoFAIBAIBAKBsD80I0eOlCejOb744gt1qA5Px9Ubs5o1a9KBAweoWLFi0s/Tx8cnGM2LGb6HuciVK7dMxxfYXA00X0hr44KDdVVO58mThxo1aiTvtWHDBkm+cqldLhV7585tOnfunExXo0YNKYX7+HGYVEfN7f3yRb4hnq8h0/4LFy7J36pVq0qyludVr149Gcbv8/zzz6dqObRxlubLCV4Nv8eTJ1GyjhknwPkmw4ULF6WfqyPjBDzHBkn8kiSh3dzc9esOgUAgEAgEAoFAIBBJwdeGWkLUWvADt1zNMyd8Hz9+LNdbjLvnzZsn4/h6z9xrbcX27duthrnXWAu+fmb8t0mTJvowHM4PeGvd5uZhLhxBXwI4Lj7OIZGYyB9K2ZIIBAKBQCAQCAQCgUhB6HC1xQ0bNqA6dWpT2bLG1WNFRITTxo26hOP69eupQ4cO9OWXX0k/Xwxv2rTZTAlbZu79dFG3bm19Kd0lS5aor0+kS5cuSvvCjJO/fn6+tHXrFlq6dCl99dVXVK5cOSkFu2DBP/o2dG/fvi3VTXMbwtr8ddeIhni4IeP+vHn95C+XctbVMpUgbfEyrqY5X778qVoOXn5mab7OzkkllXkavjnx8KFuPCeHua1hbf68jfj9DaN///7qetS9HwKBQCAQCAQCgUAgkoKv0QxrFLYU3CxQ3bp1JLREKuNubThPY+61toLnwdfQ5kKXoDX/OkuhLZ/paw2Hf/75GImUzN8RnPkfvvA1l8xNTeiqgAYAAAAAAIDU4id+4+K4WivjC7+1a9dJSd2SJUvSlClT9NG5c2cZv3DhQqlmWTN9+nRpO2nQoFcluC0lU/nz51fGDZTuUaNG0ejRn9H48ROoT59+coFap04daf/34MFD9O2331Jg4AOqUKE8lShRQl7DVSdzVcrcbu6NGzekPeHFi5fQd99Nop07d8o0KdGkSWNpn/fixYv02Wdj6I8/5tA//yyUcd26dZN2hFOzHI0bN7E6X8NE9aeffirVb3OCmbVp04acnZ2VeTQiX19funTpEh0/fpxiY6OV97pOv/76CwUEXKWYmGiZHgAAAAAAAJLj66qUhLu7u1xrcfCDueamSWlYYm5ae0J77d69+/RhOLxZs+f1ob3GVjiCU1BQYOL2XbuVi/oa6qC0OXz4OLV4vqnaBwAAAAAAAPZo2LCxVDU8Y8YM6tz5JUkm7tq1iwYNGiwlSwMDA6lt2xckEfvhhx9KkvLJk0h5LVc/3KqVLknJiUlOWPK8TM2cOZM6duwgyWVDnOj97bc/aNasWRQUFCTD+OK6W7euNGHCRMqZM6eyLDto8OChFBoaKuMZV6H8999/U+7cuejAgf00duxXdOLECRnn6upKc+bMoebNn6dSpUpLUpvHeXvnpjJlylnt5884ZsznkqxlXAU1t/c7fPhwZTl20iuvDEzVcuzff8DifMPDHyvLqatG7M0336TZs2fLE+rPPfecJNYLFMgv0xw7dlyq8NJKRzMuETxr1q9UurR/siqvAQAAAAAAgOQh3CpVqsjDu/YKCnpEly5dlu7y5cuRr6+uxqjU2rNnj9plHlffnBI8v6+/Hqf2Jcclf1M6T9a2bTs6evSo2pdyZcqU0SWAt+3cRbVqVVUHp83Ro6eoZbPn1T4AAAAAAACwl7e3ryRxuapnrTQpl+jNlSuPdAcHP6LcufOQq6ubtFEbFaVLADNOEufJ4yPdoaHBynTeZp8cNpy3KXd3D3r0KIji4uKoaNGi5OHhLknQyMgIqe2J3yMy8om0FczVIXNpWJ6WE6NcgpaTrdwOcVBQMBUuXJi8vLxkXGxsjDKtrvpkXjZOONvq588YHR2jfM4nsiyMPy+36ZuW5bA233LlKugT0fwa/uw8DVfBxa/n5WI8/7i4eGkjmUtQ586dW14XEfFY/gIAAAAAAICxpUuXUbFixZTrzqRaq7I6fmjbluefT3nOlB/wdkgCeOuOnVS9eiV1cNqcOHGWWjVvrvYBAAAAAABAVqNLHDtJMtVcMz88np/a5oSoufE8zsnJ2eLrU0I3L917mUrLcpibr2ECmEsi82ssvTezNn8AAAAAAABIsnfvXoqNjSNfX92Dy2BZ8+Yt05wAlsfB+elpxperaQ1zT5gDAAAAAABA1sEJz4SEeItJTR7PiVJL43m4tdenhG5e5hOwaVkOc/N988036IMPPiBvb2/pt/bezNr8AQAAAAAAIEnp0qWlRiquUQlhPRxBSgAfPHyYHjwITHNbRVw1Wb58ftSgXj11CAAAAAAAAEDW4eWVQ/5yFdtI7AIAAAAAADgGP1y7b98+cnNzpzx5dM0cgXmNGjV2TBXQ3MNPTXMbSWnh4uKsL00MAAAAAAAAAAAAAAAAAMBCQ0Pp5MmTlDt3bsqRQ/fwLSRXv35DxyWAAQAAAAAAAAAAAAAAAADSS0hICJ07d44KFiyoDgFTtWvXRQIYAAAAAAAAAAAAAAAAALIGbpL2v//+U/vAVKdOnZEABgAAAAAAAAAAAAAAAADIDnx986Y5AeysdgMAAAAAAAAAAAAAAAAAQBaHBDAAAAAAAAAAAAAAAAAAQDaBBDAAAAAAAAAAAAAAAAAAQDaBBDAAAAAAAAAAAAAAAAAAQDbh9OjRw0S1GwAAAAAAAAAAAAAAAAAAnhI/v3x09OhRtS/lypQpQ06BgQ+QAAYAAAAAAAAAAAAAAAAAeMry5s2f9gTww4f3kQAGAAAAAAAAAAAAAAAAAHjK8uUrkPYE8IMH95AABgAAAAAAAAAAAAAAAAB4yvLnL5j2BPD9+3eRAAYAAAAAAAAAAAAAAAAAeMoKFCiU9gTwvXt3Up0ADgoKIk9PT8qRI4fZ/swqqywnAAAAAAAAAAAAAAAAADw7ChYsnPYE8N27t60mgH/9dRYdO3ZM7dPx9fWlCRPG0yuvDKLmzZvR4MGvynDTfkfjZfHy8lTe5xV1iM7ff8+nsLAweuONEeoQ69J7OQEAAAAAAAAAAAAAAAAAUqpQoSJpTgC7fPDB+2PVfrPmzJlHwcFB1K5dOypVqpRE6dKlqXz58uTj402VK1emvHnzyrQrV66kkiVLUs2aNaTf0XhZHj9+TK1atVSH6CxZspQCAgKoQ4cO6hDr0ns5AQAAAAAAAAAAAAAAAABSKnfuPHT37l21L+X8/PzI5f3337OaAF6/fj0VLFiIRo58m6pUqSLByV/GyVhvbx9lQXJL/8qVqyRBXKNGUmKVS+Zu3ryFjh8/Rk5OTpQ/f351TMrxsri7eyRLAG/fvp0iIiKpQ4cX1SHW39d0OU+cOEGJiYmyMjdu3KT8vUclSpQgZ2dnGQ8AAAAAAAAAAAAAAAAAkN4ckgD+4ANbCeAN5OHhnizpyj7++BOKj4/Tl6TVJVaTStaeOnWaevfuK23uRkZG0syZMyksLJQaNKgv41PK0rJs375DmX8EdeyoSwDbel/T5Rw58h3as2cvrVq1mtzc3GjRokW0a9du6tSpgySPAQAAAAAAAAAAAAAAAADSW+7c3mlOADvdunXdahvAI0e+SydPnqKyZcuoQ4i6d+9G7du3o0GDhlCzZs/Tq68OlOGG/Vyitnv3l6ljxw40ePAgGc8lazt37krz5/9J5cqVk2EpYW5Z2JUrV6lSpYo0c+Z0u97XdLl79epD4eERtHz5EvLw8KDQ0FB68cVONGbMaPmcAAAAAAAAAAAAAAAAAADprWjREmlvA/i99961WQLY09OTunXrShUrVpCoUKE8+fr60qpVupK0NWpUl2kN++/cuUNTpkylLl0604MHD+j69Rv06NEjqW65QIEC0nZwSmklgHmeXA21FpwFd3d3pxdfbG/X+5ou95Ily6RUccOGDaSfk8BXrwZI4pgTxQAAAAAAAAAAAAAAAAAA6S1PHp80lwB2ee+9d6wmgDds2Ej58+ej118fTuXLl5Pg5C/jKpNLljRMACf1X7p0Wapa5sTsxYuXJC5duiRt8Vat+hxxG7wppVuW/DRixOtUoQInonVx/PgJaQOYE8D2vK/pci9dupyqV6+qjK8q/ezYseOSQG7b9gV1CAAAAAAAAAAAAAAAAABA+vH2dkAC+N13bSeAuURsixbN1SFJVq9eQyVLlqDq1XWJVMP+hIR4mj//H5o4cQL17NlDSthqkZrkL7O0LDt27JS2fjkBbM/7mi73smXLyMvLi5o0aSz9bPHipVS4cCFq3LiROgQAAAAAAAAAAAAAAAAAIP14e/s6IgE80mYCmEvTmksAr1plnEg17M+dO7eUzN27dy81bdpEErfs1KlT5OLiIgnXlLK0LDt37pIEMLfXa8/7mi73smXL6ciRo8p8m5GPj49MO3XqNPrww/ek2mgAAAAAAAAAAAAAAAAAgPTm4+OABPA771hPAG/cuMlGCeCSVL16NbP9XKJ21649NGHCtzLu559/pf37/6M2bdpQnjy5ZZqUsLQsO3dyCeAoSQAzW+9rupzLl6+gRo0a0i+/zKIFC/6REsRDhgyWEsUAAAAAAAAAAAAAAAAAABnBx8cvzQlgp6tXLyWq/ekmNDSMHj16RL6+Pvr2gzOCve/br98r1LVrFyU6082bt6QUsI+PtzoWAAAAAAAAAAAAAAAAACD9+fuXpaNHj6p9KVemTBlyunLlosUEcO3a9dSu5I4cOah2ZQxry2IoNcvVv/9ASf52795NHQIAAAAAAAAAAAAAAAAAkLFKly6X9gTw5csX0r0EcGb39dff0PPPN6VmzZ5XhwAAAAAAAAAAAAAAAAAAZKwyZcqnPQF86dL5Zz4BDAAAAAAAAAAAAAAAAADwtJUtW8ERCeBzSAADAAAAAAAAAAAAAAAAADxlZctWTHsC+OLFs0gAAwAAAAAAAAAAAAAAAAA8ZeXKVUp7AvjChTNIAAMAAAAAAAAAAAAAAAAAPGXly1dOewJ48eK/kAAGAAAAAAAAAAAAAAAAAHjKevbsn/YEcFBQIBLAAAAAAAAAAAAAAAAAAABPma9v3jQngJ3VbgAAAAAAAAAAAAAAAAAAyOKQAAYAAAAAAAAAAAAAAAAAyCaQAAYAAAAAAAAAAAAAAAAAyCaQAAYAAAAAAAAAAAAAAACAdPfgwQOKiYlR+56OR4+CKDIyUu3LnpyCggIT1e4MwyvWy8uTcuTIoQ7JXDL78gEAAAAAAAAAAAAAAED2N2PGTDp69Kh0e3p6UYkSxalXr15UqlRJGeZo2vsNHPgKPf/88+pQnQ8//IiCg4Np7NgvqHjx4urQlKlSpSrNmzeH6tSpow5JuyFDhqpd5n399VdUpEgRtY+oT5++1LJlSxo2zPrrnhZf37z6bZ4aZcqUsVwCmDfwH3/MUfuSzJv3J02dOk3tS5233nqL5s9foPalr71791FAQIDaZ5+MXD4AAAAAAAAAAAAAAAAAc06ePElhYY+pffv21KhRQzp79hx16NCRAgKuqVM4Fr/ff/8dpDlz5qlDdI4dO0YbNmyk7dt30OPH4erQzKFVq1b6CA8Pp5s3bxkNy5kzpzqlzpAhQ6hJkyZqX/ZkMQHMG/jcuXNqX5Jz587TiRMn1L7UycgVO3nyFNkZAQAAAAAAAAAAAAAAALIaLu3bo0d36tevL/322yzy8vKiDRs2yDhO1gYGBkq3Zs+ePRQWFibdnLi9e/euFJb8++/5tHHjJoqLi5NxlrRu3UqZ73/08OFDdQjR0qXLqEOHF9W+JPfu3aPFixdLwcorV66oQ5NcvXqV/vrrb1q/fj1FRyev+jk0NJRWrVpNCxb8Q6dPn1GHpkzfvn30Ua5cOSntq/VXqlRRqnvm5eBl5PfInz8f5c6dS321zqVLl2Q5eb1yFdV79+7Vr0Nma7y1z6FtA20ZMoJD2gC2tnFNP5TpiuWi4rt27UoWd+7ckfHMnvmb23HPnz8vK5/fm+e5f/8BGR4dHS39PP2aNf8mOzAAAAAAAAAAAAAAAAAAMhs3Nzfy8PCgiIgI6edqmQ8dOiTdmmHDhtPFixele+zYL+mzz8bQm2++LQU8v/56HL3++ggZZ4m3tze1aNGCli9fIf2cV/v337XUvXt36ddwrq1585a0adNmSUR37NjJKMG5efMWevHFjnTgwH+0du16GjRoECUkJKhjdYVRW7RoRcuWLVeW7SQNHjyEvv/+B3WsY/Dn/+ST0co6eY0OHjwoOcOJE7+l9et1CXTGucJOnTor4w/RunUbZDmGDk1ah7bG2/ocpsuQEdKcALa1cW2tWG7seeHCxfr488+/lB1gMO3YsVPG2zN/SzvuoUOH6dGjRzJ86dLlys61VoZ/9NEo+vXXWVLCecWKFdS69QtpqksbAAAAAAAAAAAAAAAAID2EhIRI1c/Hjx+ncePGS+6rQ4cO6ljbgoKCadWqFTRp0ne0cOECqTmX83XW9OzZQxKajKt+5pK1pUv7Sz+Lj4+n//3vC3rjjRH022+zaerUyTRhwgQlJirLFySFNTln9+GHH9CMGdNo+vSp1KZNG0kms8TERMkfvv76a/Tnn3Pp228n0MqVy2nu3Hl04cIFmcZRuCDp2rVraMqUyfTSS53UoTpcmnfcuG9ozJjPaNq0KfI5uLptbTltjbf3cxguQ0awmgDetWs3DRjwilHs2JFUnbKtjauxtmIrVKhAM2dO10fu3LmpWrVq1K1bV7vnb2nHHTCgP/n7+1PXrl3ltePGfS3Tf//9JJo//2/65ptx9Mcfv9PQoUPop58yZoUDAAAAAAAAAAAAAAAA2Gvv3n00ZMhQGjBgIM2ZM4e+/XaiVG1sr/bt20nJYVasWDHy8/OlmzdvSr8lTZs2kWqNuXTr0qVLpQpqQzdu3FDiJvXq9bI6hKhz55fkLyeqefytW7eMXsdJZc3t27elJt9ChQpJYdCdO3fSxYuXpP/o0WPqVI7RqVNH8vT0VPuM8XJyVdfasrOuXbuoXbbH2/s5rC1DerCaAC5RooTygTobBdczrrG1cTX2fihur/fw4SNSfzlPb+/8U7rjOjk5SXHt776bRGPGfC7zunBBV0wbAAAAAAAAAAAAAAAAICNt2bLeKAxx27v79++lEyeO0XvvvUtffvmVUfu8tnDhS0Ourm5krj1eQy4uLpLonDZtuiQyO3Y0LnHMTbwyHx9f+cs4/+br60tBQY9kvLOzs1QnreHlcHV1le67d+/J323bttGKFStp5cpVtGrVKqpa9TnKly+fjDNcH76+eZMN47BH3ry615rDTcnycubMmVMdQtLGsractsbb8zmY6TKYfg7DcASnxYv/SlS7RevW7eXva6+9Tnny5JFStYa4GPPDhw/o999/k2qTe/R4mc6dO0seHu7qFPxUQDMaOfIt6tmzJ3Xu3IV69eolDS1r+vTpSy1btqRhw4aqQ0hWyBdfjKWlSxdLMXKW2vk3bNhY2fnH0gsvtFGm6SUJ4sGDX1XHEvXr159iYmJlZ+UdkRtu/uOPOXTmzCkZb7p8jlrZAAAAAAAAAAAAAAAAAIZ69uxPS5b8LX81wcGP5K9pvo6rHO7atRtVrlyZxo//htq2bS/5LK2kLSdea9euS4sXL6Q6derYzKOZ4vfj0qs8/vLly8o07aR238mTf6LAwECqV68B/fvvGsqb10/ms3Hjen1eLyoqimrWrC05RK4uunHjprRjx3YqUaK4jL9z5w41afK8LFvBggWpWbMWtGHDOipfvryMN6UlfbV1w+uEc3bm1pOGC37eunWb5s79Q/pt5Sm1z7Rp0wYqW7asjOdahrn5WF7OUqVKWR1vz+cwtwzaZ7MkLU3XlilTRpcAtmeH0hgmgO/fv2914zZu3MiuBDA3mvzqq4Np1qxflNc0lmEstfM33HF79+4jfwcPHizjuGQwb4ijRw+Tj4+PDFuw4B/65pvxFhPAtjYCAAAAAAAAAAAAAAAAQEppyU3DJKchc/k6bgr19ddH0Natm+n773+gx48f06xZv8q4sWO/pPnzFzgkAcy4pl5fXx8pvWuYAK5cuZIyz35Swnfq1ClSUy+3T7xp0ybavHmTFOx8+eXeVKxYUWmalX388SfSrrC2bFylNVEiTZs2VZ+z41p7ubZfw9KzWtLXMAFsup40KU0As6FDh0mbvto65lzonj17pNlZXk5b4219DnPLYA3nJR2WALZnh2KGCWBma+PaWrHXrl2nbt26Kxv9I5nOVGrmb7jjjhz5jjKdhzwFwa/nnbN+/Yb0zz8LlJ20Lt27d09KBN+7d99iAhgAAAAAAAAAAAAAAADA0bSEZkoSwKxLl65UqVJlGj58KA0aNJjCw8Nl+PDhw2jy5Mn0119/OiQBbMg0AXz9+g0aMeINaevX3d1dmnedOnUy1apVS6bnEsRDhgyjiIgIqUaZ2wCeO3cezZs3R5YtKCiIRo36mPbu3SvvGRwcIlUlz5nzh77UMEvvBDB/Ll6O/fv3K++fjz788ANJVq9atYIqVqxoc7ytz5ElE8C2Nq6tFfvnn3/J0whcX7ahMWM+U6brnar5G+64p06dlpUeEBAgn+fgwQPS1vAvv/xKRYsWocjIKOX1L9Ps2b8hAQwAAAAAAAAAAAAAAAAZxlYC2B7x8fF08+YtKalr2OZuRuEcXmxsHJUsWUISvYZ42a5fvy4lY/38/NShxkJCQiTJ6uvrJ1VLm0pJAtgRTp8+I9VsHz9+1KjtX42l8bY+h73SNQGcUtY2riM4ev68ETgjz8WvObEMAAAAAAAAAAAAAAAAkJEckQDO7tI7AczVOV+5clXa8H348CFNmTKVGjZsQOPGfW3XeEdzRALYYZlaTqT6+5dKl+Qvc/T8+UmD0qVLI/kLAAAAAAAAAAAAAAAA8IwqUKAAnT17jmbOnEkbNmykQYMGGlWBbWt8ZpQ+2VoAAAAAAAAAAAAAAAAAgEyOS/Z+++0EaTd55szpNGBAf3JxcVHH2h6fGSEBDAAAAAAAAAAAAAAAAACQTTisDWAAAAAAAAAAAAAAAAB4+ridVMj8WrdujzaA7ZDebQBnNo5oAxgJYAAAAAAAAAAAAAAAgGxCS5BB5nb27Ek6c+akdPP2QgLYMiSAU4YTwKgCGgAAAAAAAAAAAAAAIJtJSIhHZOJIKU58mkZ2FBj4iCIiItS+lHtW1pMt2aoE8MP7D9QuAADI6nZu36Z2ZbxmLVqqXQAAAAAAAAAAkBHyFyygdkFaccKL8z7x8XHqEMiMLlw4a3cJYG2bmuLXcDXS1vzww4906NAhGjNmDD33XBV1KNHPP/9CsbGxNHLk2+qQzKFTp5eobdu29NZbb6pD7C8BnF3WE6qANsDJ3+DgILUPAACyupPHj9OwEUk/8hnh6OFDdOTQQWrSvJk6BAAAAAAAAAAAMoKLkwuSwA6iJcHi4mLVIZAZXbx4zq4EsKWkpsZWcrN//wG0bt16atWqlTLtInUo0ZtvvkVPnkTT77/PVodkDqlNAGen9ZRuCeALFy7Qd99NUvuSGzx4MDVu3Ejtyxw4ARwWFqr2AQBAVnfsyBFJAN+7e0cdkv7u3L4tCeBmrVACGAAAAAAAAAAgQyWgFLCjaImw2NgYdQhkRpcunbeZADZNavr6+qpdpEwXrHZZT25yYjMhIYG2b99Oy5Yto0aNGspwc4nNO3fu0LZt2ygmJpaaNGlM5cuXV8eQlI4tUqQIRUVF0a5du6l27drKdNEyLDIyUoYVK1aMXnihDTk5OdHOnbvoypUrVL9+PapSJalE7ZMnT2jv3r107dp18vHxoaZNm1CBAknHfmoSwNltPaVbAvjBgwfKytqq9iXZunUr7dmzV/ngS42KP2cGnACOCA9X+wAAIKs7fOigJIBv37qpDkl/9+/dkwRwS+XHFwAAAAAAAAAAMk58bDwSwA6iJcM46QSpw+3Qenl5Us6cOdUhjnf58oUUJYANk5oaLblpK7HJyUdXV1c6evQYbdiwToabJjY5odmv3wBq3rwZ5ciRk9atW0vffPMNDR78qoxv2bKVsgx+dOPGDapRo7okaWfOnEn58uWnhw8fUOXKlWnjxk3Uq9fLkuTlBG+ePHlo/fr1tGjRP9Ssma7WxaFDhynTP6TSpUtLIvXgwUMyvl69ejI+rQng7LCeMrQK6LNnz1GPHj1pzJjPqG/fPupQonv37tGuXbsoNjaOGjSoLzM1ZG38sWPHqFChQpIF37dvv6zYFi2aS8Z77959yoe+RrVr16KKFSuqr7CME8BPlPkAAED28N+B/ZIAvnH9mjok/QUqJx6cAG7T3nJVIAAAAAAAAAAA4HgxT6JTnAC+evUq7dixg06fPkOhoaH0008/SiLF0Lp162jOnHmSAOIcxahRHxlNY2t8WnH+Y/bs36TUX0hICOXLl5eqV69O77wzknLkyKFO5VhaMiw6+ok6xLp//vmH1q5dR2+//RbVr19fHUq0evUaZdlny7pp1KgRffbZZ+TtnbRu0jo+M+vatRu1adOG3nhjhDrE8a5cuZihCeBRo0ZRrVq1adasX6ldu7ZGic34+HiqW7ce9e7dW44BtnjxEvrggw/p2LGjst9yYjMq6glt27aFvLy8ZBoe5ubmruw/ayRxunnzFurTp6/yuvfp008/kWk++eRTunnzJs2f/7f0R0dHk4eHh3Sz77//QUoEr1ixXPqfdgI4M6wnRySAndVuq4KCgui1116nbt26GiV/ObHbvHlL2rRpM/3330Hq2LGTsmAL1LG2x48d+yWNHj2G3n33PTpx4gR99NEo+uab8TRmzOfKip1N+/cfoC5dusmGt4eziwsCgUAgsklo+Ec1o0Ljorw/AoFAIBAIBAKBQCAQCAQi4yI1NmzYSFybaVxcHG3fvoNiYoyrPOYcxXvvfUCdO79E33wzTgq6vfXWSHWs7fGOwPmPNWv+pSFDXqXvv/+O+vfvR3fu3KXHjx+rU6SfxMREm8FJ9B9++FES6Xfv3tUP37ZtO7355pvUrVs3+u67b+n06dM0fPhwh43P7KGuQbPjHBUZjZOTb775Bo0b941UdWyIC2RySdQBA5KqUe7Zs4f8PXz4sPxlnCfUkpqajh07SFKTVatWVebNx5SmatWqdP36DbWPyNnZmZYtW05fffW1JE6PHDlC586dV8c+fZllPaWVzRLA/MX5yisDlb/xNH/+X+Tm5ibD+UZ5q1at5eAdOfJtGbZy5SpJ3u7cuYN8fLytjs+b10/5YF2UD+smRZr5Q+/YsVOKfvOKfe+9d+U1X375Fd2+fVsy7dZwCWDDm/cAAJC17dm1U0oAX7l0UR2S/vhJUS4B3KFzZ3UIAAAAAAAAAABkhPCwx6muAvrkyVPUpUtXOnjwAOXLl08dStS7dx/y9y9NEyZ8I/0BAQHUqlUbWrlyhSRgbI03ldJaTSMiIpT51KC5c/+gpk2byjBz+J4U50d001dL1gQnj+cSxFxYr2jRotLmqKenpzo2Oa00ZFRUpDrEPE5Ccs2v/fv3p/fff58mT/6JOqv3xbp16y5V9H7//STp5zZKmzZ9ntavXyclmNM63hTnojgJzSUguVrdWrVqUblyZWUcV5N74MABun79Onl7e1Pjxo0pf/78Mo5xArFw4cIUGRmlbIc9so5atWol22X37j3Kdr1KdevWpUqVKqmvSHpNWFiYzJvboH3hhRf0Cbru3XtQ69atacSI16Wf8XbYunWbsp3CqUaNGpKw01hbfksCAi5nWBvAvK9yIj48PFxKt3799dfyAIRWsvXgwYPUrt2LdPfuHfLwcFdfScq2qkmjRn1I/fr1k1KsAwYMoFdfHaSO1ZVsNRz26NEj5XNXoOPHj1KJEiVkGJeQ5VK+fHwyzg1y27ldu3YhPz8/unDhAv388y9065Yu+fk02wDOLOspQ0oAc4abM84zZ87QJ38Z111948ZNqaNao2Wqjx8/bnO8pm3bpAOqSpXKkvF+8cWklc91Yd+8eUvts87cU0MIBAKByJqhMSyhm96hMbc8CAQCgUAgEAgEAoFAIBCI9AtH44Tc8eMnqHHjhuoQIn9/f0kOHj58yOZ4c1JaqynnPri045kzZ6XfnJMnT1KLFq2kROSJEydp8OAhkgTScNKZa1qdO3eeJMr++OMPeS97mJY4NQ2eJyeSu3TRJX2VQTI8NjZWkk9NmjTRT8vJ3GLFitGBA/+lebw2TAveFpzA/+67SXT58mUpRPj222/rx7/33ns0ffoMWY9Lly6TRPKhQ4f14z/7bIxsCy5xzG23vvPOu8q2Gksff/yJtL3K26N9+xclkWf4Gt6OI0a8IfPlwoh9+/aTe4Q8nkv/cmjT83Zo2LARLV68WOk+LsnCCRMmyjhby28p7MHJSk5aajiZqYXGWlLTVK5cuWR9Tpz4rVGJ+eLFi8tfTpZrIiMj6f79+8p2041zBE7ic1J+wYK/afjwYdSjR3c55tIqu60nR7CaAF6yZAktXLiIfvnlZynybEhbaT4+SVl0fpqCs+pBQY9sjtfwStRoX/KGjWpz0pm/LOxh+oOBQCAQiKwbGtMkbXqGxtzyIBAIBAKBQCAQCAQCgUAg0i8cjdvb5cRN/vzGpYq55Oj9+w9sjreES4wuX76MJk36jn744XtJoubNm5fmzZtD06dPpT59eivdf8q03M4p15A6adL31KJFS0lI/vvvWinRyjgJ+Mkno+n111+jP/+cS99+O4FWrlyuT/ZygblRoz6RkpLLli2h8eO/oQUL5tvdLq1pwtEwuKTq5MmTacKE8dKvvkK6uaQxr5sCBfIbvYb7OdGV1vGGwzi4dDAnwlevXiUlLqdPn05r1/6rH//jjz/S4sWLaOLECcp6mkevvfaask4n6cezsLBQWrNmtbQDPWXKZPr99z+kJlpuT/Xnn3+WkpmcPDd8Ddc+y+/z7bcTpWQyV1O9Zs0adZqk9cfb4cMPP5IEM69/LtX8779rlPf4nc6dO2dz+S2FvUyTm4ZSktTUDB48WD7T+vUb1CEkpaG5ZPn48RP0OblvvpkgJd4bNGgg/Y7A7V5zrlCr8vnOnTs0Y8YM6U6r7LSeHMFiAphL6f7vf1/IAVW16nPq0CRaRv7Gjevyl3G1Bw8fPqQiRYraHJ8ezLUhiUAgEIisGRpzidr0Co25ixAEAoFAIBAIBAKBQCAQCET6haNxqUzm5qargVTD/XwfyNZ4S1Jaq+nbb79Fa9euoa5du9K9e/clkfjiix0kV8IJyPPnz0vyiEun7ty5ky5evCT9XJL11q3bklwcMmSwOjcd7f1tMZd01GLUKF2JWc7lcL/h9Fpii99HG8bBTXrGxcWmebzhMA5OunOyfPToz2Q9cC6JaeM5YchNjHLS7ZNPPpXSxZwg18Zz4rpdu3ayH3F/lSpVZLt06NBBPw1Xq8211hq+5qWXXpL35X6uWrpNmza0Z89edTy/v24Zbt26JYle3i7c1jS3b3z+/AVJBnK7r7aW31KkhJbcNI2UJjUZV1388cejpOSqoSlTplBAwDUqW7a8VE/MyfBZs36R6R2F19VHH30oVYTXrVtPWedtqXv37urYtMsu68kRzLYB/ODBA+rUqTM1btxI+RL4SB2ahEvtcnBxeD4opk6dIiV1x40bT5s2baLNmzfJB7U1nuv57tWrlzJdH5kvPxVSp0495QDZIVUBMD6ouWj/li2bpN8SbgPY06RBZQAAyLo2rlsrbQCfPJb6tg5SKk45uec2gHv1S2ovAgAAAAAAAAAA0t+9O3cc2gYwl7KtUqUqzZ49i1q2bCHD2AsvtKOXXupEQ4cOsTresP1RjSNyGnfv3lXm01WqXeaEY69eveX9OMlp6MUXX5SaWbt370nnzp0hTjDaS2sP9fHjMHWIMU40v/HGm/S//30uVVQzLp3cu3cvat++vbSXW6FCRfrjj9+lLV1Nq1atlWXvLFX3pmU8l4o2dfbsOSmhu2cPt3UcTMOGDaWPPtLlp3r37k3cZiyvJ65l9uLFi/Tbb7/ThQu6UqQdOnSkPn36UP/+/aSft0uNGjVp3769+u2yYsUKmjp1Gm3fvk36+TXdu3eTUp4abhKVmzedNetXevnlXsrytpTSxtzuK7eVzMtuup06duwgbQdbW35Lbt68ZrMN4KeB10FsbBz5+5fS7x+OxrUIBwYGUsmSJcnd3Xbi1FYbwE9Deq4nR7QBbDYBvGDBP1JnvSVvvvkGffDB+9I2MNePzk8/8AbiuuKnTp0sjVszW+MdnQDOaVCdNAAAZG3r1qyWBPAxC22upAd+7o4TwH1fGagbAAAAAAAAAAAAGeL2zZsOTQCzVq3aUKdOHendd9+Rfq6+mXMQ3OwlJ31tjTflqJwGt/ObO3du+vDDD6hZsxa0YcM6Kl++vDo2CSfI6tVrIFUbc2lje2kJMq4W2Rxuh5fbxjW0e/duqlChgiRsuYQmV1ndqVMnev/992Q8r5uaNWtJcpSnSet4a/bt2ycFDNetWyvrqUmTpnTixHHy8fGR8fPnz6evvx5H58+fk/6OHTtJ1dtczTPj7cLvtXfvHqME8LRp02nbtq3Sz6+pXbs2ffnlWOlnnOwtUqQIffHFF7KdW7ZspQwbLtVl8zJwAccKFZJvJ1OGy88lwi25det6pkwAZ0aZMQGcntItAZxSnODlLHfJkiXMZrltjXcETgDn8fZW+wAAIKtbs3KFJIAPKyfuGcXZ2UUSwANeNa5WBwAAAAAAAAAA0teNa9dSnACOjo4mLknI1fFyUpUTpdzuq5+fnxRK+/nnX6Q93hUrlkn1vRMmTKTVq9dIwtae8aZSmgB+/Pgx/fLLrzK91mzmwYOHZFm5atkBA/orwQUREmnatKn6BCc30cnz42T28OGvUUREhLKsMylPnjxSspmrki5VqqRMa46WIAsNDVGH2MYldr///ntJiLOZM3+muXPn0qpVK2XdcPXLq1atkkQx1/Ca1vGGuCrs0NBQfbL0+vXrknzdsGGDsk68qV69+rRo0ULlbz3ls9+jPn36yt9z587K9J06vSSlhPv16yv9vF1q1aotpXGTEsArle0ynbZu3SL9/Bouwbl8+XIqU6Y0HTt2nF5++WVpa7hmzZpSMptLAA8fPlym799/gFTbPGPGdP124tcUK1ZU2ju2tPzlypWVYebcvn0DCWA7IQGcMg5LAGcGnAD29fVT+wAAIKtbuXwp1a5bT+3LOJwAHjR0mNoHAAAAAAAAAAAZIeDKlRQngP/9dy2NHKkrvWto8eKFVKdOHWmLltvcXb9+gzRrydUoz5w5XRJ8zNZ4UylNAHNbsEOHDqPDh4/IvLmNWk7gcqJy9OhPpcAcz2PUqI9p7969kigNDg6hvHnz0pw5f1CJEsWlFPC7774n8yhUqKDS/0heqy2DOVqCLCQkWB1iW8WKlej77ydRx466BDCvmw8++FBZN+v164aT0IbrLi3jDXEilati5vXByVVuppSrUB45cqSM/+mnyfTLL79IEp3bY+VtMHv2bDp79oyMf+mlzlJ9dd++SQng2rXr0O7duwy2iy4BvGWLLgHMr6levbpUh804ofzGG2/oS4P37t2HWrbkBLDuPiHP86OPRhlsp2CponvOnDn06FGQ1eW35M6dm0gA2wkJ4JTJVglgxklgAADIHnaq7XE8Dc1atFS7AAAAAAAAAAAgI6S2+md7cBKVqyAuUaIEubq6qkOT2BqfVtHRMZJgdHZ2ooIFC5otXRwSEiLLwQXduBSzKR7HpUz59ZxQtSYpQRakDkm9tK47e9dtQkKCrCNOkHM1zNykqCFeP5yE5YSuufWXUtyeLyeSudQvlwTmtoU5bEnaTr6SqNfYWn5z7t69hQSwnZAATplslwAGAAAAAAAAAAAAAAB4lj0LCbK0Mi3N/TTcvXsbCWA7IQGcMpwATp8GeQEAAAAAAAAAAAAAAOCp4TZrEeajUqVKlD9/PrPjMioA0hMSwAAAAAAAAAAAAAAAANmMuaQjQhfjx39DrVq1MjsuowIgPSEBDAAAAAAAAAAAAAAAkM2YSzoiMk+kFFd9bBqO8OhREEVGRqp9aefo+aVUeq2nrAYJYAAAAAAAAAAAAAAAgGzGXNIRkXkiJTiJye3emoY9yc2oqCiaOnUa9ejxMrVu/QL17t2HJkyYqE/SvvXWWzR//gLpdgRHzy8l0rKeNNz27pAhQ2nr1m3qEPvt3buPAgIC1L6nCwlgAAAAAAAAAAAAAAAAB3vw4AHFxMRI99MoFWku6YjIPGEvLalpjj3JzXfffY/WrPmXhgx5lb7//jvq378f3blzlx4/fizjhwwZQk2aNJHurCyt60kzb96fdPjwEZo9e7Y6xH6TJ0+h7dt3qH1Pl9PixX8l8gcPDn6kDsq6Ht5/oHZBZrFze8qfkHCUZi1aql0AAAAAAAAAAAAAkJnlL1hA7co+qlSpSvPmzaE6depQnz59qWXLljRs2FB1bPrREmH3799Rh6Tc/v0HqFChQuTvX0odkhyXdNy5czedPXuWQkNDadKk7yhPntzqWPM2bNhIf/75FwUHh1D9+nXp/fffN3qNrfGGfvllFnl5edLAga+oQ4h2794jpU/feGMEVatW1ew07O+/5yvLHEZvvjlCHZLxHj0KpDNnTko3b68lS/6Wv4b5OmtJTUP82tat26t9SSIiIpT1UIPmzv2DmjZtqg41duLECcqbNy8VK1ZM+o8dOybb/smTJ1KiNX/+/NSqVUtydXWV8ezSpUt04MB/yrh8sl8fOnSIqlatqmyrPGb3dd4/duzYqS5PNXruuSrqGPto64HXjWG3Jq3rSRMWFkb16jWgH3/8nkaOfFeZ72YqVaqkOpbov/8OUpkypSlfvnzqEKI9e/bIZ7pz5w698857VLduHXrhhTbk5uZODRs2kGnu3btHu3btotjYOGrQoL4yjzIy3BJf37xSEjm1eP7ZJgHMyd/g4CC1DzKLk8eP07ARb6p9GePo4UN05NBBatK8mToEAAAAAAAAAAAAADIzFyeXbJcENkwAb9mylYoWLUqVKlVUx6YfLRl2795tdUjK9e07gNq1e4FeeWWAOiS5X3+dTfv27ZNk2Lp162n37p1Kd151bHJ79uylN954kz799BMqW7Ys/fDDj5QrVy767bdZdo039dZbIyl37tw0YcI30r9x4yYaNeoTGjNmtPL5e8gw02k0n3/+BT18+JB++WWmOiTjBQU9SvcEcHR0ND33XDX64IP36fXXX1OHGjNN2Hbu3EUSwvfu3Vf24cryMEDFihWU7aArEculiT/6aBS1adOGnJyc5HMcOXKU/vprntmHHU6ePEmDBg1WluM5Kly4MG3fvp1efrknffjhBzLeHhmVAOaHB+bMmavMb5NyDPSj2rVry7rTNG3ajEaP/oTat0+aR6VKlZXP/iedO3eepkyZqnxGfnCitDy4MG7c15L4HT78dWrSpDHlyJGTNm/epOyjY6hfv77qHJJ7agngGTNm6t/YyysHlSxZQlkRfeTL62nhBHBYWKjaB5nFsSNHJAF8727qnzRKqTu3b0sCuFkrlAAGAAAAAAAAAAAAyBIS0q8UsFaikUv3HTx4SEo0tm7dyqhEo7USitrruS1VToZVr17dbAnGq1evSolJToK2bNmKatWqrU8AG5ay5OnCw/l9qqqv1Dl8+DAVKVJEIi20ZNjdu7fUIclxYvDQocN08+Yt8vbOQ/Xq1dMnby9evEgffjhKkl9c8tPNzY3q168n48w5ffoMvfxyb9q1a4fVBPArrwyiUqVK0VdfjZX+a9eu0YsvdqLFixfK+rQ13hQnd7nE6fjx42jFipX05ZdfS6K3fft26hTG0xjiBHBgYCD9/PMMCgkJkc9gikt6csIyvXChxvROALNp06ZL1cQlShSX7cwlgXn/9/T0lPHmEsBOTs7KPBfJtr916xY1a9aCNm/eKPsvJ0HffvstqUqacdL088//J9vJNAHMVV136NCJunTpTMOHD5PpuaTsCy+0o2XLllCFChVkmC0ZlQDu0qUrtW3blkaMeF1ZvuXyEMKePbvI2VnXoq61BDB/9p49e8n+N3jwqzIuPj5eOYZaU7du3WjkyLdl2MqVq2jMmM9p584dyneCnwwz5YgEcKraAOZsfVjYY/mAXFT5yJEjykHYUTba0+Ti7ILIZKHhnTyjQuPioiwDAoFAIBAIBAKBQCAQCAQCgUAgMn2kp7Fjv6RRoz6W6lnPnTtH48dPoFdfHUwJCQkynnMeLVq0koTPiRMnafDgIfT99z/IOMav/+ST0TRs2Gt08OBBSeCa2rx5i+RJuFrctWvX06BBg/TzZxMnfkvr12+Q7kuXLtPAgYMoOlrXPjDjZGTfvv0pJMRxBd1M25w1jNGjx9Bvv/1BFy6cp1Wr1kiS7tix4zKO2z/lNot5vXBilZfb9PWmYev9YmNjZd1yTkkbVrJkSSpSpLDkmGyN14YZhvaef/01n8aNG09Tp06mdu3amp3GNAyHc1vNS5cu0wcnNLnE5q5du41e4+jIKJysXbt2DXXt2lVK9X744UfKvtpBSkBbwklMTv4yTvr6+fnSzZs36caNG/K6zp1fknGsa9cualdyt2/fpvPnz8sDFFwSdufOnXTx4iXpP3r0mDpV5sAPPvCDAJysZrwO+MEQruI5tXh93bhxk3r1elkdwgl23bo7fvy4/E0vqSoB/Nprr8sTE1yfO+MnRerXbyh1qmsZfGv1WcfFxcmBw08N5MiRg2rWrGE0PjW4BPCTqCi1DzKL/w7slxLAN65fU4ekv0Dly4dLALcxeAIDAAAAAAAAAAAAADKvmCfR6VYCmEs0hoeH07p1a8nDw0NKfLZs2VpKmnbo0MFmCUV+fVTUE1q9eqW+1KQhznnw/Li65KFDh8iwP/6YQ+PGfWO2VCQnOxs2bExff/2lviThb7/9TitWrKC1a/+V/rTQSkPevn1DHZJcTEwMubu7q3266py5HVetuuUBAwZKO6YDBtguVXnmzBnq1asv7dy5TUo5m/Po0SNq1qwlzZ37u6wPDVc1Xbt2TRo0aKDV8YbV8Gq4jVZOWvO2/f332VSrVk11TBKe5uTJU1S2rHEO6sqVq1Id98yZ09UhST7++FO6fv2GLIu57e0ooaEhGVIC2NTdu3eVfbqr7POjR39qtgRwr169pOZfDe+vX345Vkp4c2nvixfP60vFcjK7QoVKtGDB38n2dS5l3qtXb3rppU5SXbShF198kdq0aa32WZcRJYD5IYJly5bJsmr4wQ4uCT9t2hTpT2kJYC7F26PHy3Tu3FnluyfpeOP5jBz5ljJ9T3WIsadWAtgUf2F6e3vT48ePpZ8Tv82bt6RNmzZLg8gdO3aSJyYYl9DkneOnn36Sp2R2795N779vfz3f1ji7uCAyWWhMS+mmZ2jMPUWGQCAQCAQCgUAgEAgEAoFAIBCIzBfprWPHjpLLYD4+PlIF7r59++0uodipU0eLyUAu5ccF3nr06K4O4YSerg1ac7hkJSeZuMSxhru7d096vSOYljg1DE7Gcbu9P/00mb766msp7cslk7Xxutdbn4dh6KY3P46Dk97MxcXVaDhXw80JdFvjDYcZRv78+WT/4W1nbjxH8eLFlO3fwSi4OmRmOu306TOlyu/p06fI/mI63pFhD05WctLSmpQkfxlXa81Vat+/f18dYr8SJUpIyXbDUvABAQGyjcwpVKig/OUCpD/99KNR2Jv8tUda1xPvf6tWraSmTZtIAVgtWrZsQVu2bJaHRhgXao2IiJRuFhwcbFSS38WF065J21ZrOvfGjevyl3FV8lyKukiR9G1WN80JYH5KZNGiRVL0u27dOpKA+9//vpCNyQ1Cc5H7CRMmKDFRqgzgHeH06dPKl9lSGjv2C5oyZTKtXLlCnVvamP5gIJ5+aBKU/SKjQmNueRAIBAKBQCAQCAQCgUAgEAgEApH5Ir1x0tcQ93Py5u7de9K/bds2qe6Y2+dctWoVVa36HOXLl0/GMUslWxnPh0tDckE5Te7cuY3aGDbFyV6uKZWrfuZqZzmh1rmzrupZRzGXdNTitddG0IIFCyl//gJUq1YtKl++PEVGRhpMI3Mw6LcW8nZmhicFJ9M46cxV6hoO58Sat7ePzfGGw7RgFStWpBkzptHffy+gyZOnmp2mePHiknA3DK5emkcbTrtmzVplPvNlfn5+fkbj0iPsZS25aSv5ywU3J036Xh500HA72ByGJa3txccEJ0W//PIrqQmY46uvxulLA5vidd+4MZd2H6dPojKu/pj3fUdKy3raunWbsq7Cafz4b6S0uRZfffWl7H+rVq2W6bjU+Pr16/UFEn/88ScZrilQoACdO3de/0BDwYIFpZZknk4b9sMPP8l0qVn/KZHqBPDy5SuoXLkKyoetouw8P0gx8eeff95mfdbcuDo/NfG//42lvXv3SvXRpsW+U8vcjwbi6YZGOxgyIjTmlgeBQCAQCAQCgUAgEAgEAoFAIBCZL9Ib5y4McaG2IkWKOKSEIs+HS0XevHlLHaKrRtpSqUhWpUplKleuLK1evZqWL19OzZs3o7x5/dSxjmEu6cjBpZU5ATh16k/Up4+uytqCavXb2jRckjEhIflrLYXha80F54VKlixBp06d1g8LCwuTkpEVKpS3OV4bZhiaOnVqS4ldrol26tRpZqcxHJY0Lqmb2z3mJOUPP0yi0qVLG02XXpESWnLTNKwlNRk/hMC5Oa6ivFq1GlSzZm1pf7p3717Ur19fdaqUmThxgpRib9GipVRvzFVJ8zGcK1cudQpjU6b8JNu3YcNG8poaNWrRBx98RJGRjm/WNbXraenSpcrx3ibZZ+DEdqdOnZR5LJH+d94ZSZcvX6F69RpIcPvIhlU7Dxs2TB7oqFq1uoxnXEiWqxSvXbuusq/Wow0bNtDkyT8avS49pLoNYHd3D/rii89lo/GTLBp76rPm7PfcuXNpz5698mTMkCGDzdbfnhLcBnBG/EhAymzbslnaAD535rQ6JP1x8XluA7irhbrTAQAAAAAAAAAAACBzCQp8lK5tAHPBNW7Tl5N7nBDr1asPLVr0D9WoUUPau+Vk4LRpU/UlhXkaTu5wiUdzbaKa4qYvixUrSt9/P0n6P/74E6nW2VwbwJo//vhDGb9USkJyyUNuc9cRtPZQr19PqqbXELfH27p1W/r991lS+vf+/Qc0fPhr9ODBQ9q/f49Mw+3gchvBnAeyVJKZC/iFhITSpUuX6K23RtLChQvI19eX/Px8JUHIpSZ5vb/99psyPbeL/M8/i+jvv+dJCciffppC69dvoLVrV8t72Rpv6t1335f8FLelzLi92bfffof69++nLM8bMsx0Gs2XX34t653bduVl5H3gnXfepm7duqpTpL+IiHCbbQA7CldTzKV1nZ2dpFSqufWZWpzw7Nq1m3LMHKWcOXOqQ5PjEsC8zn19/VL8sIOtNoAzEhdE5Ic9fH19jEr928IPXsTGxsmDDpZKTGsc0QZwqhPAXBx/0qTv1CFJuM5wbgx648b1VK5cORnGCTl+quD333+jxo0byTAN17E/YMArtGbNaqpcuZI6NOU4AezmwB0WHGPLxg2SAD598oQ6JP1xteScAO7Ru7c6BAAAAAAAAAAAAAAyM77Hn54J4OrVq9POnbuknxNhXOKXS/OxoKAgGjXqY6m1lNv+DQ4OkSqf58z5Q9qKtScBfPnyZRoyZBhFRERIcofbAJ47dx7NmzfHYgKYm81s1Kgx5cmTm/bt2ytJU0fQEmTXrl1RhyT388+/Kp9vrrQH++RJFHXp0oX++usvZTl0CeCzZ8/RF198SdevX5d80JYtG2W4oY0bN9Enn4xW+5LMmfObJNYnTvxWSvTOn/+XDOcS0Z9//gVt3rxFSlpyIULOM1WrVtWu8abee+8DSe5+9dVYdYiueuN33nlPksBvvjnC7DSM2z0ODHwkzZguWrRYWdbvyMvLuI1nLrjYvXs3tc/xIiMjMiwB7Eh79uyhK1euSrXh3JbtlClTqWHDBjRu3NfqFI6XmRLAGSFTJoBZ3779JOs9deoU+cIaN248bdq0STloNykH1EMKDQ3TJ3u52HPr1m1o/fq1VLZsWRmWGvzj4OnlpfZBZrFx3VpJAJ88lvodNaXi4uMlAdyrX391CAAAAAAAAAAAAABkZvfu3EnXBDAncF9+uSdxVdBcSpXDVFpKKDIuGcgJUy5FzG3IPi1agiwg4LI6xDzO1XAtrUWLFnFY8tkeXAKZ21stXryY2ZpdbY3PLqKiIrNkAvjixYv0++9z6M6d25Q7dx5J/vLDEem5rZAATpl0SwBzUnfEiDekODMXI/f09JSnKLgqAa42YfDgofIEDH8JPnjwgIYOHUIjR76tvjp1OAGc00L94vD0rFuzWhLAxw4fUoekP645nxPAfV/hajsAAAAAAAAAAAAAILO7ffNmuieArZXgzU6SEsCX1CGQGXHtuVkxAfw0IAGcMqlOANvLUn3W3Bg6V7Hw5MkTaRydE8RpxQngPCmoaxsyxpqVKyQBfPjgAXVI+nN2dpEE8IBXB6tDAAAAAAAAAAAAACAzu3HtWrolgLma4latWlKbNq3VIdmbliC7evWiOgQyI86RIQFsHySAUybdE8AZiRPAXC0DZC4rly+l2nXrqX0ZhxPAg4YOU/sAAAAAAAAAAAAAIDMLuHIl3RLAzxotQXblygV1CGRG0dHRSADbyVICmLuzI/58SAAb4CQwZC47t29TuzJesxYt1S4AAAAAAAAAAAAAyMyQ/HUcLUF2+fJ5dQhkRjExMUgA28lcAlhbX9kVEsAAAAAAAAAAAAAAAAAgtATZpUvn1CGQGcXGxiIBbCdrCeC4uDh1quzD1dU1zQngpIZ5AQAAAAAAAAAAAAAAIMs7e/akJBgRmTdSihOfppERHj0KosjISLUvef/TlpCQkO3CEVACGAAAAAAAAAAAAAAAIBvJqOQgpE3r1u1lWxmWaDWXr9OmMcWv4XlYM2PGTH1pUk9PLypRojj16tWLSpUqKcNs6dOnL7Vs2ZKGDRtqtj8jaJ/fXAng6Ogn6lTZh4eHp+OqgOYVBQAAAAAAAAAAAAAAAAAZxzChaZoAtpT81dhKAr/22usUFBRMvXq9TNHR0bRp02Y6fPgw/fvvGvL3L6VOZVlmTwBHRWWe0siO4uWVw3EJYAAAAAAAAAAAAAAAAADIOFoi01wC2FbyV2MtCcwJ4Dx58tCkSd9JP1c/3bBhYxoyZDCNGPG6DLt37x7t2rVLGRdHDRrUlwSiJrMngCMjI9Spso8cOXI6LgFs+kQBOJafXz4KCgpU+wAAAAAAAAAAAAAAADIHwwQbZCzThGZ6J4BZ48ZNqWvXLvThhx9I4nf48NepSZPGknjcvHkTjRkzhvr16yvTZvYEcHj4Y3Wq1Jk2bRodPnxE7dPJm9ePfvzxR7Uv4+XKlTvNCWBntRsAAAAAAAAAAAAAAAAAspmQkBA6e/YcHT9+nMaNG0+PHj2iDh06UHx8PP3vf1/QG2+MoN9+m01Tp06mCRMmKDFRmSZIfXXmlpiYkKbgdRIcHEytW7fSByfDzU2bUeEISAADAAAAAAAAAAAAAAAAZFN79+6jIUOG0oABA2nOnDn07bcTqVKlinTjxg0lbkr7wJrOnV+Sv5wYzQoSEhLSFImJRKVLl6a+ffvoo3PnzkbT3Llzh/75ZyH9+edfdPHiJaNxXHr49u3bdOnSZRl/8uRJGc5J5ZUrV9Eff8yhTZs2UWRkpP41PG758hX0119/66c3DEdAAhgAAAAAAAAAAAAAAAAgm/o/e/cBZ1dZ5w38fych9BIgCVVKBCmCKB1Ruq8gRZBQXGwgIoq6LmtdC6uIXdBdd9eGBXBZpIOAGAugIi0goghKb6Ekoffkvvc599zkZrg3mUnuTOY5+X59H+e0W86ZH/Px3R/nOW96015x5ZW/jz/96fr48If/Of793z8XDz/8cFFEJiutNLb4mdRqtRg7dmxMn57HdOCzZtUXakQ0R6d9afz2t5fF61+/c/ziF5fGH/94VeNa7l0Ut639n/3sZ+OjH/14vPvdR8ZVV10d//jHbXHddVOK1/zwhz+Kv/3tlvj+938Q//M/3y2Ov+GGP8VOO+0SZ555VrH8znceHl/5yldnv18avaAABgAAAAAAgBEmPdc3Pet2Xub1/N/++vr64v3vf1+87GVrx4knnhRrrrlmsf3uu+8qfibPPPNMUQ6vsUZz30jXaQrlwY2Iyy+/Ig477G2zxwUXXFDse/HFF+Izn/lMMUX29773nfjmN0+ME074QjFF9iOPPDL79Q888EBceOH5cdJJ3yjK9o9+9GPx5jfvF2eeeUZ84Qufj9NOOzWOPvqomDVrZnz84x+Po456T/z4xz+ML33phDjnnLPiRz/6cfztb38r388dwAAAAAAAAFBZ8yqBB1P+tqQ7fD/0oQ/FWWedHS+88EJst9228Y1vnFgsJ1//+okxfvz42GqrrYr1ka7/9MmDHenu33XWWScOOGD/2WODDTYo9t15553FFNkHHviW2cfvs8/exedef/315esj9t77TTFmzJhi/Z577onbbrst3vWud81+TRqpfL/33nuLO4InTJgQl112Wfz2t7+NW265JVZbbbW47rrrZh/bC7UzzjilPmnSYcUvHADmZ/r0R8olAAAAAKAKJk++OFJXNGPGgk37m8rD97736HKts89//nNxzjnnxpQpU4r1pZZaurgT9eCDD451112n2JZ8+9v/FUsvvXQcfvi7yi0RTzzxRPz4xz8p7tScNm1ajBu3amyyySbxT//01pg4cWJ51MCOS+/f+g7tDj300Nh9993m2t/pO9br9WL63gsuuLC483P99deLf/3XY4vScEG0rn0qc+f1O0jH9TeQ8veoo94bK6ywQnz1q18ptzS9+c37x8Ybb9L4vR0VRx/9vqKcTCXmUkstFd/61knxmte8pjju0EPfGrvuumsceeS7O64Ph/Z89r9eDz88tTxqwRx99DGN67N8fPnLXyy3zJFK3oMPfmvcdNOfimvTsvPOu8Uxx7yvKIYPOODAOOigSXHIIQcX+9Kzkw866ND4859viCWXXLLY1pKeF/zWtx5WlMj9a9k993xj7LbbbsXyuHGrdczoQKWsz1UA+z/qD52VV17V9QWy528ZAAAAAFTPwhbAM2fOjP/7vzPKtYjzzjuv8V6Pxjvf+Y5yS/M5tGlq3OnTZ8TBBx8Uzz33XFx66S/j2muvjQsvvCDWW2/d4rj+hWWajviggw6OUaNGxxFHHB7rr79+MU1xuoPyvPPOjylTrh3Ucen9H374kaK8a7fllq+JV7ziFcX+eX3Hp59+Og477O3xjne8PdZcc4347//+n7j55r/F7353eXGX52ANtAAeaqkAfuGFF2OddV62QOcxlOZVAD/44APlUQvm/e8/JpZffoViOub+Hnzwodhpp52L6Z1f/vKXF9tSprbZZrv47ne/E9tvv1285S2TGt/jwNkFcJoaescdXx9nn31WbLLJxsW2lnSNd9/9DXHBBefN818YmDBh9YUugE0BDQAAAAAAwAIbNWpUvPWth84eqdxaY4015tq24oorFsemO2lT+Zruyv3+979b3O17ySWXFPs6+exn/70odS+66MI49NBDYtttt4mdd96psf0zce6555RHDfy4ZOLE9ef6bmmk8rdlXt9xmWWWibPPPjP222/fYprk97znPTF16tR49NFHi/25WmuttYqCe6SVv/PTPs3ygoz0DN80DXSnfekO8m222TpOOumb8dxzzxfb0nKaIvvVr96iWC9e3XiT1mtWXnnl2GWXXeLLX/5yPPbYY8W29C8NpOmk0z8T22+/fXzhC1+MGTNmzH7N9dffEA899NDs9V5QAAMAAAAAADDsllhiiWKa3KeeeqrcMrcnn3wyfvnLXxbTFLdPwduSpmdOBnrcgpjXd0xl3Y9+9KN49atfXRR/DL96PZW4Cz5S+ZsK3E770vjc544rngP82te+tjFeV9wR/pWvfKmRi9HF/vT65nvMec1xx30mfbXiTuD/9//eWPy88sori31f/eqXGnkaEzvttEtj356x7bbbxyc+8cmiJG69vhdMAT1M0rSpAAAAAAAAI0F7J7SwU0D396lPfTruvfe++NGPTi63NKXplVNp+uEPfzief/65uPDCi+LUU0+Nc845OzbeeKPZx7SmgL7xxj8Xz6o999yzY/PNNy/2p+mm28vYZZddNv7yl78O6Lh0p3J6/xtu+FNsuOHcU/B++tOfamzbcEDfseVjH/t4XHfdlDj99J/GqqsuWA80UqaAHsnmNQX0vffeVR41tO6///7iWddrr732gO+STs+hfvzxx4s7hlP+2qW7g9P+lVYaGyuvPLbc2rTWWut4BnAuWgWwawzkzDOAAQAAACB//f/vfMNZAF9xxe+K6aDTXbvprsdvfOPrxXTKLe0F8PXXX188Y/UXv7h49jNTb7jhhjjggAOL5SRNx5zu4BzIcVtssUXx/q1n/LbbeeedY9VVVxnQd0z+8Icr493vPjJ+85tfxYQJE8qtg6cAnr95FcD33HNneVR1rL32ugrgXLgDGAAAAAAAGCkWVQHcKnfTXbb/9V//HSef/MOiuB03btxLjknP1t1hhx3j+9//Xuy66y7F/uTFF18snrm7zTbbFcXuaqutNqDjWgVw6/07Gch3TE477afx4x//JC69tPvziwdCATx/8yqA77rr9vKo6lhnnfUVwLlw1xxQBf6WAQAAAED1LIoCOEl37u6//wGxySabxAknfKHY1v+YN71p71hnnXXiv/7r28V6y/Tp02OrrbaZXewO9LjBFMBJp++Y/OMf/2iM2+KNb/x/5ZYFowCev3kVwHfe+Y/yqOpYd92XL3QBPLBJqgEAAAAAAKCH0s2JH/rQh+Kss86Oe++9t9w6t0996lMxefKv4vjjT4hp06aXWyNuvvnmcqlpoMclzzzzbHF3cft44oknyr1z6/Yd7777nrjmmmvKNRaVdJd21UYvKIABAAAAAABYJHbZZefYeOON4tvf/u9yy9y23367+MlPfhxXX31VbL31NvHqV28Zm2zyyvjwh4+ND3zgmOLO3MEcl1x00UXFlNHt46STvlnufalO3/G2226LX//61+Xa0Et3vvYfpAK4XrnRC3NNAQ0A82MKaAAAAACollQm5jD9cJrOedq0abHsssvGGmusUW59qYEeNxK0rv28poBuHdNfes3uu+9ZrnX2zDPPxPe+9/24/PIriuchr7rqKvGqV70qPvShD8YyyywTv//9HxrXaPVYb731yleMPO35bL9em266eXlEtWyyyea9ewawOcWHludmAgAAAAAAI1EuBXAVza8A7lb+tsyvBE7PNL799jviX/7ln2P11VcvprH+xS9+GZ/61CdjwoQJjfc+OPbc841x+OHvKl8x8nQqgFvLVZTOTwGcCQUwAAAAAAAwErWXagyv1rXvVAC39s1PtxL4qaeeis033yJ+9KOT43Wve125dY6//e1v8aEPfTi23nqreMMb9ogllhhTTKWdpOciX3755fHCCy/GdtttW5SKLddff32sttpq8fjjj8fVV18T48aNa3z+bjF69OjyiN7qX/pWPatjx66y0AWwZwADAAAAAABAxaRCtq+vL/7yl7+WW+Z2zTXXFlNl/+lPf4ozzzw7fv7znxfbU/G78867xqWX/jKuuurq2HvvfeK0035a7EuOO+7f46Mf/VhRHt98881xwglfjHe96/CYNWtWeQSLmgIYAAAAAAAAKmbJJZeMD37wA/HVr34tdtll1/jYxz4eF17483j22WeL/W9722HFs3/333//+Na3Torjj/98zJw5Mz7zmc/G+953dHz/+98rtn/xi19sjC/FtGnTi9cl999/f5x33jlxwglfiPPPP7comS+66KJyb/Wla/H000+XayOPAhgAAAAAAAAq6AMfOCZ+/vMLipJ36tQH41//9SOx115viocffrg8Ym533313Y9wTBx98ULklYr/99i1+3nDDDcXPZO+99y4K5mSllVYqpoD+wx+uLNaHy7e//V9x8sk/LNeG1zHHHDPXXdHdpO94xBHvLsYxx3ywKOPvu+++cu/QUQADAAAAAABARW200UbFncA//vEP4ze/+VU8+eRT8b3vfb/cO7cZM2YUP1daaWzxM6nVajF27NiYPn3Oc3dT6dsurbdeO1xuvPHGYgrqkSx9x8cffyL23HPP4lnK1113Xey1197FHdRDqXbGGafUy2UAAAAAAABgGE2adFj87GenFj9nzJhTsiaTJ19cbO8mvW733fcs1wbm8MOPiOWXXz6++c2T4pBDDo03vGGPxrbDi30PPvhgbL/9a+MXv7g4Nthgg2LbM888E69+9Zbxgx98P1772h1iv/3eHK95zWvis5/9TLE/Ofro98Uaa6wRn/70p8otvdO6BunatC8fddR7Y4UVVoivfvUr5ZFze+yxx+K3v70snnrqqdh8883jla/ctNh+++23FyX45ptvVqy3XHvttcU5pJF0e31y6KFvjV133TWOPPLd5ZbO+n/H5557Lrbddvtiiu33vOfIYtvUqVOL5y6/8MKLRUm81VbbxJQpU4p9C2LixIlRqzeU6wAAAAAAAMAw61YAJ91K4PmVv0888UT8z/98J9761kNjzTXXLLZdffU1RQH8sY99tHgG8Ac/+KFiKuf0LN8llliiOOatb/2nWHHFFeNb3/pmse3440+ISy+9NH75y0sbx44pCuA0TfRZZ/0s1l9//WJq6IMPPjT+7//+N7bYYoviPXppQQrgdOftO995eLzyla+M1VdfPX7zm9/EQQdNin/912PjF7+4ND7+8U/EH/94ZXE+ySOPPBI77LBjnHvuObHJJhvP8/XJghbAyU477RL77rtPHHvsvxTF73ve897YccfXxjLLLFtc4zRV90IXwNOnP6IABgAAAAAAgEWkvdjsJO3vb353/qY7d9/97iPj2muvK0reUaNGxbPPPhv/9E9vjU9+8hPR19cXf/7zTfHRj34s7rjjjqKovPrqP8Zdd91d3NF77733xpgxY2KppZaKb33rpOKu3yQVwK961avisssuL9bTHazpjtYPfeiDxXqvDbYATve+vulN+8Sb37zf7Lts05TLb3jDG2eX1uku589//t+LqZmT73//B3HOOefEz39+4Xxf/4pXvGKBCuDnn3+++IxPfOLf4kc/Ojle+9rXxm677R4HHHBAMUV3cu6558W73nV4b+4ATnN3L4x0IRb2PZKR9D7OqTvXpjvn1J1r051z6s616ayK55S4Np05p+5cm+6cU3euTXfOqTvXprMqnlPi2nTmnLpzbbpzTt25Nt05p+5cm86qeE6Ja9NZFc8pSe8zrzuAF9Zzzz1flLR9fbWYMGFCUeoORCqA07TE66zzsqIsbkkF8MEHH1zcEXv33XcXzwdOY6gMtgBO3/v1r985TjrpxFhppRWL69v4f3H88V+II444PA499JD43Oc+X3z373//e8Vr9tzzTY33PTAOP/xdA3r9YArgyZN/VVy/WbNmFdfpve89Kt797iOK0n233faIK6/8ffF7SdJnrbzyqgtdAPf1Ipi9eI9kJL2Pc+rOtenOOXXn2nTnnLpzbTqr4jklrk1nzqk716Y759Sda9Odc+rOtemsiueUuDadOafuXJvunFN3rk13zqk716azKp5T4tp0VsVzSnr1Pt2kaY5Tibv22msPuPxN1lprrVhvvXXnKn/bjR49uribdijL3wXxwANTi5+//vWv45xzzi3uqj3vvPNis81eGauuumqx7y1veUtcfvkVxdTPN930l+K5wPvtt1+xbyCvH4y99tqrKHlvuGFKXHvt1UX5m8yYMaP4udJKc65fr7LQ+TcGAAAAAAAA0M/GG28S48aNK9dGntVWa95Nm6alPvHEb8w19thj92LfpptuEhts8PI4//zz4+yzz46dd94pVlll5WLfQF4/GEsttWRRHC+//PLllqbWc5nvvvuu4meSpu3uBQUwAAAAAAAAMCBf+tIJC1SEDoVnnnm2mN66fYwfP754vu7nP398PProo+WRETfccENxx2/LW95yQJxxxplx/vkXFHcEt6Q7pQfy+oWVpn3ebrtt4xvfODFeeOGFYtvXv35i8XNhKYABAAAAAACA7Fx00UWxww47zjV++cvJ8c1vnhhLLrlkbL/9DrHLLrvGFlu8Jo499iPx9NNz7rBNzzJOz+FNsy7vssvO5damgby+F774xS/GXXfdHVtuuXVstdU2cckll5R7Fk6aSLreXAQAAAAAAACG2xlnnFIu0cmkSYfFjBnTYvLki2cvD0S6gzfdtTt27Mqzp3gejIV9/UDde++98cILLxbPal5llXExZcqUcs/gTZw4UQEMAAAAAAAAi1K9rq6bnwUpgHM0duwqCmAAAAAAAADI2fTpvXu2bJUpgOcvFcCeAQwAAAAAAABQEX1uKSd3MkzuZJjcyTC5k2FyJ8PkTobJnQyTOxkmdzJMFYyEHE+bNj2efvrpcm3h9PK9WDCmgAYAAAAAAIBFqNMU0F/5yldj9dVXj7e97bByyxznnXd+/PGPV8UXv/iFcsvA/f73f4g11lg91ltvvXJLxKGHvjV23XXXOPLId5dbFlwv36u/BZkC+uEHHyqXBm7chPHlUu+cefrp5dK8HXn0+00BDQAAAAAAAFUzbty4+I//+M948cUXyy1z/Pd//0+suOIK5drgnHTSN+M3v/ltudZ0xBFHxI477liuVUcqf2fMmB6PP/5YPPXkk/HsM8/E888/HzNnziz2jxo1KpYYMyaWWnrpWHa55WKFFVeMsWNXXqDSeCBSuTu/0QsKYAAAAAAAABhh3vzm/eLxxx+Pyy+/otzSdOONN8att94aBx00qVh/7LHHijuCf/rT/42bbvpLsa3l+uuvjwceeCBuv/32OO20n8aZZ55VvGdav/zyy+PKK/9YHDdu3Kqx/PLLFcst6X0vuODC+PGPfxKTJ/8qnn322WL7c889V7z21FNPK/Y/8shL716mu6kP3B/33XtP3H3XnXHH7bfFbX+/NW79281x819uiptu/FN51MJRAAMAAAAAAMAIM3bs2Nhtt92K0rZdWn/1q18d66+/flEG77LLbnHWWWfHn/50Yxx++BHxta99vTwy4rjj/j0+/vFPxpFHHhVXX311nH76/8W0adMax/6p8T5nx89//vPiuC996ctx8cWXFMtJKo533nnX+NGPfhy33HJLnHzyyfHd736v2PeRj3w0vvOd78bNN98c55xzTuy++xsWaspiek8BDAAAAAAAACPQpEkHxq9//euYMWNGsf7cc88Xd92m7fV6vSh33/veo+InP/lRfPnLX4xzzz17dmnbku4A/vnPL4hvfvOkOPPMM4pn/+6///7xrW+dFMcf//nyqDlmzZoVH/3oxxvHvDnOOutnccIJX4if/vS0eN/7ji72f+1rX43TTjs1vvCF4+Pkk38Q7373EXHiiScV+xgZFMAAAAAAAAAwAr3udTsWdwKff/4Fxfrkyb8spmDee+83xX333Rd/+9vfYrXVViumZL7sssvi1lv/XqxPmXJ9cXyyzz57x1JLLVWuzd+9994Xt912WxxxxOHllqbRo0cXP2u1WlFCf+UrX41PferTccMNN8Qtt9xa7GNkUAADAAAAAADAIjR58sVzjZZRo0bFAQfsH2ed1ZwGOk3bvNdee8Zyyy0XDzwwtdiW7hA+55xz49xzz4vzzjsvNtvslbHqqqsW+5JVVlmlXBqYadOaz/Rtf49273znu+InPzklJkyYENtss01svPHG8dRTT5V7X6r/uS3IGDt2cOewuFMAAwAAAAAAwCI2adJhs0e7Aw88MG666S/FXb6/+93vivVktdUmFD/T1MwnnviNucYee+xe7Otk1KhUD9abKx2svfbaxc9//OO24me7e+65J6688o/xve99J97xjrfHvvvuE6uvvnq5t7P281qQweD1pfnBIWcyTO5kmNzJMLmTYXInw+ROhsmdDJM7GSZ3MkwVtOd4xoxpxWi33nrrxlZbbRXHHvuvseaaa8S2225TbE9F7Wtf+9r4/OePj0cffbTYlqQpmR95pHkXbyfjx4+Pm2/+W7zwwgvllrmlO3933323OOGEE+Lxxx8vtj377LNx5513xdJLL11MAZ2mmk6mTp0aP/jBD4rlblrntKCDwetLvyTImQyTOxkmdzJM7mSY3MkwuZNhcifD5E6GyZ0MUwUDyfGkSQfGtGnTi7t/24//5jdPjCWXXDK2336H2GWXXWOLLV4Txx77kXj66WfKI17qyCOPLO4o3myzV8U222xXbp3bCSd8ofictH/nnXeJrbbaJv7whz8U5fAHPnBMvP3t74jddts99t//LbHPPvuUr2KkSAnxr8cAAAAAAADAInLGGacU0x0v6B2v6Q7gdNfv2LErxyqrrFxuXXjpPR977LHieb/pucMt6fOmT58ea621VowZM6bcOjTSM4Bb16Z9eSAefvChxrHTi2cpj+prjMbPvrTcNvqvp+PSa8ZNGF++S2+cefrpceTR74+pD9wfM2fOnD1mtS2n8crNXxVTpkwpXzV4EydO9AxgAAAAAAAAyNlKK60UL3/5y3ta/ibpjt9UKLaXv0n6vPXXX3/Iy18WjAIYAAAAAAAAoCIUwAAAAAAAAAAVoQAGAAAAAAAAqAgFMAAAAAAAAEBFKIABAAAAAACgoqZNmx5PP/10ucbioK9er5eLkCcZJncyTO5kmNzJMLmTYXInw+ROhsmdDJM7GaYK5pXjJ554Iv7zP78dBx10SOy22x5xyCGHxuc+9/m47bbbyiPm75hjjonTTvtpubbwvv3t/4ojjnh3MY455oPx1a9+Le67775yLyNBX61WKxchTzJM7mSY3MkwuZNhcifD5E6GyZ0MkzsZJncyTBV0y/HDDz8c++67X5x77nmx//5vjhNO+EK8973vLQrjSZMOLo+avyOOOCJ23HHHcm3h3XjjjfH440/EnnvuGdttt21cd911sddee8f9999fHsGiZgpoAAAAAAAAGGE++9l/j1GjRsdFF10Yhx56SGy77Tax8847NbZ/Js4995zyqIjnnnsuLr/88jj11NPiggsujEceeaTc0zRu3Kqx/PLLlWsR119/fTzwwANxxx13FK/5xS8ujRdffLHcOzDrrrtOHHjgW+Kww/4pfvzjHxUl9oUX/rzcGzF16tQ444wzijuP+9+tnD7r17/+TfzkJ6fEmWeeNai7mRkYBTAAAAAAAACMIE8++WT88pe/jPe+96gYM2ZMuXWOl71s7XIp4iMf+Wh85zvfjZtvvjnOOeec2H33N8SUKVPKvRFf+tKX4+KLLynXIo477t/j3/7tU/H+938g/vSnP8XnP39843OOLvcO3pJLLhkrrrhiMV11ksronXfeNS699Jdx1VVXx9577zN7CuqZM2cW01mfeOKJcfvtt8cVV1wR//Ivxxb76B0FMAAAAAAAAIwgt99+R1GWbrjhBuWWZnn6+OOPzx5pPfna174ap512anzhC8fHySf/IN797iPixBNPKvZ1M336jDjvvHPiq1/9Spx++k/jN7/5bVHIDtbzzz8f//d//xf33HNPbL31VsV3+sxnPhvve9/R8f3vfy++9a2T4otf/GJjfCmmTZte3HV80003xVlnnRnHHffZ+OY3T5rrbmZ6QwEMAAAAAAAAI8jMmc0pmZdeeuniZ/LnP/85ttjiNbNHWk/S9Mtp6uevfOWr8alPfTpuuOGGuOWWW4t93ey55xtjiSWWKJbXWmutWHnlsUWJO1Bnn31ObLDBK2LjjTeNr3716/HJT34iXv/618fdd9/dGPfEwQcfVB4Zsd9++xY/0/caN25cccfwZz5zXPz+978vpq/2LO/eUwADAAAAAADACLL66qsXP++5597iZ7LFFlvErbf+La6++o/llqZ3vvNdxfN0J0yYENtss01svPHG8dRTT5V7O1t++eXLpabRo5eI5557vlybv7322iuuvPL3ccMNU+Laa68u7jpOZsyYUfxcaaWxxc8kFbxjx46N6dOnFVNFn3HG/0W9Pis++tGPx6tfvWV8/evfKI+kVxTAAAAAAAAAMIKsttpqsfHGG8WZZ55ZbmkaPXp09PXNqffSXbtXXvnH+N73vhPveMfbY99995ldHg+lpZZaMlZdddWXFMlrrrlm8fPuu+8qfibPPPNMPPzww7HGGs196by+/OUvxe9/f0UxTfR//dd/x1//enOxj95QAAMAAAAAAMAI86lPfSomT/5VHH/8CcXzc1tuvnlOWZqmiE532N5669+L9alTp8YPfvCDYnlRSHchb7fdtvGNb5wYL7zwQrHt618/McaPHx9bbbVV3HfffXOVvakwToX2mDHN6ajpjb56vV4uQp5kmNzJMLmTYXInw+ROhsmdDJM7GSZ3MkzuZJgq6Jbj7bffLn7ykx/H1VdfFVtvvU0xXfImm7wyPvzhY+MDHzimsbxJcRduWn77298Ru+22e+y//1tin332Kd9h0fjiF78Yd911d2y55dax1VbbxCWXXBInnfSNWHLJMcWdwIcd9rZi++67v6HxXfctvv/LX/7y8tX0Qnqqsr+OAAAAAAAAsIicccYpMWnSYTFjxrRyy9ymT58e06ZNi2WXXTbWWGONcuscjz76aHHMWmutFWPGjCm3Llr33ntvvPDCi7HOOi+ba9rqWbNmFXcqP/vss8W5LLXUUuWeziZPvnj2tWlfHoiHH3yocez0GDVqVIzqa4zGz7603Db6r6fj0mvGTRhfvktvnHn66XHk0e+PqQ/cHzNnzpw9ZrUtp/HKzV8VU6ZMKV81eBMnTjQFNAAAAAAAAIxkK6+8cmywwQYdy99kpZVWivXXX3/ElL9JKqPXW2/ducrfJK2n80jfd37lLwtGAQwAAAAAAAAwxKZce03cf9998eDUqfHIww/HjOnT47HHHosnn3wynnnmmXj++efLIxeOAhgAAAAAAABgiF13zdXzHb2gAAYAAAAAAAAYQjvtsmvsuPNOsdNuu8aub9gj9thzz3jj3nvHm/bbL/Y94IDYf9KkOPCQQ8qjF44CGAAAAAAAADLy8IMPDXoMlU6fNb/B0FIAAwAAAAAAQCZSgTpjxvR4/PHH4qknn4xny2fHzpw5s9g/atSoWGLMmFhq6aVj2eWWixVWXDHGjl15SIrXkfRdmEMBDAAAAAAAAFARffV6vVyEPMkwuZNhcifD5E6GyZ0MkzsZJncyTO5kmNzJMFUgx/RaX61WKxchTzJM7mSY3MkwuZNhcifD5E6GyZ0MkzsZJncyTBXIMb1mCmgAAAAAAACAilAAAwAAAAAAAFSEAhgAAAAAAACgIhTAAAAAAAAAABWhAAYAAAAAAACoCAUwAAAAAAAAQEUogAEAAAAAAAAqoq9er5eLkCcZJncyTO5kmNzJMLmTYXInw+ROhsmdDJM7GaYK5Jhe66vVauUi5EmGyZ0MkzsZJncyTO5kmNzJMLmTYXInw+ROhqkCOabXTAENAAAAAAAAUBEKYAAAAAAAAICKUAADAAAAAAAAVIQCGAAAAAAAAKAiFMAAAAAAAAAAFaEABgAAAAAAAKgIBTAAAAAAAABARfTV6/VyEfIkw+ROhsmdDJM7GSZ3MkzuZJjcyTC5k2FyJ8NUgRzTa321Wq1chDzJMLmTYXInw+ROhsmdDJM7GSZ3MkzuZJjcyTBVIMf0mimgAQAAAAAAACpCAQwAAAAAAABQEQpgAAAAAAAAgIpQAAMAAAAAAABUhAIYAAAAAAAAoCIUwAAAAAAAAAAVoQAGAAAAAAAAqIi+er1eLkKeZJjcyTC5k2FyJ8PkTobJnQyTOxkmdzJM7mSYKpBjeq2vVquVi5AnGSZ3MkzuZJjcyTC5k2FyJ8PkTobJnQyTOxmmCuSYXjMFNAAAAAAAAEBFKIABAAAAAAAAKkIBDAAAAAAAAFARCmAAAAAAAACAilAAAwAAAAAAAFSEAhgAAAAAAACgIhTAAAAAAAAAABXRV6/Xy0XIkwyTOxkmdzJM7mSY3MkwuZNhcifD5E6GyZ0MUwVyTK/11Wq1chHyJMPkTobJnQyTOxkmdzJM7mSY3MkwuZNhcifDVIEc02umgAYAAAAAAACoCAUwAAAAAAAAQEUogAEAAAAAAAAqQgEMAAAAAAAAUBEKYAAAAAAAAICKUAADAAAAAAAAVIQCGAAAAAAAAKAi+ur1erm44HrxHslIeh/n1J1r051z6s616c45defadFbFc0pcm86cU3euTXfOqTvXpjvn1J1r01kVzylxbTpzTt25Nt05p+5cm+6cU3euTWdVPKfEtemsiueU9Op9oKWvVquViwuuF++RjKT3cU7duTbdOafuXJvunFN3rk1nVTynxLXpzDl159p055y6c226c07duTadVfGcEtemM+fUnWvTnXPqzrXpzjl159p0VsVzSlybzqp4Tkmv3gdaTAENAAAAAAAAUBEKYAAAAAAAAICKUAADAAAAAAAAVIQCGAAAAAAAAKAiFMAAAAAAAAAAFaEABgAAAAAAAKgIBTAAAAAAAABARfTV6/VyEfIkw+ROhsmdDJM7GSZ3MkzuZJjcyTC5k2FyJ8NUgRzTa321Wq1chDzJMLmTYXInw+ROhsmdDJM7GSZ3MkzuZJjcyTBVIMf0mimgAQAAAAAAACpCAQwAAAAAAABQEQpgAAAAAAAAgIpQAAMAAAAAAABUhAIYAAAAAAAAoCIUwAAAAAAAAAAVoQAGAAAAAAAAqIi+er1eLkKeZJjcyTC5k2FyJ8PkTobJnQyTOxkmdzJM7mSYKpBjeq2vVquVi5AnGSZ3MkzuZJjcyTC5k2FyJ8PkTobJnQyTOxmmCuSYXjMFNAAAAAAAAEBFKIABAAAAAAAAKkIBDAAAAAAAAFARCmAAAAAAAACAilAAAwAAAAAAAFSEAhgAAAAAAACgIhTAAAAAAAAAABXRV6/Xy0XIkwyTOxkmdzJM7mSY3MkwuZNhcifD5E6GyZ0MUwVyTK/11Wq1chHyJMPkTobJnQyTOxkmdzJM7mSY3MkwuZNhcifDVIEc02umgAYAAAAAAACoCAUwAAAAAAAAQEUogAEAAAAAAAAqQgEMAAAAAAAAUBEKYAAAAAAAAICKUAADAAAAAAAAVIQCGAAAAAAAAKAi+ur1erkIeZJhcifD5E6GyZ0MkzsZJncyTO5kmNzJMLmTYapAjum1vlqtVi5CnmSY3MkwuZNhcifD5E6GyZ0MkzsZJncyTO5kmCqQY3rNFNAAAAAAAAAAFaEABgAAAAAAAKgIBTAAAAAAAABARSiAAQAAAAAAACpCAQwAAAAAAABQEQpgAAAAAAAAgIpQAAMAAAAAAABURF+9Xi8XIU8yTO5kmNzJMLmTYXInw+ROhsmdDJM7GSZ3MkwVyDG91ler1cpFyJMMkzsZJncyTO5kmNzJMLmTYXInw+ROhsmdDFMFckyvmQIaAAAAAAAAoCIUwAAAAAAAAAAVoQAGAAAAAAAAqAgFMAAAAAAAAEBFKIABAAAAAAAAKkIBDAAAAAAAAFARCmAAAAAAAACAiuir1+vlIuRJhsmdDJM7GSZ3MkzuZJjcyTC5k2FyJ8PkToapAjmm1/pqtVq5CHmSYXInw+ROhsmdDJM7GSZ3MkzuZJjcyTC5k2GqQI7pNVNAAwAAAAAAAFSEAhgAAAAAAACgIhTAAAAAAAAAABWhAAYAAAAAAACoCAUwAAAAAAAAQEUogAEAAAAAAAAqQgEMAAAAAAAAUBF99Xq9XIQ8yTC5k2FyJ8PkTobJnQyTOxkmdzJM7mSY3MkwVSDH9FpfrVYrFyFPMkzuZJjcyTC5k2FyJ8PkTobJnQyTOxkmdzJMFcgxvWYKaAAAAAAAAICKUAADAAAAAAAAVIQCGAAAAAAAAKAiFMAAAAAAAAAAFaEABgAAAAAAAKgIBTAAAAAAAABARSiAAQAAAAAAACqir16vl4uQJxkmdzJM7mSY3MkwuZNhcifD5E6GyZ0MkzsZpgrkmF7rq9Vq5SLkSYbJnQyTOxkmdzJM7mSY3MkwuZNhcifD5E6GqQI5ptdMAQ0AAAAAAABQEQpgAAAAAAAAgIpQAAMAAAAAAABUhAIYAAAAAAAAoCIUwAAAAAAAAAAVoQAGAAAAAAAAqAgFMAAAAAAAAEBF9NXr9XIR8iTD5E6GyZ0MkzsZJncyTO5kmNzJMLmTYXInw1SBHNNrfbVarVyEPMkwuZNhcifD5E6GyZ0MkzsZJncyTO5kmNzJMFUgx/SaKaABAAAAAAAAKkIBDAAAAAAAAFARCmAAAAAAAACAilAAAwAAAAAAAFSEAhgAAAAAAACgIhTAAAAAAAAAABWhAAYAAAAAAACoiL56vV4uLrhevEcykt7HOXXn2nTnnLpzbbpzTt25Np1V8ZwS16Yz59Sda9Odc+rOtenOOXXn2nRWxXNKXJvOnFN3rk13zqk716Y759Sda9NZFc8pcW06q+I5Jb16H2jpq9Vq5eKC68V7JCPpfZxTd65Nd86pO9emO+fUnWvTWRXPKXFtOnNO3bk23Tmn7lyb7pxTd65NZ1U8p8S16cw5defadOecunNtunNO3bk2nVXxnBLXprMqnlPSq/eBFlNAAwAAAAAAAFSEAhgAAAAAAACgIhTAAAAAAAAAABWhAAYAAAAAAACoCAUwAAAAAAAAQEUogAEAAAAAAAAqQgEMAAAAAAAAUBF99Xq9XIQ8yTC5k2FyJ8PkTobJnQyTOxkmdzJM7mSY3MkwVSDH9FpfrVYrFyFPMkzuZJjcyTC5k2FyJ8PkTobJnQyTOxkmdzJMFcgxvWYKaAAAAAAAAICKUAADAAAAAAAAVIQCGAAAAAAAAKAiFMAAAAAAAAAAFaEABgAAAAAAAKgIBTAAAAAAAABARSiAAQAAAAAAACqir16vl4uQJxkmdzJM7mSY3MkwuZNhcifD5E6GyZ0MkzsZpgrkmF7rq9Vq5SLkSYbJnQyTOxkmdzJM7mSY3MkwuZNhcifD5E6GqQI5ptdMAQ0AAAAAAABQEQpgAAAAAAAAgIpQAAMAAAAAAABUhAIYAAAAAAAAoCIUwAAAAAAAAAAVoQAGAAAAAAAAqAgFMAAAAAAAAEBF9NXr9XIR8iTD5E6GyZ0MkzsZJncyTO5kmNzJMLmTYXInw1SBHNNrfbVarVyEPMkwuZNhcifD5E6GyZ0MkzsZJncyTO5kmNzJMFUgx/SaKaABAAAAAAAAKkIBDAAAAAAAAFARCmAAAAAAAACAilAAAwAAAAAAAFSEAhgAAAAAAACgIhTAAAAAAAAAABWhAAYAAAAAAACoiL56vV4uQp5kmNzJMLmTYXInw+ROhsmdDJM7GSZ3MkzuZJgqkGN6ra9Wq5WLkCcZJncyTO5kmNzJMLmTYXInw+ROhsmdDJM7GaYK5JheMwU0AAAAAAAAQEUogAEAAAAAAAAqQgEMAAAAAAAAUBEKYAAAAAAAAICKUAADAAAAAAAAVIQCGAAAAAAAAKAiFMAAAAAAAAAAFaEABgAAAAAAAKiIvnq9Xi5CnmSY3MkwuZNhcifD5E6GyZ0MkzsZJncyTO5kmCqQY3qtr1arlYuQJxkmdzJM7mSY3MkwuZNhcifD5E6GyZ0MkzsZpgrkmF4zBTQAAAAAAABARSiAAQAAAAAAACpCAQwAAAAAAABQEQpgAAAAAAAAgIpQAAMAAAAAAABUhAIYAAAAAAAAoCIUwAAAAAAAAAAV0Vev18tFyJMMkzsZJncyTO5kmNzJMLmTYXInw+ROhsmdDFMFckyv9dVqtXIR8iTD5E6GyZ0MkzsZJncyTO5kmNzJMLmTYXInw1SBHNNrpoAGAAAAAAAAqAgFMAAAAAAAAEBFKIABAAAAAAAAKkIBDAAAAAAAAFARCmAAAAAAAACAilAAAwAAAAAAAFSEAhgAAAAAAACgIvrq9Xq5CHmSYXInw+ROhsmdDJM7GSZ3MkzuZJjcyTC5k2GqQI7ptb5arVYuQp5kmNzJMLmTYXInw+ROhsmdDJM7GSZ3MkzuZJgqkGN6zRTQAAAAAAAAABWhAAYAAAAAAACoCAUwAAAAAAAAQEUogAEAAAAAAAAqQgEMAAAAAAAAUBEKYAAAAAAAAICKUAADAAAAAAAAVERfvV4vFyFPMkzuZJjcyTC5k2FyJ8PkTobJnQyTOxkmdzJMFcgxvdZXq9XKRciTDJM7GSZ3MkzuZJjcyTC5k2FyJ8PkTobJnQxTBXJMr5kCGgAAAAAAAKAiFMAAAAAAAAAAFaEABgAAAAAAAKgIBTAAAAAAAABARSiAAQAAAAAAACpCAQwAAAAAAABQEQpgAAAAAAAAgIroq9fr5SLkSYbJnQyTOxkmdzJM7mSY3MkwuZNhcifD5E6GqQI5ptf6arVauQh5kmFyJ8PkTobJnQyTOxkmdzJM7mSY3MkwuZNhqkCO6TVTQAMAAAAAAABUhAIYAAAAAAAAoCIUwAAAAAAAAAAVoQAGAAAAAAAAqAgFMAAAAAAAAEBFKIABAAAAAAAAKkIBDAAAAAAAAFARffV6vVxccL14j2QkvY9z6s616c45defadOecunNtOqviOSWuTWfOqTvXpjvn1J1r051z6s616ayK55S4Np05p+5cm+6cU3euTXfOqTvXprMqnlPi2nRWxXNKevU+0NJXq9XKxQXXi/dIRtL7OKfuXJvunFN3rk13zqk716azKp5T4tp05py6c226c07duTbdOafuXJvOqnhOiWvTmXPqzrXpzjl159p055y6c206q+I5Ja5NZ1U8p6RX7wMtpoAGAAAAAAAAqAgFMAAAAAAAAEBFKIABAAAAAAAAKkIBDAAAAAAAAFARCmAAAAAAAACAilAAAwAAAAAAAFSEAhgAAAAAAACgIvrq9Xq5CHmSYXInw+ROhsmdDJM7GSZ3MkzuZJjcyTC5k2GqQI7ptb5arVYuQp5kmNzJMLmTYXInw+ROhsmdDJM7GSZ3MkzuZJgqkGN6zRTQAAAAAAAAABWhAAYAAAAAAACoCAUwAAAAAAAAQEUogAEAAAAAAAAqQgEMAAAAAAAAUBEKYAAAAAAAAICKUAADAAAAAAAAVERfvV4vFyFPMkzuZJjcyTC5k2FyJ8PkTobJnQyTOxkmdzJMFcgxvdZXq9XKRciTDJM7GSZ3MkzuZJjcyTC5k2FyJ8PkTobJnQxTBXJMr5kCGgAAAAAAAKAiFMAAAAAAAAAAFaEABgAAAAAAAKgIBTAAAAAAAABARSiAAQAAAAAAACpCAQwAAAAAAABQEQpgAAAAAAAAgIroq9fr5SLkSYbJnQyTOxkmdzJM7mSY3MkwuZNhcifD5E6GqQI5ptf6arVauQh5kmFyJ8PkTobJnQyTOxkmdzJM7mSY3MkwuZNhqkCO6TVTQAMAAAAAAABUhAIYAAAAAAAAoCIUwAAAAAAAAAAVoQAGAAAAAAAAqAgFMAAAAAAAAEBFKIABAAAAAAAAKkIBDAAAAAAAAFARffV6vVyEPMkwuZNhcifD5E6GyZ0MkzsZJncyTO5kmNzJMFUgx/RaX61WKxchTzJM7mSY3MkwuZNhcifD5E6GyZ0MkzsZJncyTBXIMb1mCmgAAAAAAACAilAAAwAAAAAAAFSEAhgAAAAAAACgIhTAAAAAAAAAABWhAAYAAAAAAACoCAUwAAAAAAAAQEUogAEAAAAAAAAqoq9er5eLkCcZJncyTO5kmNzJMLmTYXInw+ROhsmdDJM7GaYK5Jhe66vVauUi5EmGyZ0MkzsZJncyTO5kmNzJMLmTYXInw+ROhqkCOabXTAENAAAAAAAAUBEKYAAAAAAAAICKUAADAAAAAAAAVIQCGAAAAAAAAKAiFMAAAAAAAAAAFaEABgAAAAAAAKgIBTAAAAAAAABARfTV6/VyEfIkw+ROhsmdDJM7GSZ3MkzuZJjcyTC5k2FyJ8NUgRzTa321Wq1chDzJMLmTYXInw+ROhsmdDJM7GSZ3MkzuZJjcyTBVIMf0mimgAQAAAAAAACpCAQwAAAAAAABQEQpgAAAAAAAAgIpQAAMAAAAAAABUhAIYAAAAAAAAoCIUwAAAAAAAAAAVoQAGAAAAAAAAqIi+er1eLkKeZJjcyTC5k2FyJ8PkTobJnQyTOxkmdzJM7mSYKpBjeq2vVquVi5AnGSZ3MkzuZJjcyTC5k2FyJ8PkTobJnQyTOxmmCuSYXjMFNAAAAAAAAEBFKIABAAAAAAAAKkIBDAAAAAAAAFARCmAAAAAAAACAilAAAwAAAAAAAFSEAhgAAAAAAACgIhTAAAAAAAAAABXRV6/Xy0XIkwyTOxkmdzJM7mSY3MkwuZNhcifD5E6GyZ0MUwVyTK/11Wq1chHyJMPkTobJnQyTOxkmdzJM7mSY3MkwuZNhcifDVIEc02umgAYAAAAAAACoCAUwAAAAAAAAQEUogAEAAAAAAAAqQgEMAAAAAAAAUBEKYAAAAAAAAICKUAADAAAAAAAAVIQCGAAAAAAAAKAi+ur1erkIeZJhcifD5E6GyZ0MkzsZJncyTO5kmNzJMLmTYapAjum1vlqtVi5CnmSY3MkwuZNhcifD5E6GyZ0MkzsZJncyTO5kmCqQY3rNFNAAAAAAAAAAFaEABgAAAAAAAKgIBTAAAAAAAABARSiAAQAAAAAAACpCAQwAAAAAAABQEQpgAAAAAAAAGCbviWtfMqCXFMAAAAAAAAAwhNrL3u/GVi8Z0Et99Xq9XFxwvXiPZCS9j3PqzrXpzjl159p055y6c206q+I5Ja5NZ86pO9emO+fUnWvTnXPqzrXprIrnlLg2nTmn7lyb7pxTd65Nd86pO9emsyqeU+LadDbSz6m95O0/5lX29ur7QEutMaQKgAG79jvlApWy1VHlAlmq0j+Xi1sWR9rvrirXf7iuaw7XazgzNpKux1Cc96I+v6H6XY6E31uvz21RntNQ/zM33Oc2HH9DqnROVfw7MRL+RiS9PLcq/p5aqnpui+K8hvL3lCyq31UV8zcU51TFf5YW9Tm1VOXcUpnb8p7v9O7O3dvHnhKTJh0WM2ZMK7d09/CDDzWOmx6jRo2KUX2N0fjZl5bbRv/1dFx6zbgJ48t36Y3h+C6TJ188+9q0Lw/ESLtWM+sz2z5rdNvynDF27CoxZcqU8lWDN3HiRAUwACzu0v/4Hin/HwEWTFV+h4tjFkfSOVfp+g/HueRyvYbre46069Hr7zMSzm8ovsNI+b318nss6nMays9fFOc21J9ZpXNaFOfSX6+/w0g4p5ZefZcq/p5aqnpui+q8hvJzF+Xvaqg+u0rntCjPpaWK59SS27m1F73t2u/g7eV3OOMMBXA3CuDBSQXwPJ8BvNJyER88IOKUT0ac9bmIb7w/YodXljtLh+8VcdIxzfHlRsjT8Wv3ux7rTIh46+4Rnzu8edzyy5Q7Bmgg3+MT/xTxhg7/osX79ouYtHPE6FFzvme3sdrKc5/Pl94T8f43R6y+SvlmDb36HAAAAAAAABa99qmaW6N9yub2ATnoWgCPX6lZuL5yvYjvXhhx3I8ibroj4mvvjXjbG8qDGjZdt1no/mpKxDV/i9hw7YiffiriZW0l8G6vidjpVRGjG5+242YRY0aXOwZgoN9jq1e8tHhOXrl+xAZrRsyqR1xx45yx7FIRa6w697ann537fK67NeJVL4/430/PKW179TkAAAAAAAAMj04lb2soeqmargXwvx4c8czzEe87qVla/vn2iJMvivjy/0Z8YP+I9VYvD2y456GIC/4QceZlEf/8nxHPvRCx25blzoaTL4446usRp/6y3DAIg/ke8zJrVsRZl88ZdzwQ8eD0ubc9/nTz2Nb5/Oy3jc/4Znr4due7fjsZzOcAAAAAAADQO50K3jQ6lbytAVXTsQBeZqmInbdoFrYvziw3li64MmL6ExF7blNu6CcdnwrgpZcsNyyEhfkevZLO5YmnI5ZbutwAAAAAAADAiNFe9CZKXhZ3HQvgdSc0djT2/OO+ckObdIfrnVMj1l+j3NCwwrLNqZ83Wz/iXyZFjF0uYnLnZ2MPymC/R68tMTrizTs2p3C+/h/lRgAAAAAAAIZVe8nbKnpby8pemFvHAnj0qObPZ59v/uwvbU/laMs2G0WcdEzEtz8UcehuEZ8/JeLWe8udC2Gw36NX3rRdxNX/HfGH/4w4Zv/GuZ0ZceVfyp0AAAAAAAAMmfaid14lb/syMEdfPT3gtp+pM5o/11q1+bO/NRvbp04vVxomXxex18cidv7niP85P+IjB0esumK5cyEM5nukqZqXXKK53C5tS/sGI53Pno3z2eXDEbsfO/ezi3v5OfRGpwxDTmSY3MkwuZNhcifDAIuWv8PkTobJnQznrVPRm0Z70bs4lLxyTK/11Wq1cnGOh2ZE/P3eiH1fW25ok6Z5Xm/1iCtuLDe0mdXI58kXR9z7SMRR+5QbF8Jgvsf9jc9ca3xzuaWvcWqpJL734XLDAKUid9rjEU8+U25o08vPoTc6ZRhyIsPkTobJnQyTOxkGWLT8HSZ3MkzuZHjka5W67cut0anoTWNxI8f0WscpoJM07fHrN494+/+bM81yet7uZ98R8ce/Rvz+pua2/tK/pPDdCyL22SFijVWa29LdsePHRoxdvrme7g5O6wOZvnmg3+OiqyJ22SJi642a66mUfccbI5ZdKuI3NzS39cJwfQ4AAAAAAEBO+he87SVv0l7ytrYBvde1AL7q5ogPfzvizTtG/ObEiEu/GnHqv0Xc8I+Ij/xPs+jt5nd/bj4D+PC9mus7bRFx0ZcivvmB5vppn2qub7puc31eBvo9fj2lOf30N97XPO53/xFxwOsiPvad5p3EvTJcnwMAAAAAADASdSp60+hf8Cp5YdHoWgAn6e7aAz4d8ZbPRBz1jYjd/iXi+FMinnmuPKDh2P+KOO5H5Uqbt5/QPDa59JqIrY566Ugl7kAM5HskP/5FxE4fivinL0Ts88nm+MNfyp39nHBaxAe+Va606XY+7XrxOQAAAAAAACNVp4K3NRJlL4xc8yyAWx6cEXHHAy8tXIfbQL5Heg5xek5veobvUBquzwEAAAAAABhKgyl5WwMYuQZUAA+V9CzgUz7ZeaRn/AIAAAAAALDwOpW8rdGp4E0DyNMiLYBnPBHxye93Hv99fnkQAAAAAAAAA9YqdtuXOxW8rQFUyyItgGfOirjnoc7joRnlQQAAAAAAALxEq9ztP9qLXSUvLH766vV6uQh5kmFyJ8PkTobJnQyTOxkGWLT8HSZ3MkzuFqcMdyp6k1bB2z7Ii7/F9FpfrVYrF4feuJUilhjdXB67fMQySzaXYWEMZ4ZhKMgwuZNhcifD5E6GARYtf4fJnQyTuypmuFPRm0anojcN8udvMb3WdQrodSZEvHX3iM8dHnHSMRHLL1PumI/37RexzUblSj9nfy5i03Wby19+T8RbdmouAwAAAAAALA46lbutkXQqedMAGKiuBfBur4nY6VURoxtH7LhZxJjyzt15WXKJiEN3i7jrwXLDPJw6OeKqv5YrAAAAAAAAFdOp5O1U7rYGQC90LYBPvjjiqK9HnPrLcsMAbLtJs/x9cEZzfd3VIg7auVkm9y+Qpz0W8eQzzeV03CbrNJfbbfHyiNVWLlcAAAAAAABGsIGUvQBDrWsBvCB2flXEZX9qLqe7h//30xFbviJij8bfs//8UOPD2j7tQ2+J2G3L5vJ6qzf2//PcJfHKK0R859iIFZYtNwAAAAAAACxi/Uve9qHsBUaCnhXAfbWIHTePuOyGiFGNdz324Ihvnxvxse9EfPy7Eb9tbE9TRHdyxY0Rs2ZFvK7x+pa9to247f6IW+8pNwAAAAAAAAyDTuVua/QvedsHwEjQswJ4s/Ujnns+4tZ7I9YaF7HGKhHn/6Hc2dC+3N+LMyMuuTpi7+3LDQ1p+cJ5vAYAAAAAAGBhtYrd9uVO5W5rAIx0PSuAd9pizvTPKy0XMase8cTTzfUkPe935qxypYML/hCxwyubUz9v9LLmc4EvvrrcCQAAAAAAsBBa5W7/0V7sKnmBKuir1+vl4sJpf/7v1OnNKaHTXcAtq63cnBq6m1vuaU75/MZtmnf//v6miBlPlDthHnqVYVhUZJjcyTC5k2FyJ8MAi5a/w+ROhsld/wx3Knhbo1Xu9h+wqPlbTK/11Wq1cnFu6Xm948dGjF2+ub7qis31JUY319ulu3XTcVNuba4/OCPihn9EHLVvswhO472N5fm58MqI/V7bLIHTHcEwEN0yDLmQYXInw+ROhsmdDAMsWv4OkzsZJndH1a4bUMmbBoxU/hbTa13vyU1TOl/0pYhvfqC5ftqnmuubrttcb7fTqyJ+9+e5p3g+4dSILSZGXPq1iEu+EvHwoxHPPFfu7OLiqyLWmZD+TYfm+wEAAAAAAIu39oK3fSRKXoCX6loAX3pNxFZHvXSkO3v7a3/+b8vtD0S8+dMR7/5qxEH/HvHtcyNe98E5r3/P1yNOubS53JKmfN7ufRF7/GvEizPLjQAAAAAAwGJhoEWvshegu3k8lXfgTvpZxOU3littZs2KuHNqxKNPlhsAAAAAAAAaOpW9nYreNAAYuJ4UwDfeHvH8C+UKAAAAAABAm4GWvQAsvJ4UwAAAAAAAwOKrU8HbPpS9AMNHAQwAAAAAAAxYe7HbWk86lbytAcDwUQADAAAAAABzaS95+4/+xa6SF2Bk6avX6+Ui5EmGyZ0MkzsZJncyTO5kGGDR8neY3Mnw4q1Tudsa7SVv/zGSyDBVIMf0Wl+tVisXIU8yTO5kmNzJMLmTYXInwwCLlr/D5E6GFy+5lrzzIsNUgRzTa6aABgAAAACAiuhf8rZGS44lLwCDowAGAAAAAICMdCp4WyNpL3nby97WTwCqTQEMAAAAAAAjVKeSt3+5238AsHhTAAMAAAAAwAgw0LIXAOZFAQwAAAAAAMOoU9GbhrIXgF5QAAMAAAAAwBBpL3hb64myF4ChogAGAAAAAIAeaC97W6N/wavsBWCo9dXr9XIR8iTD5E6GyZ0MkzsZJncyDLBo+TtM7mR48DqVvK3RXvYqeoeHDFMFckyv9dVqtXIR8iTD5E6GWdS2Oiri2u+UKwtAhhet9LtLv8MqWNgsLigZblpU17/XhuufiZF0vbpluEp/HwZjKM57Uf++q/y7XFxzmoPh+N0M9z9bQ3VO6e/wcJ9Lf0Nxbov6nFp6eW5V/D21LMy59eJ/Dw/luS0qncrd1uhU8rbG/CyqHI7U/C2M1jn18v9Pt6jOpWUofk+L+pxaqnhuvTwn/7cJes0U0AAAAAAALJY6FbxJp3K3NQBgpFMAAwAAAABQeZ3KXgUvAFWkAAYAAAAAoBI6lbytoewFYHGhAAYAAAAAIEsDKXlbAwAWFwpgAAAAAABGvP5lb6fCFwBQAAMAAAAAsIh1Knf7b+9f9ip8AaAzBTAAAAAAAMOmvdSdX7nbfx0AmL++er1eLkKeZJjcyTC5k2FyJ8PkTobJnQyTOxkmd0OZ4U5Fbxrtpa5yl4Xl7zBVIMf0Wl+tVisXIU8yTO5kmNzJMLmTYXInw+ROhsmdDJO7XmW4U9GbKHsZav4OUwVyTK+ZAhoAAAAAgAEbaNGbBgAw/BTAAAAAAADMpX/J2z6UvAAwsimAAQAAAAAWU50K3jT6l7ztAwAY2RTAAAAAAACLgU5Fb6LkBYBqUQADAAAAAFREp5K3NToVvWkAANWiAAYAAAAAyFB7udta71TwtgYAsHhQAAMAAAAAjGDtRW/76F/uKnkBgKSvXq+Xi5AnGSZ3MkzuZJjcyTC5k2FyJ8PkTobplU4Fb2sk7WVva/SCDJM7GaYK5Jhe66vVauUi5EmGyZ0MkzsZJncyTO5kmNzJMLmTYQajU7nbGp0K3vYxVGSY3MkwVSDH9JopoAEAAAAAeqx/wZt0KnZbAwCgVxTAAAAAAAALoX/Zm4aCFwBYVBTAAAAAAAAD0KnoTaN/2avwBQAWJQUwAAAAAECpU8HbGp2K3jQAAEYSBTAAAAAAsFgaTMmbBgBADhTAAAAAAECltcrd9uVuZS8AQO4UwAAAAABA5bQXvUmr3FX2AgBV11ev18tFyJMMkzsZJncyTO5kmNzJMLmTYXInw4tWe8nbf7QXvcre7mSY3MkwVSDH9FpfrVYrFyFPMkzuZJjcyTC5k2FyJ8PkTobJnQwPn4GUvO2DgZFhcifDVIEc02umgAYAAAAAFrlOBW/7diUvAMDAKIABAAAAgGHVXvK2RtKp4G1fBgBg/hTAAAAAAMCQ6VT2tpe87QMAgIWnAAYAAAAAFkqnkrc1FL0AAMNLAQwAAAAAzFencrc1OpW8rQEAwPBSAAMAAAAAHSl5AQDyowAGAAAAgMVMe7HbbSRKXgCA/PTV6/VyEfIkw+ROhsmdDJM7GSZ3MkzuZJjc5ZDhTuVue7HbbbB48HeY3MkwVSDH9FpfrVYrFyFPMkzuZJjcyTC5k2FyJ8PkTobJ3UjM8EDKXmjxd5jcyTBVIMf0mimgAQAAACBTqeBt/WyNRNkLALD4UgADAAAAwAjWXu72H62Ct73wVfoCACzeFMAAAAAAsIh1Kndbo3+52z4AAKA/BTAAAAAADCMlLwCwMC77za/jxhtuiOuvuy6uvebquOqPV8aVv/9d/O7yy4p9v578y5j8i0viFxf9PC664Py44Nxz4tyzzyz2sXhQAAMAAADAEOhU9Kah5AUAFtaRR79/UGPLrbcpX8niQAEMAAAAAD0wkKI3DQCAXpj6wP1x3733xN133Rl33H5b3Pb3W+PWv90cN//lprjpxj/FjddPieuvvSauvfqP5StYXCiAAQAAAGAQ+he9aSSKXgAARgIFMAAAAACUOpW7/Uf/olfZCwDASFI77rjj6uUyALCY2nv148olcnThA9X5/S2OWRxJv7+qXP/huqY5XK/F9VoMxXkv6nOs4jm19PLcRsI5DdU/d4vi3Ibjb8hwn1f7Od1/3N7l0tzWOO7Ccmlw/J0YOlX6OzGU/1zJYG9V8XflnAbGP0tDx+9r3jbZZGJMmnRYzJgxrdzS3Zmnn1481zdNAT1z5szZY1bb8lzrs2ZGX9+ouO6aq+PAQw4p36U3Hn7wocZ3nh6jRo2KUY3PSD/70nLb6L+ejkuvGTdhfPku8zZ58sWzr0378kAMx/cbqPRdZtZntn3W6LblOWPs2FViypQp5asGb+LEiVFr/FQAAwAAAFB56e7ddu7cBQBGijPOOEUB3IUCeHBSAWwKaAAAAAAqr9PUzQAAUEUKYAAAAACy1P5c3vkNAABYXCiAAQAAABjROhW6afS/o3d+AwAAFgcKYAAAAABGjMEUvQAAwEspgAEAAAAYVp1K3tZQ9AIAwMJRAAMAAAAwJDoVvGl0KnlbAwAAWDgKYAAAAAAWWKeCtzUSJS8AAAyvvnq9Xi5CnmSY3MkwuZNhcifD5E6GyZ0M52UwJW9rVJ0MkzsZJncyTBXIMb3WV6vVykXIkwyTOxkmdzJM7mSY3MkwuZPhkatT2dup4E1jcSbD5E6GyZ0MUwVyTK+ZAhoAAABgMdWp5G0NRS8AAORJAQwAAABQYZ3K3dboVPK2BgAAkKd0T7mJxQEAAKBH3tN8JCosOlv1C+G1ylwAgJFu99tPiUmTDosZM6aVW7o78/TT48ij3x9TH7g/Zs6cOXvMaluea33WzOjrGxXXXXN1HHjIIeW79MbDDz7U+M7TY9SoUTGq8RnpZ19abhv919Nx6TXjJowv32XeJk++ePa1aV8eiOH4fgOVvsvM+sy2zxrdtjxnjB27SkyZMqV81eBNnDhRAQwAAAADNZBy97u6NoZBunu3G3fvAgDk54wzFMDdKIAHRwEMAAAA/cyr5FXuMpyUvAAAiw8FcHcK4MFJBbBnAAMAALDYSSVvt5FK3m4Dhkr7c3lbo/15vP0HAABANwpgAAAAKqVTqdt/dCp3WwOGUqeiNw0lLwAA0Ct99boZoMmbDJM7GSZ3MkzuZJjcLa4Z7lTqtkanUrf/YOSocoYHWvSmQb78bwlyJ8PkToapAjmm1/pqtfQYYMiXDJM7GSZ3MkzuZJjcVTnDncrd1uhU6rYGeck9w51K3tZQ9C4e/G8JcifD5E6GqQI5ptdSovxrBQAAAAyLVN4OlDKXkSaVuv0pdQEA6IUzzjglJk06LGbMmFZu6e7M00+PI49+f0x94P6YOXPm7DGrbXmu9Vkzo69vVFx3zdVx4CGHlO/SGw8/+FDjO0+PUaNGxajGZ6SffWm5bfRfT8el14ybML58l3mbPPni2demfXkghuP7DVT6LjPrM9s+a3Tb8pwxduwqMWXKlPJVgzdx4kTPAAYAAGBo9L9rN43+d+vOa8Bw638Hb//R/25e5S8AADASKYABAABYYJ1K3tZQ6jKSdSp4k04lb2sAAADkQAEMAADAXDqVud1Gp5K3NWCk6FT2dip40wAAAMidZwADAAAshlJ5243ylhylUrcbxS4AACPdYJ8BvOXW25RrA+cZwM3PXxyeAawABgAAqCglL1XUrehV8gIAkLPBFsALSgGsAAYAAGCEU/KyOOhf+ip7AQComsEUwAMtEvtvv+O224ak1FQAD8ywFsD1hlot9cCQp0aEQ4bJmQyTOxkmdzLMSDSvUre/72wpw+St/9/hTnf4KnwZyfxvCXInw+ROhqmClOOf/exUBXAXCuDBcQcwAADAIuLOXRZX83pWb6LsBQBgceQO4O4UwIOjAAYAABhCSl4Wd57XCwAAA6MA7k4BPDgKYAAAgAU0kGmalbwsDuZ1R6+iFwAABkYB3J0CeHAUwAAAAPPgDl6Ym+fzAgDA0FAAd6cAHhwFMAAAsNhT8sLc3NELAADDTwHcnQJ4cBTAAABApZmmGbrzfF4AABg5FMDdKYAHJxXAfeUyAABA1lLZ23+kcnd+AxYHqeztP5JU9vYfAAAA5M0dwAAAwIiXytz5UeayuGuVup0odgEAYGRzB3B37gAenGIK6HpDrZZ64JHnuOOOKwbMSyPCMVIzDAMhw+ROhsmdDI8c8yp5lbvdyfDiqVPZm2vJK8PkTobJnQyTOxmmClKOf/azUxXAXSiAB2dEPwO4vfhVAgMAQJ4Gcudui5IX5uaOXgAAWHy4A7g7BfDgjNgCuHXnb/8BAACMPO7chYXTrehV8gIAwOJDAdydAnhwUgHcVy4DAAB0lUrebiOVvN0GMLdU9vYfqejtNAAAAGBBjLgCuNPdvu4ABgCAodep3G2NTuVuawCdDbTsBQAAgF4aUQXwvIpeJTAAACy4TqVu/9Gp3G0NoLtORW8ayl4AAAAWhRFTAA+k4FUCAwBAd51K3dboVOr2H0B3nQre1uhU9KYBAAAAi4JnAAMAQAY6lbr9R6dStzWAgRtMyZsGAAAAjCS1xqg3Fxedbnf2DnY7AADkKJW386PEhd5KpW43Sl0AAGC4nXHGKTFp0mExY8a0ckt3Dz/4UMysz4xRo0aVY3TbcvuYe/sdt90W4yaML9+lN9J3mTFjevMz+pqf09f2mZ3W03HpNQP9LpMnXzz72rQvD8RwfL+BGujvbezYVWLKlCnlqwZv4sSJ0VevL9r+d0HKXAUw7RZ1hmFhyTC5k2FyN1wZ7n+3bvvof7dupwHd+Ds8b/3v5G2N/nfxtg+GlwyTOxkmdzJM7mSYKpBjeq2vVks3AS8aC1PkKoFpWZQZhl6QYXInw+SuFxnuVOr2H51K3daAheHv8Bydit5EyTuyyTC5k2FyJ8PkToapAjmm1zwDGAAABqFTuZt0KnbbB7BwOpW7/UenojcNAAAAWJykf6VgkdxXPpA7eHt1DAAADESrzJ0XZS4MnVTidqPIBQAAqswzgLtbmGcAn3n66eXS4B14yCHlUm8M5zOAF0kBPNDSttfHAQCw+FLuwsjSqexV8gIAAIsrBXB3C1sAH3n0+8u1gZly7TVx3TVXZ10AD/sU0ENR1iqAAQBI2qdl7j/ap2PuNoCh0T5Nc2u0T9HcGgAAADAUpj5wf9x37z1x9113xh233xa3/f3WuPVvN8fNf7kpbrrxT3Hj9VPi+muviWuv/mP5irwNawE8lEWtEhgAYPHQqdxtjU6lbmsAQ6dTwds+lL0AAAAwfIb9DmAAAJifTuVua3Qqd1sDGDqdit3WSDqVvK0BAAAADJ9hK4CH4w5ddwEDAOSjU7nbGp3K3dYAhk6ncrc1kk7lbmsAAAAAI0NfvV4vF4fOcBazSuDFz3BkGIaSDJM7GaaTTqVu/9Gp3G2N4STD5G5BM9yp5O1U7LYPGAr+DpM7GSZ3MkzuZJgqkGN6ra9Wq5WLQ2NRFLJK4MXLUGcYhpoMkzsZXvx0KnP7j06lbv8xUsgwueuU4U7lbv+h4GWk8HeY3MkwuZNhcifDVIEc02ueAQwAwEt0KnVbo1OZ238AQ69Tqdsancrd/gMAAACopiEtgBflnbjuAgYA6KxTqdt/dCp1WwMYPp3K3dboVOq2BgAAALD4GrICeCQUsEpgAGBx1anUbY1OpW7/AQy9TqVu/9Gp3G0NAAAAgE6GpAAeScWrEhgAqKpO5W5rdCp1WwMYPp1K3dboVOr2HwAAAACD5RnAAAAjWKdytzU6lbutAQy/wZa8AAAAAEOh1hj15mJv9PKO25H6XgAACyOVtwOlzIWRIZW586PUBQAAYEGdccYpMWnSYTFjxrRyS3cPP/hQzKzPjFGjRpVjdNty+5h7+x233RbjJowv36U3zjz99HJp8A485JByad4mT7549rVpXx6I9P2OPPr9MfWB+2PmzJmzx6y25bnWZ82Mvr5Rcd01Vw/4+w3UQH9vY8euElOmTClfNXgTJ07sbQHc65J1pL8fAMD8dCt7Fbsw8syr5FXuAgAAMJRyLoBTwToYU669ZlAFqwJ4cIoCuN5Qq6UeeORR2DIQjQjHSM0wDIQMk7vFMcPu4K0Wf4cXD1W+g1eGyZ0MkzsZJncyTO5kmCpIOf7Zz07NugAeyoJVATw4qQDu84eR3MkwuZNhclfVDLees9tpJK1n7c5vMPL5O1wdrefudhqt5+7Oa+RKhsmdDJM7GSZ3MkzuZJgqkGN6ra/8CQCw2OhU6vYfSadCtzWA4dWp1O0/OpW6rQEAAACwuFAAAwCV1KnUbY2kU6nbfwDDo1OZ2390KnX7DwAAAAAUwABAxjqVu62RdCp1WwMYHp3K3P6jU5nbfwAAAAAwMApgAGBE61TutkbSqdxtDWDodCpyO41OZW7/AQAAAEDvKIABgEWuU7nbGp2K3fYBDI1OZW776FTkdhoAAAAADC8FMAAwpDqVuv1Hp2K3NYDe6lTmdhpJp0K3NQAAAAAYmRTAAMBC61TqtkanUrf/AHqjU5Hbf3Qqc7sNAAAAAPLTV6/Xy0XIkwyTOxkmF53K3dboVOq2Box0I/3vcKcSt9voVOL2H1SP/y1B7mSY3MkwuZNhcifDVIEc02t9tVqtXIQ8yTC5k2FGgk6lbv/RqdxtDcjZovo73KnA7TSSTkVup8Hiyf+WIHcyTO5kmNzJMLmTYapAjum1lKgR+68VHHfcccUAABZcKm/nR4kLvdEqbAdCYQsAAAC0nHHGKTFp0mExY8a0ckt3Dz/4UMysz4xRo0aVY3TbcvuYe/sdt90W4yaML9+lN848/fQ48uj3x9QH7o+ZM2fOHrPaludanzUz+vpGxXXXXB0HHnJI+S7zNnnyxbOvTfvyQAzH9xuogf7exo5dJaZMmVK+avAmTpzoGcAAkLP+d+l2Gkn/O3b7D6C7/l+Vys8AAFOWSURBVHfkzmv0vyN3XgMAAAAAhoICGABGuE6lbmsknQrd/gN4qU4FbqeRdCpwOw0AAAAAWNRMAQ0AI0CrzO1GiQsD0ypsB0JhCwAAAIwUpoDubmGngN5y623KtYHLfQpoBTAADBMlLyy4gRa7Sl0AAAAgRwrg7ha2AF5QCuAhogAGoCpS+avgZXE3mLtz+1PsAgAAAFWmAO5uYQrgkXStFMAlBTAAI8n87uCdHwUwVaHIBQAAAOgtBXB3CuDBKQrgekOtlnrgkUcBzEA0IhwjNcMwEDI8ssyr5FXgdibD+VrQIrdqJa4MkzsZJncyTO5kmNzJMLmTYaog5fhnPztVAdyFAnhw3AEMwGJlIHfwKnnJkSIXAAAAIG/uAO5OATw4CmAAKmd+Ja+Cl5FoYaZUThS5AAAAAHlTAHenAB4cBTAAWXEHLyOVAhcAAACAhaEA7k4BPDgKYABGFAUvw2Fhy9pOFLgAAAAALAwFcHcK4MFRAAMwrEzPzILodWGrrAUAAABgpFEAd6cAHhwFMAA95Q7exddQ3FXborAFAAAAoOoUwN0pgAenKIDfc22zAF7jwrmL1vv3bq7bbntie5PtTbY3La7b56X9NcP1fRb77cftXS4tWmscd2Hxc5FdB9sLtjfZ3mR7k+1NtjfZ3mR7k+1NtjfZ3mR7k+1NtjfZ3mR7k+1Ntjf1evvutyuAu1EAD8487wBeamzEzOciXni63DAfgz1+JBop57DMuIhnH42Y9UK5AYBhM5R3sg4Vd8gCAAAAQN7cAdydAnhwigL4uOOO61gAT9vhR7HkgxvGcrftUG6Zt8Ee/9yqt8eoZ1aM0U+tUm7p7JnV/xJPrX9VzFri6Rgzbd1Y4W+7R98LS5V7e2uw5zBUpu55Qqx81WExZvrLyi0AI8dIueN0qLTuZAUAAAAAGC6bbDIx2wJ4y623KdcGTgH80s9sjSG9A3id10c8OTVi2q3lhvkY7PH7/iDijl9F/Pmn5YYO1t4h4v99I+IPX4+YcVvEth+IeP7piIveXx7QY/t8N+KuKyJuPKXcsIgc3vgOFzXOdeoN5QYAAAAAAAAqK+c7gBeUAnjoCuBRjZ9zTzZeWnK5iOcej3j+iXJDw7KN85y4e8T4zSJeeKY5TXFL/+MnbB5Fu7z0Ko3XvKHx2gkRj98TUa9HrLxBxAZ7Rrz4bGN9ZsRyjX1P3N98XbudPh1x/zUR1/5PxJMPRDxwfcQOx0bc/buIpx8uDyqttG7E8mu8dPtqWzR/Pv9k8+eSK0Sst2vz+6Xq++lHmtuTV+wT8djdEQ/eWG7ooniPnSPW2Kp5fk89GDHrxTnnnKZwXn+P5r7HGuecrLlNxNrbR8x8IeKZ6c1tLem7p2u0/GqNa3RfxBbviPj7xc1CHQAAAAAAgGqbNOmA2HTTzePZZ58pt3T39FNPRb3xn76+vkGNR2fMiGWXW7Z8l94YN258rL3uy2K9iRNj4gYvj5dv+IrYcKON4hUbbxwbb7ppbPLKV8YrN988NnvVFvGqV786tnjNlvGarbaKFVdcacDf5fbb/zH72rQvD8RIulYD/S5LL71MPPDAA+WrBm/llVeOvnL5Jbb9UMR6u5UrDWttH3HIuRHr7hyx+msi3nJaxCYHljsb+h//2o9E7PjJiD2+HDF+02Zx+4avNfet/uqIpVduhKKxfcO9m+Vnf32jIiZsFnHf1eWGhlTOpiK4Veq2W2m9iL3+M2LUmHJDQ/qMvb/TLGyTcZs0zyF95vhXRrzxmxFbv6+5b6BSyZveY9ODGxfw5RGb/VPE5m9r7kvn/Lp/i9j1+OY573xcxPYfblyHT0S86u3NwviAnzTL4JZ1d4o48H8b12TLZmmczqH7bwUAAAAAAACguwFVjbXGUTt+POL6H0Zc8uGIX30y4vLjI7b9YMRSY8uDOli6se/st0X89riIC94T8bIdm3e7/uWMiEfvivj7z5vvdcUJ5QvaLLVS48stMfcdusnT0yKWHVeutLn7ioj6rIh1XlduaNhgr+bU0cW01LXmHcU3/Kg5hfRln4s49x0RrzykWeQORLoO6T3+flHEeYc3rsEXIi48qvGeJ5cHNIxZrvm+6Zx/+5nm+z87o/GZx0RMblzDv57d3Jakknv7YyOu/nZj38ea++/8bcToJZv7AQAAAAAAAAZjQAXwCms1xpoRt5xXbmhIUxQn6S7dbm6f3JwaOUlTPKcpo9M0zQNRS5NTN7Re3zLrhTn72qXj/nFJ8+7elrR864XN5eVXb049/dRDzWcLp7HyxOZ6MR10P6nITftbI5XR6T3SncY3nlYeVJo1s1xoSAVua/2RW5qlcboOLdMa21rXIF3XtHzL+c31pH0ZAAAAAAAAYDAGVACnu3GT9mf+Rj3iucfm7OvkhafKhVJ6/m37FM3zkp4nnD5jyRWb6y1pPX1uJ7deELHWDs2pn1fdqHm3cauoTs8gTtJdyOn5w2m8/I0Rj9wc8UyH50Snaa73/I85Iz2nOD3TN3m23zN827Wfc6u8fuHp5s8kbUtlcpKuXbpr+bm25yynZxW3F8oAAAAAAAAAAzWgAvjJqc2f6Y7VltFLRyyz6px9g1WfT8n54rMRj90TMX6TckPDmOUjVlwn4pE0pXMH6Y7bNOVzKnbT3b93/745/XLy1IPNnzf8MOLXn5573HlZc1+7uy6POG2vOePxe5sjScVyL6Rrl+4QXmGNckPDcqs1fikd7nAGAAAAAAAAmJ8BFcBpmuT7r4vY+ujGC0Y3t6Xlpx6OmHpDc32w0rN9V9lwzvslr9i38b7vK1cabrkgYqM3N+++Tc/wfc0Rzbtv77uqub//8Uma8vkV+zVL4HRHcEuagvq+q5vP3F1yhXJjw/jNmncMD8Qzjc9OxfB2H26W0cnopSJWWLu5PFhPPti8flse1SyC09jqveVOAAAAAAAAgEHqq9fr5eK8Xf755h3Ab/9VY0yOWG/XiF9/KmLm8+UBg/SnU5rTNB9+RcTbLm1uS+trb99cTm5sHHP/lIhDzo94R+NzJ74h4pcfm/OZ/Y9P0pTPK63TWGic1t2/a25r+dUnG699LuKwSxrveW7EO38Tscu/RyyxdHnAAFx+fOO/Gu/99sZ3PuS85ndfc+vmvgVxxQkRq23RfJ/0vZ5+OOLFZ8qdDMhAMwwjlQyTOxkmdzJM7mSY3MkwuZNhcifD5E6GqQI5ptdqjdExVW/+YcStP4/465nlhtLyazTv2k3TIafn1w6HdIfukss3P7MXz8dNdwCn6aufmTFniujBWmaViDGN93n6oYjn+z3reLDSnb8rvqz5jOW5nrMMAAAAAABA5Z1xxikxadJhMWPGtHJLdw8/+FDMrM+MUaNGlWN023L7mHv7HbfdFuMmjC/fpTeG47tMnnzx7GvTvjwQOV6rsWNXiSlTppSvGryJEye+dAroMctFrL9HxMobRjzyt3JjmzSV8mN3D1/5m6Splx+9qzflb/Lc4xEzbl/w8jd5upGrR+9Y+PI3Sdfy0TuVvwAAAAAAAMDCeUkBvNxqERvtG/HHb0Q8dFO5EQAAAAAAAIAR7yUF8PR/RFz0gYi/nlVuAAAAAAAAACALLymAAQAAAAAAAMiTAhgAAAAAAACgIoa1AF5mXOMDl2guLzU2YollmssAAAAAAAAALLyuBfCGe0e84esRk86I2O/kiNe8O2L0kuXOedj6fRFrblOu9HPI2RHjN20u7/HliI3f0lwGAAAAAAAAYOH11ev1cnFum78t4qGbIq78RsRfz4zY5C0Rr/90ubOLVBBvdmjEY3eVG+bhxlMj7ruqXIGF0C3DkAsZJncyTO5kmNzJMLmTYXInw+ROhsmdDFMFckyv9dVqtXJxbmcdGnHDDyPu/WPE3y+KuPLEiPV3a7xgdHlAB2tuG/HoXRFPPthcX2ndiE0Par5u1JjmtpZnpkU8/2RzOR03bpPmcrvVtohYbrVyBbrolmHIhQyTOxkmdzJM7mSY3MkwuZNhcifD5E6GqQI5pte6TgFdn1UulFKBO/OFl25vt+7OEXdeVi7vFHHg/0asvmXE+ntE7PWfjY1tn7bthyLW2625vNJ6zf3tJfHSK0fs/Z2IJVcoNwAAAAAAAAAwT10L4HZpauc0JXS6E7hbAVxrvNPLdoy467LGm46K2P7YiKu/HTH5Y43x8Yg7f9v9GcJ3X9F833VeV25o2GCviBm3RUy7tdwAAAAAAAAAwDzNtwBOZe6uX4h48dmIP36z3NjBhM0iZj7XLGxXWCti+TUibjm/3NnQvtzfrBcj/nFJxIZ7lxsa0vKtF5YrAAAAAAAAAMzXPAvgdFfvrsc3y9yLPxDx4jPljg7W2WnO9M9LrdS8o/e5J5rrSXre76yZ5UoHt14QsdYOzamfV92o+Vzgv19c7gQAAAAAAABgvroWwKn83eXzEWMnRvz8fRHPPV7u6KL9+b9PTm2+foU1muvJcqs17ybu5pFbmlM+v/yNzbt/7/59xLMzyp0AAAAAAAAAzFfnArgWsfNxEWu8JuI3n40YNSZi2fHNkYrd/tLdukuPjZg6pbn+5ION5RsitjyqeXwaW723uW9e0pTPr9ivWQKnO4IBAAAAAAAAGLiOBfCoJSI22CtimXERB5wS8U8XzRnLr1ke1GbdnSLu/t3cUzxfcULEaltEvO3SiMMuiXj64XlPIZ2kKZ9XWqexUG++HwAAAAAAAAAD11ev18vFOWY+H/HdrTqPx+8pD2rT/vzflhm3R5z+5ojz3x3xs4Mirv52xMmva94ZnFzwnogbT2kut6Qpn7+/XcRP9oiY9WK5EeajU4YhJzJM7mSY3MkwuZNhcifD5E6GyZ0MkzsZpgrkmF7rq9Vq5eKC++NJEXddXq60qc+KePTOiGcfLTfAEOhFhmFRkmFyJ8PkTobJnQyTOxkmdzJM7mSY3MkwVSDH9FrnZwAP0oM3Nu8aBgAAAAAAAGDR6UkBDAAAAAAAAMCi17UAXirGxhKxTLk2f4M9vkrGxPKNMx9XLC8dK8foxn8DAAAAAAAADLeuBfAe8eXYON5Srs3fYI9fM7aJFeNl5Vp368fusW/8IA6KM2PH+ERRto4US8VKjTP+aRwS58Re8R/Ftj3jm7FhYw0AAAAAAABguHUtgG+MU+O+uKpcm7/BHr9lHBUvix3Ltc7Wjh1i1zg+/hGXxBVxQqwaG8bu8aVy76K3QewVL8az8ZPYI86MQ8qtAAAAAAAAAItG1wL4mZgWz8eT5VrTsjE+Nor9YpM4MFaK9cqtTf2PnxCbx3KN/053+W4Sk2Ld2KXxYaOKfSvHBrFkLN94j3WLkneN2KrY3t8W8c64NS6Mv8bP4oGYEr+Jz8ZasW2Ma7xjJ63PXDleHpvGQY1vuOvsz2yZ1zmkY18Wryteu2Hs85L97VaNVzQ+6VUxK15snMP2xWe2m9d3AAAAAAAAABgKXQvgbeNDsV7sVq5FrBXbxyFxbqwbO8fq8Zp4S5xWlKgt/Y9/bXwkdoxPFlNDj49NY4c4Nt4QXyv2rR6vLp6VO66xfcPYOyY29vSXStMJsVncF1eXWyIei7vjyXggVostyi1zS5+5U3w2do0vxCqxQWwX/xx7xn9ErTzNeZ1DOmbf+H5sFe8tium1Gq/eNT5X7Otkjdi6KHmXbyylc2j/Tuk6dPsOAAAAAAAAAN1MnDhxgUfSV6/Xi4V5SeXljvHxuD5+GJfEh+NX8cm4PI6PbeODsVSMLY96qaUb+86Ot8Vv47i4IN5TTPmcytW/xBnxaNwVf4+fF++VpnfuLz1fty+WiKfjkXJL09MxLZaNceXaSy0Xq8W58fbG9/tC47MPi1Vjo+I5wvM7h/S9Vo1NGq99Z/w+vhK/jn9rvP7t5bu+VJry+u7GN3+wsZTe669xZrmn+3dgaAwkwzCSyTC5k2FyJ8PkTobJnQyTOxkmdzJM7mSYKpBjeq2vVquVi92tEGs1xppxS5xXbon4e1xc/Ex36XZze0wupkhOnoj749l4tLhjdiBq5bTJrde3zIoXZu/r5La4tPGK54rl5+LxuCsua3zzred7Dqlontl4RSqJ14xtYnQs2djT/AduTCwXK8fE2SMV0/PS7TswNAaSYRjJZJjcyTC5k2FyJ8PkTobJnQyTOxkmdzJMFcgxvTageYnT3bhJKnDnqMdz8djsfZ28EE+VS00zG1tGxZhybd5ScZo+Y8lYsbmhlNbT53bzbL99aT19x/mdQ/q88+PdUWv8J00j/fb4VWwd7yuOStNFp2mcWyM9Z3heun0HAAAAAAAAgKE0oAL4yZha/Ex30baMjqVjmVh19r7BqsfMcqmzF4va9J4YH5uUW9KduMvHirFOPBK3llteqv07Jumu3/QdB3IO0xrve1l8Ln4abyqmiX51vCtWiQ3jrrg8Tou9Zo/H497i+G66fQcAAAAAAACAoTSgAvipeCjuj+ti6zi68YLRxba0/FQ8HFPjhmJ9sNKUy6lcbb1f8orYd/Zdt8ktcUFsFG8u77itxWviiHg2psd9cVWxv//xyQaxZ6Tn+SbjY7N4Wbwu/hG/mO85LBerF9+n5cl4IOqN//Sfgnogun0HAAAAAAAAgKE0oAI4uTw+X9zZmqZGfntMjvVi1/h1fCpmxvPlEYPzpzglVo2N4vC4It4Wlxbb0vrasX2xnNzYOOb+mBKHxPnxjsbnTow3xC/jY7M/s//xyW3xi9gzvhWHNl6zb3wvro+T46G4qdg3r3NYJlaJveN/iu0HxZlxQJwW1zVePyNuL147GPP6DgAAAAAAAABDJT1Vut5cnNub44dxa/w8/hpnllualo81ijto0zTI6f7Y4bB0rBxLNj45feaseUwdfUCcEn+Lc4uxQqwdz8aMlzyPN+l2DrXG1mVjfGPPkvFkPFhMQ72g+mLUPL8DAAAAAAAAJGeccUpMmnRYzJgxrdzS3cMPPhQz6zNj1KhR5Rjdttw+5t5+x223xbgJ48t36Y3h+C6TJ188+9q0Lw9Ejtdq7NhV4rHHFq5bfMkdwGNiuVg/9oiVY8N4JP5Wbp3jibg/Hou7h638TZ6J6fFo3DXP8rddOu7RuLNr8drtHNJ6elZv+qyFKX+T+X0HAAAAAAAAgF57SQG8XKwWG8W+8cf4RnbTFj8StxbPFgYAAAAAAABYHPXV63PPAD09/hEXxQfir3FWuSUf6Rm/d8Zl5RqLi/4ZhtzIMLmTYXInw+ROhsmdDJM7GSZ3MkzuZJgqkGN6ra9WS48BhnzJMLmTYXInw+ROhsmdDJM7GSZ3MkzuZJjcyTBVIMf02kumgAYAAAAAAAAgT5UrgJeJcY2TWqJYXirGNpaWKZYBAAAAAAAAqq5rAbxR7B9vjJPmGpvEpHJv0/qxe+wbP4iD4szYMT4RY2L5ck/T/PYvqK3jfbFmbFOuze2QODvGx6bF8h7x5dg43lIsAwAAAAAAAFRd1wJ45Vi/uIP27rhi9pge/yj3RqwdO8SucXxjyyWNPSfEqrFh7B5fKvfOf/+CGh1LxmZxaDwWd5VbursxTo374qpyDQAAAAAAAKDa5jkF9ONxd/w1zpo9psb15Z6ILeKdcWtc2Nj+s3ggpsRv4rOxVmwb42KTAe2fEJvHco3/XinWLe4sflm8rrG1+ZDrdHfvJnFgrBwbFOvt1my8x6NxVzwZDxbr6fWbxkGxfuwWo2JMsa3lmZgWzzeOTNJxrc9ut1rjmy7X+G8AAAAAAACA3M2zAF46VolXxL6xbuxU3A3c0hejYkJsFvfF1eWWiMfi7ngyHigK1fntT14bH4nXxb8VdwmnKZt3juNi+/hwMVX0q+LtsUZsFQfET14y1fO6jSPvjMvK5Z3iwPjfWD22jPVjj9gr/rOxdc4pbRsfivVit2J5pcZS2t9eEi8dK8fe8Z1YMlYotwAAAAAAAADkq2sBXG/8Z9kYHxNjj9guPhyHxLmxXuxa7FsqVmq8cIl4Oh4p1luejmmN14yb7/6WMbFc413fEb+N4xrjM/HKxqc8GzPiojgmJsfH469xdrGtpdZ415fFjnFXXNZYGhXbx7FxdXy7cezHiuPvbLxLmiK6kzSFdT1mxTrFncZNG8RejU+7rfGtbi23AAAAAAAAAOSrr16vl4tzuyb+O86IA+Oi+ECcHvvHzXFW7BSfLUrbWowqjpkVLxY/W2bFC8W++e1vSYXtrJhZLD8StxQF7+0xuVhPpjW2LR9rlGtp2ujNGkc/VxS2K8Raxb5b4vxyb8y13F/6Lul5xBvG3uWWKJbTNNXkrVuGIRcyTO5kmNzJMLmTYXInw+ROhsmdDJM7GaYK5Jhe66vVms/d7e/FeKZcSurxp/hxjIlli+fyPhePF9uWjBWbu0tp/bl4bL77W16Ip8qlOWXxC/F08TNJ29KdxC3rxE6zp39OdxmnO3qfiyeK9SQ977dVKHdya1wQa8UOxdTPq8ZGxXOB/x4Xl3vJVbcMQy5kmNzJMLmTYXInw+ROhsmdDJM7GSZ3MkwVyDG9Ns9nALcbHcsUP9MduC/Gs/FY3BPjY5NiWzImlo8VY514JG6d7/4F1f783ydjanHH8AptdwgvF6sVU0N3k+4yTlM+vzzeWNz9e3f8vphyGgAAAAAAAKAKuhbAE+MNsURZ+i4Tq8SO8bF4PO6N6fGPYtstcUFsFG+O5WJCY60Wr4kj4tnG3vviqgHtH6x0t+7SMTamxpRi/cl4sLF8Q2wZRxVFcBpbxXuLffOSpnx+RexXlMDpjmAAAAAAAACAquhaAG8d74t3xeVxeFwRh8UvYqlYMS6NY2NmPF/svzFOiftjShwS58c74ldFYfzL+NiA9w/WurFT3B2/m2uK5yvihFgttoi3Nb7ZYXFJPB0P95u6+qXSlM8rxTqNpXrxfgAAAAAAAABVkSYV7/pk6XTn75hYIZ6OR+L5tmfttkvP010yli/uDu70/N357R+o/eLk+HP8NG6PyeWWpnTn74rxsng2Hi0GAAAAAAAA5OSMM06JSZMOixkzppVbunv4wYdiZn1mjBo1qhyj25bbx9zb77jtthg3YXz5Lr0xHN9l8uSLZ1+b9uWByPFajR27Sjz22GPlqxbMPJ8B/HT8//buPN6usr4X/7NPZjKRhCSEgAQSiBAIyCCIIDhbFVQ0osBP8afWa+31Um+91vZXWultnarXaqu13vu7QlWqFFtxFoSAclEGBTRAgEAYkpB5ns6Qffd3nb0O++zsfc5JOCBr9f3m9bjXXvOz9tf88znPs9anTemRtuFv2Jk21PZ5tG24O9j2ofpF+lztLDfXvz2lWjvzprRc+AsAAAAAAAD8hzdgAPxcsjrdk/Z3+mgAAAAAAACA/wgKEwADAAAAAAAAMLCOarXtK4ChENQwRaeGKTo1TNGpYYpODVN0apiiU8MUnRqm6NQwZaCOGW4dlUqlvgjFpIYpOjVM0alhik4NU3RqmKJTwxSdGqbo1DBFp4YpA3XMcDMFNAAAAAAAAEBJCIABAAAAAAAASkIADAAAAAAAAFASAmAAAAAAAACAkhAAAwAAAAAAAJSEABgAAAAAAACgJATAAAAAAAAAACXRUa1W64tQTGqYolPDFJ0apujUMEWnhik6NUzRqWGKTg1TdGqYMlDHDLeOSqVSX4RiUsMUnRqm6NQwRaeGKTo1TNGpYYpODVN0apiiU8OUgTpmuJkCGgAAAAAAAKAkBMAAAAAAAAAAJSEABgAAAAAAACgJATAAAAAAAABASQiAAQAAAAAAAEpCAAwAAAAAAABQEgJgAAAAAAAAgJLoqFar9UUoJjVM0alhik4NU3RqmKJTwxSdGqbo1DBFp4YpOjVMGahjhltHpVKpL0IxqWGKTg1TdGqYolPDFJ0apujUMEWnhik6NUzRqWHKQB0z3EwBDQAAAAAAAFASAmAAAAAAAACAkhAAAwAAAAAAAJSEABgAAAAAAACgJATAAAAAAAAAACUhAAYAAAAAAAAoCQEwAAAAAAAAQEl0VKvV+uL+G45zhOfSefSpPc+mPX1qz7NpT5/a82xaK2OfgmfTmj6159m0p0/teTbt6VN7nk1rZexT8Gxa06f2PJv29Kk9z6Y9fWrPs2mtjH0Knk1rZexTGK7zQK6jUqnUF/ffcJwjPJfOo0/teTbt6VN7nk17+tSeZ9NaGfsUPJvW9Kk9z6Y9fWrPs2lPn9rzbForY5+CZ9OaPrXn2bSnT+15Nu3pU3ueTWtl7FPwbForY5/CcJ0HcqaABgAAAAAAACgJATAAAAAAAABASQiAAQAAAAAAAEpCAAwAAAAAAABQEgJgAAAAAAAAgJIQAAMAAAAAAACUhAAYAAAAAAAAoCQ6qtVqfRGKSQ1TdGqYolPDFJ0apujUMEWnhik6NUzRqWGKTg1TBuqY4dZRqVTqi1BMapiiU8MUnRqm6NQwRaeGKTo1TNGpYYpODVN0apgyUMcMN1NAAwAAAAAAAJSEABgAAAAAAACgJATAAAAAAAAAACUhAAYAAAAAAAAoCQEwAAAAAAAAQEkIgAEAAAAAAABKQgAMAAAAAAAAUBId1Wq1vgjFpIYpOjVM0alhik4NU3RqmKJTwxSdGqbo1DBFp4YpA3XMcOuoVCr1RSgmNUzRqWGKTg1TdGqYolPDFJ0apujUMEWnhik6NUwZqGOGmymgAQAAAAAAAEpCAAwAAAAAAABQEgJgAAAAAAAAgJIQAAMAAAAAAACUhAAYAAAAAAAAoCQEwAAAAAAAAAAlIQAGAAAAAAAAKImOarVaX4RiUsMUnRqm6NQwRaeGKTo1TNGpYYpODVN0apiiU8OUgTpmuHVUKpX6IhSTGqbo1DBFp4YpOjVM0alhik4NU3RqmKJTwxSdGqYM1DHDzRTQAAAAAAAAACUhAAYAAAAAAAAoCQEwAAAAAAAAQEkIgAEAAAAAAABKQgAMAAAAAAAAUBICYAAAAAAAAICSEAADAAAAAAAAlERHtVqtL0IxqWGKTg1TdGqYolPDFJ0apujUMEWnhik6NUzRqWHKQB0z3DoqlUp9EYpJDVN0apiiU8MUnRqm6NQwRaeGKTo1TNGpYYpODVMG6pjhZgpoAAAAAAAAgJIQAAMAAAAAAACUhAAYAAAAAAAAoCQEwAAAAAAAAAAlIQAGAAAAAAAAKAkBMAAAAAAAAEBJCIABAAAAAAAASkIADAAAAAAAAFASHdVqtb4IxaSGKTo1TNGpYYpODVN0apiiU8MUnRqm6NQwRaeGKQN1zHDrqFQq9UUoJjVM0alhik4NU3RqmKJTwxSdGqbo1DBFp4YpOjVMGahjhpspoAEAAAAAAABKQgAMAAAAAAAAUBICYAAAAAAAAICSEAADAAAAAAAAlIQAGAAAAAAAAKAkBMAAAAAAAAAAJSEABgAAAAAAACiJjmq1Wl+EYlLDFJ0apujUMEWnhik6NUzRqWGKTg1TdGqYolPDlIE6Zrh1VCqV+iIUkxqm6NQwRaeGKTo1TNGpYYpODVN0apiiU8MUnRqmDNQxw80U0AAAAAAAAAAlIQAGAAAAAAAAKAkBMAAAAAAAAEBJCIABAAAAAAAASkIADAAAAAAAAFASAmAAAAAAAACAkhAAAwAAAAAAAJRER7VarS9CMalhik4NU3RqmKJTwxSdGqbo1DBFp4YpOjVM0alhykAdM9w6KpVKfRGKSQ1TdGqYolPDFJ0apujUMEWnhik6NUzRqWGKTg1TBuqY4WYKaAAAAAAAAICSEAADAAAAAAAAlIQAGAAAAAAAAKAkBMAAAAAAAAAAJSEABgAAAAAAACgJATAAAAAAAABASQiAAQAAAAAAAEqio1qt1hehmNQwRaeGKTo1TNGpYYpODVN0apiiU8MUnRqm6NQwZaCOGW4dlUqlvgjFpIYpOjVM0alhik4NU3RqmKJTwxSdGqbo1DBFp4YpA3XMcDMFNAAAAAAAAEBJCIABAAAAAAAASkIADAAAAAAAAFASAmAAAAAAAACAkhAAAwAAAAAAAJSEABgAAAAAAACgJATAAAAAAAAAACXRUa1W64tQTGqYolPDFJ0apujUMEWnhik6NUzRqWGKTg1TdGqYMlDHDLeOSqVSX4RiUsMUnRqm6NQwRaeGKTo1TNGpYYpODVN0apiiU8OUgTpmuJkCGgAAAAAAAKAkBMAAAAAAAAAAJSEABgAAAAAAACgJATAAAAAAAABASQiAAQAAAAAAAEpCAAwAAAAAAABQEgJgAAAAAAAAgJLoqFar9cX9NxznCM+l8+hTe55Ne/rUnmfTnj6159m0VsY+Bc+mNX1qz7NpT5/a82za06f2PJvWytin4Nm0pk/teTbt6VN7nk17+tSeZ9NaGfsUPJvWytinMFzngVxHpVKpL+6/4ThHeC6dR5/a82za06f2PJv29Kk9z6a1MvYpeDat6VN7nk17+tSeZ9OePrXn2bRWxj4Fz6Y1fWrPs2lPn9rzbNrTp/Y8m9bK2Kfg2bRWxj6F4ToP5EwBDQAAAAAAAFASAmAAAAAAAACAkhAAAwAAAAAAAJSEABgAAAAAAACgJATAAAAAAAAAw+Coo45Kl112Wfb5H9kz+Rw8YxicABgAAAAAACi9008/PQsO4/OZMnLkyPpSsZx33nnpIx/5SJo5c2Z9TX956Nru2cVxcXycJxT1OUBZCIABAAAAAIBSGzduXDrjjDPS448/nn3G96fjtNNOSxdccMFeQed9992XLr/88vTggw/W1zwz2l1/f8V9jxkzJh1xxBH1Nf1NmzYt+zz66KNbXjOOi+PjPOHZeg5Aax3VarW+CMWkhik6NUzRqWGKTg1TdGqYolPDFJ0apujUMEU31Bo+9NBDs88bb7wxjRo1qu/7/ogAdP78+Vng+bvwTFz/iSeeSNu2bWsZ8Mb3WB/h+axZs/rC4EYzZszIjo/zsO/8W8xw66hUKvVFKCY1TNGpYYpODVN0apiiU8MUnRqm6NQwRaeGKbqh1vAxxxyTHnrooSygXLVqVfadp+zcuTN7PgcddFAWkDeKwDeC33w0b/Mo4RhNPW/evOz4OA/7zr/FDLcRtfaXvYsAAAAAAADlEgHlq1/96nTLLbekdevWZd9POeWULLDcvn17fa/+IiBetGhReu1rX5vOPvvs7N23GzZsyILOSy65JB144IFZO+uss7LtK1euzLbHu3L/8A//sO97vBP3da97XbrrrrtSd3d3/ey94j4++MEPpunTp6elS5dm6+L8cc03vvGN2XmPPfbYtGnTpuxcIe5joOuHGLH7yle+Ml100UX97j36PpA9e/akk08+OT322GN95wrHH398mj17drruuuvSwoUL0+7du/vuN0QgHMfdc889fSOAm59DiPuIe4rnHiOY3/GOd6SXv/zlWR/j3qKfjaIfp556arr44ouz/eL4jo6OtGvXrrRgwYL029/+tt99hla/24QJE9Kjjz6a9S+0+01arW/+jZrvKa4xduzYfuffX4sWnV/r18Ja/wYP0XfU6rZa+y+ex760TRs3pvETxtfPMjyejXt5+OGH+p5N4/JQFPFZjRt3QPb/s6fDO4ABAAAAAIDSOuGEE7LPPJy8++67U1dXV8v33UbAF8FkhIgx5fE3vvGNrC1ZsiQLAx944IF09dVXpxUrVmQtlmP7k08+WT9Df/Eu3Agg83toFNNQx7b8vbkzZ85Mb37zm7PlOG+0zs7ObF1sC4NdP+7xne98ZzrxxBPTj3/84757j/5EGDqQLVu2ZKFT4+jofPrnCGhje4S3EVLHdXIxQjiOe+SRR+prBhbvYI7Q99prr83ucdKkSdn7jPM+hrjuhRdemAX3cf/Rj9g/7iX60myg3y2eRZwr9gn5b9I4DXj0J/rVvD7uLUZE579RBMvnnHNOWrx4cXb+uP8I4uG5RgAMAAAAAACUUh5gNk5PnE933Op9tzEyeM6cOVmw+r3vfS/bL1os/+pXv8pGnMZUyBEgR4vl2L5169b6GfqLUHT58uUtrxVBa2xrDE6vueaa9LWvfS0LHKPFdUMeVg92/Rj5O3ny5PT5z38+/fKXv+y79xjVGsFrY3DbbP369dn02BFo5vca4WdMCx3Bc4yKbQ5P8+cbx8Xxg4n3Fvf09PT1Me7x29/+dra+MZDPf4errrqq73eI/a+44orsmTUb6HeL88e22Cfk7ztufJdx9Cf6unbt2n7r457iOccxeUic33ecPz6/+c1v7jW6G37XBMAAAAAAAEAp5e+vjdCuUXyPULAxdMzDzAgY8/fdPl0RDEZ4GvfQGCzGaNcIgPNgNaxevToLFRvFqNsIIGfMmFFf014eUMY5mt/FG/2NgDNGtLbT6l7zYDQPqfNRwvn2/Pk29mMwzb9FHsjmfWz8HZpHFcc1br311vq3XoP9bs0hfKs/AIh+xH39+te/7rc+7il/nvE7xEjoeMZTp07NtsNzlQAYAAAAAAAopdNOO61vBGejPHRsnO64ebTrcMlDzMawOR9ZGtNRN5o4cWJ2z29605vSu971rvThD384G3E7FPl0xTHl8WWXXdavvf3tb89G2Q4UAIfme43nE/cZwW/IRwnnIWmcL847lNG/IcLj/Fzt5L9DvBN4KL/DYPvHutgW+8S+Yc2aNX3f8wA5AuDoR74+D9Rj35CHz7Et3m/8+te/XhDMc5YAGAAAAAAAKJ3G97pGkNoYiObBamzPp0XOA9ThFiN7I1zMp2COFsvNI3XjHb1/9Ed/lE466aTs3b+/+MUvsimNI6jeFzFVdf4O3ObW7l3FuXzEcQSi8TyaRxRHCNo4SjgC4ri/5oD9uS6C7vitY4Rz9CNqIfqQ9yPWR/9juurGUcgxwvgzn/lM9u7fBQsWZEFwvKcYnmsEwAAAAAAAQOnk0xdHWNcqDI31EfydcMIJ2f77Mt3yvooAOK4V95TfV7w/NpeHwvGu3i996Uvp+9//fnZMq/fdtpPff0dHRxbatmrt3lWcy6dHjlGws2fPzu4z7qNRHojGNNbxvuDYvzHIHi6N7yJulE8/nYs+x9TM7faPdbEt9ol9Qz6SOQLsGO0cIXZsy/ufr9+4ceNeo5sjBI/fLoLg+L1ixHU8C3gu6ahWq/VFKCY1TNGpYYpODVN0apiiU8MUnRqm6NQwRaeGKbp2NRyh34te9KIs5Lvzzjv7AtDGds8992TBXz6dcR7+RaB31FFH1c80PCI0jTB34cKFWYv7agwW89HH+XTDuQiLIzgeivz+n+47avOwOkYkRyjaPLo3D5pf/OIXZyOBm+/56cr70fze5JAH5Y3yUcnxTudWv1sEubGtcWrv/Jjp06dnI3kbt0V/IjCOALxxfbNYH89qKFNrD8a/xQy3jkqlUl+EYlLDFJ0apujUMEWnhik6NUzRqWGKTg1TdGqYomtXwxEcRoA4UIDXKmi87rrr0ooVK7J35sY7XiNMjRbLMTVzyMPDCBUjZI7RorE8kPyYCBujxbtkG+8rD1XPPvvs7B3A+TXPPPPM7L25jQa6foxMjSD5ve99b9958nMNdari/P3Ihx12WL9Rs7n8uUV4GhqnSB4u8TvEdS+55JK+3yH687a3vS0tXbq0vtdT7rjjjixgX7Ro0V6/2/nnn59ti30aRQAfIW+Mdm7sQyxHTcTv1BjSR/j8B3/wB33PNZ77S17ykmGZAtu/xQw3U0ADAAAAAAClEqM+w2DhZD4Nc4R6IcLNK664IlsfAeCFF16YtRgRGsFwLsLEeNfuS1/60nTeeefV1w4s7iXC3FaBYVz3q1/9aha4RlAb1wzXXHPNXgFsaHf9eN/wV77ylexe8/Pk93/77bfX9xpYHvCGdgF6Pi1080jm4ZI/jyVLlmTBe/QhPn/2s59l99Qs7jGf1juC67zfsXzttdemK6+8cq9+5EF3cx9iOdY1/07xOyxbtiydc8452bkjbI7nHfcZ9wvPJfEnBcaVAwAAAAAAwO/It771z2nRoovTxo2DB+prV69JPdWeNGLEiHob2bDc2Pqvf2TZsjR95vC+4/rZuJfrr/9h37NpXB6KIj6rKVOmpc2bN9eP2j9GAAMAAAAAAACUhAAYAAAAAAAAoCQEwAAAAAAAAAAlIQAGAAAAAAAAKAkBMAAAAAAAAEBJdFSr1foiFJMapujUMEWnhik6NUzRqWGKTg1TdGqYolPDFJ0apgzUMcOto1Kp1BehmNQwRaeGKTo1TNGpYYpODVN0apiiU8MUnRqm6NQwZaCOGW6mgAYAAAAAAAAoCQEwAAAAAAAAQEkIgAEAAAAAgNI66qij0mWXXdavnXfeefWtv3txL8/0vcU5P/ShD6Vx48bV1/BceiZxL3v27D0N9MMPP5KWLn0g9fTsqa/p9eTq1Wn16rXZ8sqVT6YHH3yotk9P9n1/PPnkk9m1KA8BMAAAAAAAUDojR45M73jHO9K5556bPv3pT6fLL788a7E8YsSIbPv+ilA5zv10zpHfX8jvLdoTTzwx5PO2uo9W66699tr02c9+Nu3cubO+5tkzHM/q6Xqmn8nT7eN9992XKpWO1NXVVV+TstA3vm/fvj3t3r27vrZ3fXd3T5o4cUL2/ZBDDq5df15W05ATAAMAAAAAAKVzyimnZJ+f//zn+4V8sfxv//Zvqbu7u77md2PatGlpypQp6Ze//GV9Ta9f/epXv/N749m1ZcuWVK1W+wW9sbxz5640evTo1NXVWV/bu76z9n3kSIEv7cV48mrvIgAAAAAAQPHFtL7vf//703e/+9304IMP1te2d/rpp6dXvepV9W8p3XXXXdkI0VZiut4TTzyx/q3/vvtynqHeY+M5I/z76le/mlavXt3yPkKre4t916xZk37xi19ko1QvvPDCdPvtt6dTTz01zZkzp995c43nX758eXrkkUeywDrvT4x6ffvb354ttzo+DNezCjNnzkyXXHJJGjNmTPY97ukb3/hGv7C8+ZxXXXVVOuaYYwZ9JrEcGq8f5zr66KOza0RY3+7aQ+1ju2cU4jf5+tevrO3/4jRx4vhsXUzLvGPHU3+4cOSRR2SfmzdvTg8veyTNPHh6GjVqVDYV9AEHjEszZsxIlUolPfroY7Xl6Wn9+g1p69attXOPSgsXHp8mTZqUHlm2LE2fOSOb7nn9+vXZ+WL9xIkT065du/quEeL6jz/+RP1b7x8s5Nvz6aLj+9rVa1Jnd2dasWJVmjVrZu18k7PRyBs2bKj1uTPbZ9u2bdk01RFLjho1Mntea2rnj3sZiuuv/2FatOjitHHj+n7LQxH311Ptye6pt41sWG5s/dfnz2o4DfVepkyZlv3OT0f8ecBf9i4CAAAAAAAU3xFHHJHmz5+fbrjhhkFH00ZId8YZZ6S/+7u/Sz/96U/TLbfckgWjhx9+eFq6dGl9r6fEupUrV2ah2Re/+MVs+t6wr+eJ+4pRn2984xuzcDCmfm6Wh5BxnRtvvDELLN/ylrdkIeOSJUv2uo929xbPIqYSjmt0dHSk448/Phshfc0116Qf/OAHWbh33HHHZefcs2dPFmoeeOCBfdfdsWNHNpV2hIJxjQhj3/SmN6UrrrgiO37FihVZf+IajYbrWYXow89+9rPserF/9OGwww7r27/5nPfff3/W1xhhPdgziT5HoJ33PwLZc845J916661p3bp1A157oD62++2aazKuuWjRm2rPfFrtPL1TO69Z0xvsRkAbI4QjfO/oqNSutSr11I6fMGF81r/t23dkQfD48eOzADiCw3XrNqS5c+emI488Mgt2I+ydPn162rxpU1pdu4+YWnrBggXp0ENnZ4FsBNoHHHBAdo0Qv/Pq1Wuy4Piwww5NBx98cPYcnrqPjr7lnbXa2LFzZ+371tqRlTR58qRs+4YNG9PUqb3ne/jh5dn15s2bW9s+OXu+27dtS+NrfRiKhx9+qHb8wlpfdvZbHoodtd+4Wvsv7mlf2qaNG4d8f0M11HsZN+6A7N+Ep6Mj/nGBIlPDFJ0apujUMEWnhik6NUzRqWGKTg1TdGqYotuXGo5A7rLLLsvahz70oWwEbrSTTjopff3rX++bJjrCuR//+Mfp0EMPzbYPxf6eJ0affvnLX05nn312dl9xj7n8nHGOPDCMUbgRxMU5n66bbrqpbzRqhKQTJkzIgsS4bpy/8boxQjmCy0YRIkYIGCJAbDWytZX9fVYxNXZ+jdg/wtkIqSNMjGMi/I3R1Pk5Y9+4r6GIEDj6H0F4iM/4nofyA127lX397aKOK5WUNm7cmO0fLcLpGE0bwW5nZ2cWCMb6GNUbYfNAYiRuhMfhkEMOyY6PkLmnpyc7b4TXI0b0viU2Atm83yGusXbtuiwQz/sX+8YxcWxsHzVqdDY9dR5Sbt26rXaOqdk18uvE7xD1FOL4mMo6xPWiTzyzOuKvAaDI1DBFp4YpOjVM0alhik4NU3RqmKJTwxSdGqbo9qWGI2y9/PLLs8A1RkWGCOPGjh3bF2Tm8u8x+nIons55Ilj85Cc/mU1XHNMF59MRxzkPOuig9L73va8vuP7TP/3TbMrm4ZBPAZyLsC7uM7/X5r7ECNZcHBvT+n74wx/OgsJ98XSeVWOIn08/HfJQtdUo6qGIsDKOjZHjIT7jex4mh3bXbmVff7veOu79Y4YIWaNFYBpTTlcqveFpvAe4s7MrGyE6tj4VdTtjx/YP0SOQjRC4u7sn+z56dG8wm8vD4hDXjhC3eZ/8e9xD3Ne4cWOze4pzxx8DxIjkuEZsj6mro55iv2hx/3feeWfauHFTdg6eeb3xPgAAAAAAQElEmBjB1FAD3OeCGGUb4XSEjzHFcoiQ9dOf/nQWXDe2obzXeH/FM4uAdiAxCvTKK6/M7vf888/vG1H9TIlzxzViSuW/+Zu/yZ5BBObDKaZujvNH3+Mzn8p5f6+9P79dNqXyzp19o2dj5Gy0mFY53um7ZcvmLEzd3z/e6e7pzsLdp6vxniJUjvfWxmjheHbd3V1p9+5d2VTW+ZTG8+cfnU2bHX2/7bbbs8CYZ5YAGAAAAAAAKJUYVRtT7p522mn1Na21C4rbjYJtZzjPE2FaHNfunM+0dtedMWNGfekp8Zw/85nPZFMbn3DCCfW1A9ufZxXbYtT21VdfnYXPoXHa4uF4Vvk00DGiuXH658Gu3cr+3k9cN96dGy2mVM5FCB1TP8d7dvN37O6PkSNGppg1PUbpNooRu7mY3rnVPvn3fCRwTE8dfdy+Y3s2GjjuafLkiWnz5i3ZlNDNf0QQ7xg++eSTsr7k02nzzBEAAwAAAAAApXPdddelefPmpXe84x1t39WaB8UXXXRRFkyF2PfVr3519t7XximAm8UUv/k7TvfnPDHKN7Y3ykPUCB/bnfOlL31pv/403keu1bqhiumd4120cW/5dSIUPfHEE7PlEN+bp35unlK60dN9ViGOzwPVeHbx3uRcq3PGPo1TLg/2TOK68dxPOeWUve5joGvnhtLH5t+u2dSpU7OwOVoEsbn8nbkxqjiC1/01Zszo2vET0+OPP556enpHAm/evLnfbxfTQcc+MVo3D7xj3zhm+vSD+u4/guAdO3Zk0zrnU0jHthjd29XVXev3Adm6CITjGo0iDN69uzPdddc9/cJnhs+IWvvL3kUAAAAAAIByiPDq1ltvTYcffnhatGhRFtpFi4DvO9/5ThbShaVLl6ZqtZoFxbH9rLPOSrfddlv2zuB2YoTn3Llz0+te97o0efLk7Bz7ep6Yive1r31teuUrX9l3bxEufulLX+oLH+Oc06dPT29+85v7zhnrHnvssWx7q/totW7+/PnZu10j4IyRmjEdbyxv2LAhO0+MPD3uuOPSb3/722yk6ZIlS7J9zj333Oy6MdLznnvuyYLIOF8EnfEe3Je//OV9/YztrQzHs4p7j2mPL7jggmz/CFtvvPHGNHv27PSb3/wme5ZxzsZnFfd/xx13ZMcO9kxycZ6oj8WLF2fbwlCu3a6PA/12zRYtOj8tXPiCtHbt2mya5xhx3dHRO9Vz/GYRtka4OmvWwWlXrT6qtf9i/fbtO7LfI36buM8IW+P3jOA5tscUzTFCO2pr+7ZtadYhh2S/+/Lly9PKlStrZ6/U+jQtC21jCurQ+1mt3e8D2T6rVq2q3c/0dPDBB2fbQ35P8f+zCIxj5Hq0bdu2Z6N/p06dku0THnpoWfacV6xYmQ45ZFZ2nnVr16UdtX7EaOqBgvnw8MMPpQULFqZdu3b2Wx6KHbXfL39W+9I2bdyYxk/oDd6Hy1DvJcLz3bt314/aP0+9VRoAAAAAAABaOO+889KaNWsGDMbZf9/61j+nRYsuThs3th9JnVu7ek3qqfa+e7e3jWxYbmz91z+ybFmaPnPvqbyfjmfjXq6//od9z6ZxeSiK+KymTJm216jpfWUKaAAAAAAAANqK6Z5jOu277767vgZ4LhMAAwAAAAAA0CdG+1522WV9LaaCbpyaGnhu64g51qHI1DBFp4YpOjVM0alhik4NU3RqmKJTwxSdGqbo1PAz49prr02XX355X/vsZz8r/H0GqWOGW0e8EBqKTA1TdGqYolPDFJ0apujUMEWnhik6NUzRqWGKTg1TBuqY4WYKaAAAAAAAAIDnqEsvvbS+1F+79QJgAAAAAAAAgOew5rC3XfgbBMAAAAAAAAAAz3F56DtQ+BsEwAAAAAAAAADPUZ/73OfqS/3D38b1jQTAAAAAAAAAAM9hzWFvu/A3CIABAAAAAAAAnuPy0Heg8DcIgAEAAAAAAAAKYLDwN3RUq9X6IhSTGqbo1DBFp4YpOjVM0alhik4NU3RqmKJTwxSdGqYM1DHDraNSqdQXoZjUMEWnhik6NUzRqWGKTg1TdGqYolPDFJ0apujUMGWgjhlupoAGAAAAAAAAKAkBMAAAAAAAAEBJVKomFgcAAAAAAAD4ndu8eXN9af9VNm3a9LQD4GXLltWXAAAAAAAAAIpl7ty59aXiMwU0AAAAAAAAQEkIgAEAAAAAAABKQgAMAAAAAAAAUBKDvgP40ksvrS+l9LnPfa6+1J93AAMAAAAAAABF9Uy+A3goeetwGnAE8LN9MwAAAAAAAABl0pizNuavz5S2AbDwFwAAAAAAAODpezZD4JYBsPAXAAAAAAAAYPg8WyFwywD42R6GDAAAAAAAAFBmz9Yg3LZTQAuBAQAAAAAAAJ6+Z3MG5rYBcBACAwAAAAAAAOy/ZzP8DZVNmzZV68v7bdmyZfUlAAAAAAAAgGKZO3dufan4BhwBDAAAAAAAAEBxCIABAAAAAAAASkIADAAAAAAAAFASw/IOYAAAAAAAAAB+94wABgAAAAAAACgJATAAAAAAAABASQiAAQAAAAAAAErCO4ABAAAAAABK6urbtqb/dfOm1Nk9eBw0ZmQlve+lB6Y3njyxvqa9arWaNm/enLVdu3alnp6eNGLEiDR27Ng0efLkrFUqlfrerV3wDyvS2q09adbkkemzF81MMyeNqG95ej7xiU/Ulwb3J3/yJ/WloVu6dGn6/ve/nz2D17/+9Wn+/Pn1LYPbunVrevzxx+vfWpsxY0Y66KCD6t967Uufmg21j//1r+5LDz+2s/5tb/PmHJA+/WfPr397yn/5i3vTYyt31b/t7YjDxqXPXnZMtnzggQdmn7lNmzbVl1rr6qmmG+7dkRbfvyM98GRn2ri9J40bVUnHHTY2veWUCenUI8fV9+zv8Q1d6bM/2pCWrOhM3bVzDGbkiEo6Ztbo9OHXTk2HTh1VX1tcAmAAAAAAAICS+r2/fTyd84pD0gkLp6RVT+5MN9+8Oi1/dHvas6eaOjoqac7h49NLXjIzzTp4XPr1rzekxTesSF+9eHSaNWtW/Qx72717dxZiRugbQe+YMWOy8De+x7YIhcPhhx+eBcLtnPPxx9IH/mB+uvfezemuX65In7twRjp8xvj61v338Y9/fEiBaQSjZ511VjrzzDPrawZ3//33p+9973vpwgsvzALgq666Kp199tnp1FNPre/R3pYtWwYNf3OHHXZYmjRpUv1bbwAc/dpXH/3oR7P+tevjG959e/b59jfMTld9Z0X6wCdfkX1v5R8+cn362H8elU488cT6ml5vfM+d6azzjk4LTpudOkY8FfpHjd1b+11v/s4D6S8+0JFe8IIXZAFwHvo2Lrdy60M7099fvzHtGTsqnfSCaWn27APShAkj0/bt3emBB7ekW29dk84/flT6/VfMrB/xlD+4cnXqPmBMes1rDqkdM3igu21bV/rRj1amzrUb0j++65AB67YITAENAAAAAABQUtu6qunEE6akX9+9Mf3LvyxPrzlqfPruHx+d7vrE8dlnfL/qquXZ9he8YGra0V1Jjz76aP3ovUXAu2zZsiz0PfTQQ7OQMpZHjhyZfcb3WH/AAQekhx56KG3fvr1+5N5iYObkyaPTi140PZ1w+uz0wa+tSb9euiLde++9acmSJXu1WL9+/fr60e1FMBsOv/qxti3k+w3Vfffdl4W/F198cTrmmGPSsccemy644IK0ePHidPvtvUFqo9/85jf9WjzXPXv2DKk1B6P5vR72L48PuYXB+tjd3Z2Fvv98zaPZ8q7az9WuxfZt27bVj+wVAXK1uifNP+mQ2mcl9XTXftd6q+6p1NbPzrb/5d/XVtRNvuTArLUTt/z//2xz+svvbUiPb+xJb3/bEemEWg0fdNCYNHbsiDRt2pj0otOnp4sumpuuvqc7/eCXvb9noyWrOtOrhxj+htgv9n9488hshHfRCYABAAAAAABKKkLWJ1buTNdd/2T6p3fPSb//shlp9tTR2bb4jO9fec+cbPuKVTuz/SPoayWCyeXLl6cJEyakadOmtZ3iOdbH9giDH3nkkSw0biWu1bmnt53ywulp4YsOTR/41570nn+bkN777xPTp2+dkoVxRxxxRPY5derUtGrVqmwa5YHkoWfX7hFtWxhqAPzTJdvTKz71ePrD7xyQjj7romzK55j6ORx33HFZCHzjjTfuFQLH+efOnbvPrdV95et6ujuG3MJgfezu7kqb16Z05uuPz5a3b05tW2xv9p3/dWrq6elOX/6Tq9MX//ibafHVd9aundJN19yZff/Hj3wr2/7hd+1OP//5z3sPmlNvbfzj4k3pmnt2pnddMi+NHjsibdzUmaIX0W665WPpz//oZenzf/aPacaMsen006enf/3Vrr0C85g6OkLd/LihtNi/u1aL7eorRiw3tqHYl30H0uocA51bAAwAAAAAAFBSEbJed/Oa9O6XHpQWPu+A+tr+Yn1sj/1i/3Y2btyYhcMR7g5F7NfR0ZGeeOKJlkFkhG27G9qJpx6UrfuvHzk+vf8/H5PuXdWdBc65CJQjhM6nmG4nv1bnjlFtWxgsHA3fu2tb+rsbN6d3v/uo9J73zk//8/aUvn3L49lI4Nzxxx+fhcA33HBDfU2vuNf9MdBxPV0dWVtx0SFtW75POzGddN66ujrTuidSWr9qd7a8bUNq22J7s9e989bsfhd/563p5u9ekCpbNqfu2m5dazdk32N9bP/4V0Y8NQ314fXWwk1Ld6ar7tie3nrBnDR+0uh04JTR6dGVO7M/Erj+pg+nh5/8ZDryzF+kdZ1fS7trxTr3qEnpoU1j0ooVK+pn6NX4xwWN7YKX/XFfa7W9Xf1H0Bohc2NrDF/bBbHNwfRwaj534z0IgAEAAAAAAEqqu5rS0oe3pfNe8FQ49KkfPJme/9El6ZPff7K+JmXbY7/Yv52YfjlC2AhOI9RrbPH+3+Z1sd/EiRPTjh079poK+m1fXpVda1dP/5av6xgzMlteuHBhtv9rXvOa7DM/d6PGQDNaTEcd77597yP/Y6+2a/vIrIXm8zRbfP+O9IXFm9NbLzgyTZk6Jmtve/sR6X8s3p6uuaV3iuV8JHD+DuRGg52/nVbH5WF1T1ftOrUWpn9l7V4tNO7TKuSOdfE+4WgxqnfT6j3ptsW37dcI4O9f8aLsfm/6ee80zCcfOzU9dv/qdPKC3j8SiPWx/aPv7Rl0BPDu2g/+iR9sSC9/5SHpgMljsjo4/MhJ6Vd3b0q33/Pf02NrvpjOf8N56U3nnZsOf+Gv0h2/+es0YuzItL2rkjZt3lI/S69WtRWtNxrtba22x3HN8vC32XCEu+2C40b59Yeyb04ADAAAAAAAUFJde1La1V1Nh0zpnfY5fPnm9WnL7j3pn3721Pt0Y3vsF/u3E+9/jff8RqDX2GJa5vvvvz/7bN4W+8cU0M0B8JJVXdm1dvT0b43rYjnCymg/+tGPshbnbNYYaA7UYr/dS34xpBHAKzZ2p7/+3ob06tceliZOrfWhdtlo4w8ckxa9/cj0t4u3p6t/3jsSON7ve8UVV6TnP//59aN7xb3m978vrV0fQ3dXR9Yalxtb4/qQH9coXxfvQo4R3d/91jfS5sOr2fKuhnf+NrdWU4O/+qKbs/Nd8Y3fZN/PPut56bv/87r0srN7E95YH/35qy/teWoEcJsA+Ht3b097Dhid5jz/wL4amLdgSlq/+cp0/wOfSIvedF46aNrUNP2gaen8N5yb7rv/4+n2uy5PY0f0pOqe2s4NYiR5fo7Glioj+lqr7XHcvsqD2fhstfxsaLxuEAADAAAAAACUVExpu6dSSSs2PjV97yUvnpZGjuzIPnOxPfYbaArorq6ubErnCPTyFqNeY2roKVOmpA0bNuw1Ejj2j3Wdnf2nD46gLQvpuvu3xnWxnJ/nla98ZdZiuVljoNmuhdjvuosPSJ1/NrHvezt/+5ONafa8yWnWnIl7hYSjJ45Ob7zgyPTpxdvTZ676P+nKK6/Mwt+ZM2fWj+6V3/v+tGb5vXZ3dmStcbmxNa4PrfqYr4v3BG/+T+ekNS8Zk7bPHpk6p45O//6NK9q2o+b0jipu9OOvv6R2vz3pkZW70z2/XZOOmjs1nXDs1DT/qKnZ9+VPdtautyf9+fs7Bh0B/MPf7khzF0xJ22u/fd6qY0amI2rnqqQRqdqxp1YTnVmbOm1ieuMbXpWeePTTafq0L6ZRo3pD/VyM5M3Pcevi36T/8vo/z1qqjOxr+bqbfnRn376tRgAPJh8JHJ/5SN18+dnSeA9BAAwAAAAAAFBSEWjNPHRC+uYdT4VRf37uwemHHzwyrVi9M5380d6Rm9+qbY/9BgrAYprjCHIbg8oIEydMmJDWrl2bTfcc3xu3x/6xrjmIPPaQ0b1hb1O42rguD4AjQP7JT36StfjeLD931+4RbVvI97v00kuz1nxPuaWru9Ity3enk888uC8YbG4jx49Ov7foyPQPd45Phx56aDr44IPT/Pnz62fold/7vraB+tg4vfPWS6fs1cJQpoAO3bXnEm3E3DOztvUNZ6W1rzgkrX7xhL72pb86PJ0w+4fpna9bld771klZ0N/o5Rdcn93z809ekP75qt9m677yhddmn/H96Bcck22/7PO7+kYAbzqwtzW798muNOWQCf3qIdrCMz+Y0qg/Sd+86kdpzbo1qbN7R9YOnDounfuGs9OesV9LN6+/qn6WXlHH+fHzXnR8OuP8c/qFv3k7+TWnp2NfenLfvvsTAO+PxhHCjcvtDLa9mQAYAAAAAACgpCLQOv60GelTP1mX7nh0R3p03e70oa8/li74+4fSzx7clt71shnpzkd3pk/Wth/3whkDBmDjxo3LpoGOgLKxzZgxI82bNy/7bN4W+8c7eWMkcKNr/tPBA04BvW5T7xTRcY4IEM8555ysxfdmeaAZUzu3ayH2+8IXvpB95iOKW/nOXdvSnOdPSXtGj2wZ/uZt7ca4x0ratWtXFv4edNBB9TP0yu99X9tAfezp6sjamL/Z1rbl+4T8uEb5ulZBefXgE1LliLP6WjzzCLiPP/74LMBdsGBBdmzup998RXa/hx09N91864q06slt2fr4vOn/PJGed/S8bPvlHxzbNwJ4eb01W7219sOPaf3Mj33JR9Pkwz6e/vVfbkhPrnky7eramrVJU0am1557Srpp5b/Uz9Ir6rjx+NPe+vJ09OnH1bZEMN7b5p58TDrrna/tt9+zFQA3jhBuXG4WwW++PdpQg2ABMAAAAAAAQEnFKNrxBx2Qnn/K9PSGzz+cXvqJB9K3f7U5betK6YIzDkrb9lTSqz7/SDr2jIPThOkHZPu3EwFnq2meo0Wo2Lwu9ovpoSM4bp6iN0TYtrPnqXbnrWuydf/7M79J3/yn+9NRk58Km2+88casxXKzfN2u7SPbthD7nXrqqelVr3pV9j0Czb730ja46aFdadbcyWlbd2rbHlq+PX3v3x5Jb53zeHre8563V/gb8nvfn9asLwDu7hhyCwMFwJ07Rw7aQqtz5F5y/g9r9xvv4B2VDj3qqHTV1Uuy9fE5e97cbH1s/9PPbu171u0C4DGjKmnD1u5+gWxj6+mopq5agezcvTXt7Nzc1zp7dtTusVI/S6+o437H1+rrzN8/L82Y97xs5G98nv2BN6Udtfpv3K9V/bcLXvd1VO6zSQAMAAAAAABQUnnIuvSONWl3TzVt6U5pW+37us6U/vtP16d/uGtHOv3cOel5x0zN9htoBOT06dOzkbxr1qzpF1a2a7FfhMAxRfT48ePrZ3lKhG27ateM9utb16TH7liR3j/rhvQPp/86a3/4/AfTpEmTsnPkYW2ct1lfoNli5G/eQuyXj2RtFfyGnj3V9NC67jRi0piWwW+0u+/akH787w+nS45el14+r5IiVG4l7jXufV9bqz7mev5i/JBbO/nzajUCuLmFgQLgm7/9e9n9dtfqac4xx6Srv7s8vehV38w+D59/TLY+tv/NhyYOOgL45OeNTcse2NLvjwLy9sT9X0yrl3wkvfR1z0tjJnamnV2bs7Zq9Zr0g2/fm95+wkfqZ+nV/McF0bpGjEpnX/qWdMjCedlnfG/ep1395yFwY4t1jfL1+XKrz30x2LmaP0O+LAAGAAAAAAAoqZ5qSru6q2nLrj19oxwPO2lmesU7j0lveM+CdMbr52Qjf3fvSWlnbb/Yv50IfyNAjVG9q1ev7gsrm1usj+2xX0wLPXr06JYBcFxr/Ybd6e5frEmrfr0ifezFa9LB43vS4YcfnoWq0Y466qi+80bg1iqM7AuA/2xi2xYGCjJz2fOq/c+6jV17TU+9bnNXuv7a5enXP3sifeC4ten0WTvS0UcfnQXjrcT1Gp/LUFu7PubvLh6Kgd5znK/L3wE8UAutzpE747zvZvfctbsnjRs/Ob180QV9bcLkqamrs7dP/+1TG/tC90frrdl7z5yY7r9jbVq7ZldWj3lbs+yf0/olH05n/t6UNGr8rrSzc0vWVq/ekK675rH0/7zgo+niF/Z/LpVKJW3a0tXvPNEq4w9IZ176luyzedvmrV0D1n/UX2Nr1Lwt3978vVm79aH52KF+DwJgAAAAAACAkho7qpIeuGd9euW7F6TXvO/4rM15wYxUGTMydVcqaWfnnrR9Z0/atqMnLb1rXRrdsad+ZGsxnfNJJ52Uvdv34YcfzqaE3rlzZ+rs7Mw+43us37p1a5o9e3YaO3ZsmjZtWhbINZsxcUT68RUPpLV3rUyXn7E6PW/KiHT22WenzZs3pwcffHCvFqHylClT9nqf8GDh6EBhaLMv/XxLqj2SdMfNK9OatbvS1p170ooV29Mvb1yRfvj1B9L07WvTX5++Kr1wVmc65phj2oa/IYLP7u7ufW5xXLOPfexj2TuLh9KHEPu1e89xfo7uyyYM2sJA17zlO+fWtu9JD9x7f+rc3ZN6ulPWYnnn9t3pgSX3Zds/9d+mDDoC+CVHjU3vOXVkuulfl6X77libNm7Y3VubW2rPpSvVanV737t/163dnBb/+/r0jlP+NF102gfrZ3jKCYeOTr+6aUXatKkz+z0Ha7HfnYtXpCMm1y5UApVNmzYNrVIAAAAAAAAolC/dsjX91Y83pF3dewewzcaOrKZL5m9M583dlU4//fT62ta6urrSI488ko3yjeA3QssIZiPwnThxYjbt85gxY7Lwt9X7f3O33XZbFh7HvjG6OI6P8PiOO+6o7/GUuXPnZkFyTHMb12gU4eJPfvKT+re95e/9De2mfw7T/+yx9K6Ljkz/++sP164VEVolzRzXnRYetCu96rBtae6kziyEjnuJex3IDTfcUF/ad/PmzcveLdzssssuqy8NLvrcqq/7co5cu3OF9/23m9Pd926of9vb/CNHp/e+dVJ2fPx2J9aTybtqJZmPWG30zZ8/nr5y645074axWd1OHtOTDp90daqM+lx64ev21H6XWt38oJLefdr/ly46/QP1o/p7YG1X+n+vfDzdu773PcaD6aj91kdP3p0+uHBDev7BY9OJJ55Y31JMAmAAAAAAAIASW7lyZXr00UezqZkHM2LEiDRnzpw0a9as+pr2YmRohL/bt2/PAuE4fxwfgW9M+RyjhVuN/B3IUELTl73sZfWlveWjTFsZKPjNfeqnm9Mnau3iozent8zdkiJEG1GpZmHv5MmTs+cS4fZQPfbYY/WlfdcqAA4D9bFZuz7vyzlyAz2/e+65J23ZsqX+bW8Rmi9YsKDf+2pDqwA4xB8WRN1u2lz7Dfb0ZDV125qfpm8v+0JWd+85/c/TxS9qHf7mojYfeOCB7A8KhiJqNf6wIKYdj9otMgEwAAAAAAAAQEl4BzAAAAAAAABAKaT0fwGjaO9AEiV1RQAAAABJRU5ErkJggg==;" vertex="1" parent="1">
          <mxGeometry x="-60" y="250" width="700" height="379.17" as="geometry" />
        </mxCell>
        <mxCell id="eqonpGOxvKRrQOyWGAyb-3" value="&lt;ol&gt;&lt;li style=&quot;text-align: left&quot;&gt;在變速度情況時，仍可穩定產生&lt;u&gt;位置等間距(時間不等間距)&lt;/u&gt;方波&lt;/li&gt;&lt;li style=&quot;text-align: left&quot;&gt;因此在低加速度情況仍可維持軌跡精度&lt;/li&gt;&lt;li style=&quot;text-align: left&quot;&gt;低加速度意涵著更小的機台震動、更穩定的控制, i.e. 方形轉折時可緩慢停止&lt;/li&gt;&lt;li style=&quot;text-align: left&quot;&gt;等間距開啟、等間距關閉控制模式，在低速時每個單位尺寸接收到的膠量不等，因為膠量是時間相依&lt;/li&gt;&lt;li style=&quot;text-align: left&quot;&gt;修改成等間距開啟、等時關閉? 思考中…&lt;/li&gt;&lt;/ol&gt;" style="text;html=1;align=center;verticalAlign=middle;resizable=0;points=[];autosize=1;strokeColor=none;fontColor=#FFFFFF;" vertex="1" parent="1">
          <mxGeometry x="-85" y="335" width="580" height="100" as="geometry" />
        </mxCell>
        <mxCell id="eqonpGOxvKRrQOyWGAyb-4" value="" style="ellipse;whiteSpace=wrap;html=1;fontColor=#FFFFFF;fillColor=none;strokeColor=#FFFFFF;" vertex="1" parent="1">
          <mxGeometry x="50" y="440" width="300" height="120" as="geometry" />
        </mxCell>
      </root>
    </mxGraphModel>
  </diagram>
</mxfile>
